<svg width="166" height="113" viewBox="0 0 166 113" fill="none" xmlns="http://www.w3.org/2000/svg">
<g id="Group 1922">
<path id="Vector" d="M165.028 86.1328C165.028 94.6336 162.548 102.556 158.266 109.212C157.51 110.393 156.694 111.532 155.825 112.629H8.52567C7.95807 111.518 7.43643 110.376 6.96448 109.212C4.91723 104.174 3.78906 98.6639 3.78906 92.8914C3.78906 89.5811 4.16166 86.356 4.86421 83.2555C4.88905 83.1383 4.9176 83.0212 4.94578 82.9044C6.40057 76.7167 9.18189 71.0365 12.9712 66.1865C13.0458 61.8047 13.5426 57.5226 14.4186 53.3821C14.4435 53.2579 14.4683 53.1337 14.4932 53.0133C15.82 46.9001 17.977 41.0994 20.8403 35.7277C20.904 35.6106 20.9682 35.4934 21.0282 35.3766C25.1616 27.7275 30.7317 20.9722 37.3773 15.4729C37.4799 15.3843 37.5797 15.3028 37.6824 15.2175C39.2755 13.9118 40.9323 12.6809 42.6425 11.5242C42.7597 11.4426 42.8769 11.3644 42.9973 11.2828C44.8422 10.0553 46.7474 8.91303 48.7164 7.86605C48.9011 7.76669 49.0853 7.66733 49.2736 7.56797H49.277C52.6689 5.80472 56.2273 4.31804 59.9314 3.14353C59.9351 3.14353 59.9351 3.14353 59.9384 3.14353C60.1976 3.05826 60.4601 2.9804 60.7226 2.89884C66.928 1.01472 73.5128 0 80.3319 0C84.8483 0 89.2549 0.443409 93.5229 1.2913C93.5229 1.2913 93.5229 1.2913 93.5266 1.2913C93.8139 1.34802 94.1013 1.40845 94.3852 1.46888C111.639 5.13034 126.451 15.3944 136.049 29.4974C136.13 29.6146 136.212 29.7317 136.29 29.8522C140.427 36.0043 143.57 42.8801 145.5 50.2419C149.829 53.0448 153.618 56.6139 156.673 60.751C156.758 60.8611 156.839 60.9709 156.917 61.0847C159.199 64.2245 161.054 67.6839 162.413 71.3843C162.456 71.4977 162.499 71.6116 162.537 71.7213C164.148 76.2273 165.028 81.077 165.028 86.1328Z" fill="#EFF4FF"/>
<g id="Group">
<g id="Group_2">
<g id="Group_3">
<g id="Group_4">
<g id="Group_5">
<path id="Vector_2" d="M134.562 69.7949H95.5754L87.6445 109.582H129.219C133.188 99.6156 135.391 89.4728 135.922 72.9485C135.961 71.748 135.462 70.5902 134.562 69.7949Z" fill="#5A53F2"/>
<path id="Vector_3" d="M134.565 69.7949C134.303 80.7685 132.894 89.4717 130.879 96.9718C129.648 101.542 128.193 105.668 126.632 109.581H85.959L93.8921 69.7949H134.565Z" fill="#AAAAF3"/>
</g>
<path id="Vector_4" d="M130.878 96.9724C129.647 101.542 128.192 105.668 126.631 109.582H97.414C96.7611 105.239 111.262 72.041 111.262 72.041C111.262 72.041 115.285 93.5096 130.878 96.9724Z" fill="#AAAAF3"/>
</g>
<g id="Group_6">
<path id="Vector_5" d="M68.9453 104.998C68.9453 104.998 73.7457 104.818 76.6964 100.687C79.6472 96.5561 82.3321 90.8233 82.3321 90.8233L72.1437 88.5254L68.9453 104.998Z" fill="#AA7950"/>
<g id="Group_7">
<path id="Vector_6" d="M82.7364 55.5111C82.7364 55.5111 72.3838 69.2227 89.1424 73.0354C105.901 76.8481 112.451 69.1986 113.555 64.4379C114.708 59.4655 107.481 48.8322 104.926 42.98C102.371 37.1279 96.6266 40.9324 96.6266 40.9324L82.7364 55.5111Z" fill="#262728"/>
<path id="Vector_7" d="M88.6175 71.0269C88.6175 71.0269 80.9409 68.8666 82.2104 62.7227C82.2104 62.7227 79.3861 68.7506 86.7208 71.6171C94.0556 74.4834 88.6175 71.0269 88.6175 71.0269Z" fill="white"/>
</g>
<g id="Group_8">
<path id="Vector_8" d="M125.254 87.2442C125.159 87.2124 123.718 86.7615 120.702 89.7738C117.584 92.8958 112.358 92.2218 112.358 92.2218L110.672 110.6H87.4618C87.4618 110.6 87.9089 106.385 85.0419 101.915C82.413 97.8204 81.6748 95.0317 81.5933 94.698C81.5899 94.6769 81.5862 94.6661 81.5862 94.6661C81.5862 94.6661 80.8236 94.6732 79.7592 94.4923C77.8506 94.166 74.9696 93.2362 73.7243 90.5861C71.7871 86.4564 69.4277 86.0341 69.4277 86.0341C69.4277 86.0341 77.4532 76.7066 80.4051 73.9249C81.1465 73.2261 81.9592 72.6511 82.7607 72.1758C85.1557 70.7566 87.4618 70.2598 87.4618 70.2598L107.522 70.3625C107.522 70.3625 108.433 70.4796 109.671 70.8025C111.258 71.2178 113.379 71.9696 114.802 73.2506C117.296 75.4973 125.045 86.9321 125.254 87.2442Z" fill="#6486FF"/>
<path id="Vector_9" d="M109.672 70.8025C106.863 73.2895 94.8457 83.7915 92.1104 83.8482C89.9108 83.8942 85.2772 76.4968 82.7617 72.1758C85.1567 70.7566 87.4627 70.2598 87.4627 70.2598L107.523 70.3625C107.523 70.3625 108.434 70.4796 109.672 70.8025Z" fill="#5C76FF"/>
<g id="Group_9" opacity="0.36">
<path id="Vector_10" d="M82.33 82.1426L81.5848 94.6666C81.5848 94.6666 80.8222 94.6737 79.7578 94.4928C79.7578 94.4894 79.7578 94.4894 79.7578 94.4894L82.33 82.1426Z" fill="#4357C4"/>
<path id="Vector_11" d="M94.3169 100.101C92.4576 103.198 97.5205 106.54 96.3497 110.603H87.4622C87.4622 110.603 87.9094 106.388 85.0424 101.918C82.4135 97.8236 81.6753 95.0348 81.5938 94.7012C81.7213 95.0879 83.1724 98.8379 92.1099 96.4963C101.526 94.0305 106.078 98.2666 106.078 98.2666C106.078 98.2666 96.2151 96.9397 94.3169 100.101Z" fill="#4357C4"/>
<path id="Vector_12" d="M112.357 92.2229L106.793 81.4688C106.793 81.4688 108.141 96.2306 111.689 99.511L112.357 92.2229Z" fill="#4357C4"/>
</g>
</g>
<g id="Group_10">
<path id="Vector_13" d="M125.616 109.58C122.771 109.58 93.3693 109.58 93.3693 109.58C93.3693 109.58 89.7645 109.58 88.1184 109.58C86.4757 109.58 83.6302 107.81 83.6302 107.81C83.6302 107.81 81.4161 109.58 80.1534 109.722C78.9507 109.86 81.0083 107.55 81.2107 107.323C80.9483 107.533 77.4677 110.311 76.8008 109.612C76.4 109.19 76.9213 108.597 77.4359 108.165C76.4919 108.818 74.9167 109.793 74.2712 109.58C73.3239 109.264 77.8759 105.472 79.2028 104.521C80.5334 103.574 82.7438 103.765 84.074 103.765C85.4009 103.765 93.5613 106.419 93.5613 106.419L117.712 102.374L113.898 94.4554L112.841 92.2591C117.268 92.7629 119.355 89.6406 122.736 88.0586C122.736 88.0586 122.764 88.1294 122.817 88.2644C123.378 89.7332 126.816 98.7341 128.206 102.289C129.725 106.167 128.462 109.58 125.616 109.58Z" fill="#C69C7A"/>
<path id="Vector_14" d="M122.818 88.2644C122.818 88.2644 121.42 89.2613 119.232 91.9188C117.039 94.5762 113.899 94.4554 113.899 94.4554L112.842 92.2591C117.27 92.7629 119.356 89.6406 122.737 88.0586C122.737 88.0586 122.765 88.1294 122.818 88.2644Z" fill="#AA7950"/>
<path id="Vector_15" d="M117.713 102.374C117.713 102.374 122.977 101.318 125.255 104.648C125.255 104.648 122.371 99.8584 117.174 101.255L117.713 102.374Z" fill="#AA7950"/>
</g>
<g id="Group_11">
<g id="Group_12">
<path id="Vector_16" d="M107.523 70.3626C90.5141 82.1241 87.4629 70.2585 87.4629 70.2585L92.1958 68.8474C92.508 67.7192 92.5469 66.6656 92.4442 65.7465C92.3804 65.147 92.2562 64.6039 92.1109 64.1323C91.735 62.8977 91.2096 62.1455 91.2096 62.1455L94.3353 59.8995L98.7987 56.6959L100.189 55.6953C100.21 55.9189 100.235 56.1458 100.26 56.366C100.757 60.9995 101.527 65.2108 102.719 68.7836L107.523 70.3626Z" fill="#C69C7A"/>
<path id="Vector_17" d="M102.717 68.7829C97.0406 71.0181 92.4464 65.7495 92.4464 65.7495L92.4427 65.7458C92.3789 65.1463 92.2547 64.6031 92.1094 64.1316L94.3338 59.8988L98.7972 56.6952L100.259 56.3652C100.755 60.9988 101.525 65.2104 102.717 68.7829Z" fill="#AA7950"/>
</g>
<g id="Group_13">
<path id="Vector_18" d="M82.9339 55.0838C82.9339 55.0838 80.0966 51.8472 81.1606 47.3697C82.2247 42.8919 86.9865 45.4633 86.9865 45.4633L82.9339 55.0838Z" fill="#262728"/>
<g id="Group_14">
<g id="Group_15">
<path id="Vector_19" d="M97.7156 59.6877C102.748 56.8476 104.525 50.4655 101.685 45.4329C98.8448 40.4003 92.4628 38.6229 87.4304 41.463C82.3979 44.3031 80.6208 50.6852 83.461 55.7178C86.3012 60.7504 92.6832 62.5277 97.7156 59.6877Z" fill="#C69C7A"/>
<path id="Vector_20" d="M100.43 57.4843C98.0721 62.6187 94.7847 64.7234 92.4713 65.5854C90.8778 66.1786 89.072 65.7719 87.8741 64.5666C86.0904 62.7681 84.8514 60.8462 83.9972 59.018C83.807 58.615 83.6391 58.2195 83.486 57.8276C81.8629 53.6782 82.109 50.2715 82.109 50.2715L100.43 57.4843Z" fill="#C69C7A"/>
</g>
<g id="Group_16">
<path id="Vector_21" d="M100.549 53.5775C100.549 53.5775 103.754 51.3664 104.309 53.7236C104.864 56.0808 101.819 59.862 99.5714 58.851C97.3243 57.84 100.549 53.5775 100.549 53.5775Z" fill="#C69C7A"/>
<path id="Vector_22" d="M100.096 57.1262C100.096 57.1262 101.46 53.8496 102.739 53.4648C104.019 53.0803 103.72 54.9277 103.72 54.9277C103.72 54.9277 103.554 53.847 102.872 54.0464C102.19 54.2459 101.775 55.2688 101.775 55.2688C101.775 55.2688 102.623 54.9129 102.722 55.5105C102.822 56.1081 101.426 56.434 101.426 56.434C101.426 56.434 101.972 55.9254 101.574 55.7426C101.574 55.7426 100.794 56.1489 100.096 57.1262Z" fill="#AA7950"/>
</g>
</g>
<g id="Group_17">
<path id="Vector_23" d="M98.9861 56.431C98.9861 56.431 96.5062 55.0904 97.4371 51.6425C97.4371 51.6425 85.7995 54.9325 82.2834 48.6692C82.2834 48.6692 82.1262 39.4796 91.2642 37.6177C100.402 35.7555 105.646 43.491 104.31 53.7217C104.31 53.7217 102.198 50.6742 98.9861 56.431Z" fill="#262728"/>
<path id="Vector_24" d="M83.9531 45.2824C83.9531 45.2824 87.4552 36.7701 96.3663 38.8982C96.3663 38.8982 88.3427 38.0114 83.9531 45.2824Z" fill="white"/>
</g>
</g>
<g id="Group_18">
<g id="Group_19">
<g id="Group_20">
<path id="Vector_25" d="M88.2188 53.1285C88.2188 53.1285 89.1237 51.7879 91.2029 51.9147C93.282 52.0411 93.8826 53.7484 93.8826 53.7484C93.8826 53.7484 92.5998 52.2387 90.8859 52.7722C89.1723 53.3057 88.2188 53.1285 88.2188 53.1285Z" fill="#262728"/>
<g id="Group_21">
<g id="Group_22">
<path id="Vector_26" d="M88.7734 54.5955C89.0381 54.3557 89.3714 54.1966 89.7192 54.1002C90.0677 54.0023 90.4381 53.9693 90.8014 54.0079C91.1621 54.055 91.5232 54.1403 91.8421 54.3138C92.1676 54.4698 92.4527 54.6956 92.694 54.9537C92.3622 54.8213 92.0553 54.6778 91.7327 54.5818C91.4161 54.4728 91.0895 54.4139 90.7643 54.3768C90.4381 54.3349 90.107 54.349 89.7756 54.3831C89.443 54.4213 89.1116 54.491 88.7734 54.5955Z" fill="#262728"/>
</g>
<path id="Vector_27" d="M90.8684 54.8549C90.9458 55.2549 90.7805 55.6234 90.4991 55.6779C90.2177 55.7324 89.9267 55.4525 89.8492 55.0525C89.7717 54.6525 89.937 54.2839 90.2184 54.2294C90.4998 54.1749 90.7909 54.4549 90.8684 54.8549Z" fill="#262728"/>
</g>
</g>
<g id="Group_23">
<path id="Vector_28" d="M85.9543 53.2633C85.9543 53.2633 85.3744 51.9227 84.0427 52.0495C82.711 52.1759 82.3262 53.8832 82.3262 53.8832C82.3262 53.8832 83.1477 52.3735 84.2455 52.907C85.3436 53.4405 85.9543 53.2633 85.9543 53.2633Z" fill="#262728"/>
<g id="Group_24">
<g id="Group_25">
<path id="Vector_29" d="M83.6016 55.1522C83.7673 54.6399 84.2748 54.2439 84.8413 54.1686C85.1235 54.1405 85.4097 54.1679 85.6655 54.268C85.796 54.3092 85.9117 54.3844 86.0299 54.4456C86.1397 54.5246 86.2457 54.6061 86.341 54.6981C86.2057 54.678 86.0826 54.6425 85.9595 54.6135C85.8334 54.5954 85.7141 54.5613 85.5932 54.5483C85.3526 54.5134 85.1183 54.509 84.8903 54.5361C84.6612 54.5613 84.4424 54.638 84.2274 54.7396C84.0127 54.8449 83.8081 54.9839 83.6016 55.1522Z" fill="#262728"/>
</g>
<path id="Vector_30" d="M85.8742 55.0522C85.9517 55.4522 85.7863 55.8207 85.5049 55.8752C85.2235 55.9297 84.9325 55.6498 84.855 55.2498C84.7775 54.8497 84.9429 54.4812 85.2243 54.4267C85.5057 54.3722 85.7967 54.6521 85.8742 55.0522Z" fill="#262728"/>
</g>
</g>
</g>
<path id="Vector_31" d="M86.8888 60.7417C86.8817 60.1578 87.3359 59.5038 88.0948 59.7637C88.8537 60.024 88.7625 60.5504 87.9746 60.4741C87.1868 60.3981 86.8888 60.7417 86.8888 60.7417Z" fill="#AA7950"/>
<path id="Vector_32" d="M88.5293 62.5533L92.5782 61.668C92.5782 61.668 91.4152 63.2277 90.3307 63.6915C89.2459 64.1553 88.5293 62.5533 88.5293 62.5533Z" fill="white"/>
<g id="Group_26">
<path id="Vector_33" opacity="0.36" d="M93.3956 57.8864C94.0197 57.8864 94.5257 57.5918 94.5257 57.2284C94.5257 56.8649 94.0197 56.5703 93.3956 56.5703C92.7715 56.5703 92.2656 56.8649 92.2656 57.2284C92.2656 57.5918 92.7715 57.8864 93.3956 57.8864Z" fill="#8875FF"/>
<path id="Vector_34" opacity="0.36" d="M84.0407 59.1403C83.8598 58.7569 83.7 58.381 83.5547 58.0084C83.9877 57.9161 84.3637 58.0155 84.4771 58.2746C84.5905 58.5371 84.4026 58.8815 84.0407 59.1403Z" fill="#8875FF"/>
</g>
</g>
</g>
<g id="Group_27">
<g id="Group_28">
<path id="Vector_35" d="M91.3123 79.2789C91.3123 81.2553 82.9902 81.2553 82.9902 79.2789V69.8535H91.3123V79.2789Z" fill="#5A53F2"/>
<path id="Vector_36" d="M91.3123 69.8541C91.3123 70.2504 89.4493 70.5715 87.1511 70.5715C84.8529 70.5715 82.9902 70.2504 82.9902 69.8541C82.9902 69.4582 84.8532 69.1367 87.1511 69.1367C89.4493 69.1367 91.3123 69.4578 91.3123 69.8541Z" fill="#AAAAF3"/>
<path id="Vector_37" d="M87.1496 70.2798C85.1027 70.2798 83.8248 69.9999 83.3984 69.7959C83.8248 69.5924 85.1027 69.3125 87.1496 69.3125C89.1965 69.3125 90.4744 69.5924 90.9008 69.7959C90.474 69.9999 89.1965 70.2798 87.1496 70.2798Z" fill="#5A53F2"/>
</g>
<g id="Group_29">
<g id="Group_30">
<path id="Vector_38" d="M65.4242 103.598C60.576 99.0598 74.5393 80.7266 76.6462 76.6811C76.8409 76.307 77.0911 75.97 77.3888 75.6715C78.21 74.8492 79.7538 73.3258 80.2154 73.0174C80.8549 72.5903 82.9893 72.0449 82.9893 72.0449V73.6577C82.9893 73.6577 88.1882 73.6187 90.0371 73.2495C92.0102 72.8554 90.796 74.0925 86.3645 75.2044L87.0678 75.3679C87.919 75.5659 88.811 75.4709 89.6033 75.1024C90.4163 74.7243 91.381 74.3046 91.5979 74.3335C92.2385 74.4188 90.4023 76.2124 89.0361 76.8527C89.0361 76.8527 91.2991 75.273 91.47 76.0842C91.6409 76.8953 89.1217 78.0484 88.0113 78.7313C86.9013 79.4145 81.1797 79.4145 81.1797 79.4145C81.1797 79.4145 79.5143 87.0574 77.2086 94.7859C74.9034 102.514 69.74 107.637 65.4242 103.598Z" fill="#C69C7A"/>
<path id="Vector_39" d="M88.3714 78.0762C88.3714 78.0762 91.2206 78.4135 91.2113 78.8558C91.2013 79.35 86.0977 79.1739 86.0977 79.1739L88.3714 78.0762Z" fill="#C69C7A"/>
<path id="Vector_40" d="M81.1802 79.4141L78.4141 79.6139C78.4141 79.6139 79.5445 80.553 80.8762 80.7632L81.1802 79.4141Z" fill="#AA7950"/>
</g>
</g>
</g>
</g>
</g>
<g id="Group_31">
<g id="Group_32">
<g id="Group_33">
<path id="Vector_41" d="M139.119 103.645V104.355H121.749C120.684 104.355 119.822 103.492 119.822 102.428C119.822 101.896 120.039 101.413 120.387 101.062C120.734 100.715 121.217 100.498 121.749 100.498H139.12V101.208L139.119 103.645Z" fill="#6A9E95"/>
<path id="Vector_42" d="M137.067 102.428C137.067 103.099 137.614 103.645 138.284 103.645H155.655V104.355H138.284C137.219 104.355 136.357 103.492 136.357 102.428C136.357 101.896 136.574 101.413 136.922 101.062C137.269 100.715 137.752 100.498 138.284 100.498H155.655V101.208H138.284C137.614 101.208 137.067 101.754 137.067 102.428Z" fill="#81C2B7"/>
<path id="Vector_43" d="M154.515 101.207V103.644H138.283C137.613 103.644 137.066 103.098 137.066 102.428C137.066 101.754 137.613 101.207 138.283 101.207H154.515Z" fill="#E1E1FD"/>
<g id="Group_34">
<path id="Vector_44" d="M135.326 104.356H133.493C132.333 104.356 132.333 100.5 133.493 100.5H135.326C133.884 100.5 133.884 104.356 135.326 104.356Z" fill="#81C2B7"/>
<path id="Vector_45" d="M124.818 104.356H122.985C121.825 104.356 121.825 100.5 122.985 100.5H124.818C123.376 100.5 123.376 104.356 124.818 104.356Z" fill="#81C2B7"/>
<path id="Vector_46" d="M133.026 104.356H131.973C130.814 104.356 130.814 100.5 131.973 100.5H133.026C131.584 100.5 131.584 104.356 133.026 104.356Z" fill="#81C2B7"/>
</g>
</g>
<g id="Group_35">
<path id="Vector_47" d="M138.779 108.62V109.583H118.82C117.377 109.583 116.207 108.413 116.207 106.97C116.207 106.248 116.501 105.594 116.972 105.117C117.444 104.645 118.098 104.352 118.82 104.352H138.779V105.314L138.779 108.62Z" fill="#5A53F2"/>
<path id="Vector_48" d="M135.994 106.97C135.994 107.879 136.735 108.62 137.645 108.62H154.441V109.583H137.645C136.201 109.583 135.031 108.413 135.031 106.97C135.031 106.248 135.325 105.594 135.796 105.117C136.268 104.645 136.922 104.352 137.644 104.352H154.441V105.314H137.644C136.735 105.314 135.994 106.056 135.994 106.97Z" fill="#7070DD"/>
<path id="Vector_49" d="M152.896 105.314V108.621H137.645C136.735 108.621 135.994 107.88 135.994 106.97C135.994 106.056 136.735 105.315 137.645 105.315L152.896 105.314Z" fill="#E1E1FD"/>
<g id="Group_36">
<path id="Vector_50" d="M122.983 109.583H120.496C118.923 109.583 118.923 104.352 120.496 104.352H122.983C121.026 104.352 121.026 109.583 122.983 109.583Z" fill="#AAAAF3"/>
</g>
</g>
</g>
<g id="Group_37">
<g id="Group_38">
<path id="Vector_51" d="M17.6839 95.2299C17.6839 95.2299 17.5575 91.2255 18.4847 90.0451C19.4119 88.8646 19.4119 93.8812 19.4119 93.8812C19.4119 93.8812 20.0444 91.5996 20.7188 91.6022C21.3932 91.6048 21.494 95.4828 21.494 95.4828C21.494 95.4828 21.8436 93.7544 22.8198 94.1759C22.8198 94.1759 23.7537 90.5085 24.7654 90.1712C25.7772 89.8338 25.3634 97.0421 25.2541 96.9157C25.1447 96.7893 26.2484 91.4728 26.898 91.6018C27.5475 91.7309 27.3365 96.6629 27.3365 96.6629C27.3365 96.6629 26.2829 100.199 26.1561 99.9903C26.0297 99.7823 15.997 99.9903 15.997 99.9903C15.997 99.9903 15.1117 92.1049 15.997 91.6018C16.8827 91.0991 17.6839 95.2299 17.6839 95.2299Z" fill="#6A9E95"/>
<path id="Vector_52" d="M15.7039 99.9899C15.7039 99.9899 13.554 93.3744 14.2287 91.8147C14.9031 90.255 18.0648 98.0954 18.0648 98.0954C18.0648 98.0954 18.3388 95.1447 19.1504 94.7654C19.9619 94.3861 20.0883 97.5897 20.0883 97.5897C20.0883 97.5897 20.9314 96.1987 21.7745 96.6625C22.6175 97.1263 22.6175 98.907 22.6175 98.907C22.6175 98.907 24.2696 94.3865 25.2561 94.0491C26.2427 93.7118 25.8211 98.907 25.8211 98.907C25.8211 98.907 27.2121 91.3201 28.519 91.6096C29.8259 91.8992 27.2967 99.9899 27.2967 99.9899H15.7039Z" fill="#81C2B7"/>
<g id="Group_39">
<path id="Vector_53" d="M15.4786 93.9205C15.628 94.3798 15.6102 94.7977 15.4385 94.8533C15.2669 94.9093 15.0066 94.5819 14.8572 94.1225C14.7078 93.6632 14.7256 93.2454 14.8973 93.1898C15.0689 93.1341 15.3292 93.4611 15.4786 93.9205Z" fill="#A2E6D2"/>
<path id="Vector_54" d="M25.5612 95.2942C25.4586 95.5567 25.2394 95.7161 25.0711 95.6505C24.9032 95.5849 24.8502 95.3187 24.9525 95.0566C25.0552 94.7941 25.2743 94.6347 25.4426 94.7003C25.6109 94.7659 25.6639 95.0321 25.5612 95.2942Z" fill="#A2E6D2"/>
<path id="Vector_55" d="M25.3794 96.3158C25.3082 96.4982 25.1555 96.6091 25.0387 96.5635C24.9219 96.5179 24.8848 96.3329 24.9564 96.1505C25.0276 95.9681 25.1803 95.8572 25.2971 95.9028C25.4139 95.9488 25.451 96.1334 25.3794 96.3158Z" fill="#A2E6D2"/>
<path id="Vector_56" d="M28.561 93.3451C28.4899 93.5275 28.3371 93.6384 28.2203 93.5928C28.1035 93.5472 28.0665 93.3622 28.138 93.1798C28.2092 92.9974 28.362 92.8865 28.4787 92.9321C28.5955 92.9777 28.6322 93.1627 28.561 93.3451Z" fill="#A2E6D2"/>
<path id="Vector_57" d="M24.9598 94.6798C24.9316 94.7513 24.8719 94.7951 24.8259 94.7769C24.78 94.7591 24.7655 94.6865 24.7937 94.6149C24.8219 94.5434 24.8816 94.4996 24.9275 94.5178C24.9731 94.5356 24.988 94.6082 24.9598 94.6798Z" fill="#A2E6D2"/>
<path id="Vector_58" d="M16.1246 95.1123C16.2013 95.3489 16.1772 95.5687 16.0708 95.6032C15.964 95.638 15.8154 95.4742 15.7382 95.2376C15.6615 95.0011 15.6856 94.7813 15.792 94.7468C15.8988 94.7123 16.0474 94.8758 16.1246 95.1123Z" fill="#A2E6D2"/>
<path id="Vector_59" d="M22.021 97.2937C22.0978 97.5302 22.0737 97.7501 21.9673 97.7846C21.8605 97.8194 21.7118 97.6555 21.6347 97.4194C21.558 97.1828 21.5821 96.963 21.6885 96.9285C21.7949 96.8937 21.9439 97.0572 22.021 97.2937Z" fill="#A2E6D2"/>
</g>
</g>
<path id="Vector_60" d="M22.8203 109.584H26.1084L27.6893 99.7207H22.8203V109.584Z" fill="#AAAAF3"/>
<path id="Vector_61" d="M22.7427 109.584H16.1668L14.5859 99.7207H23.7121L22.7427 109.584Z" fill="#E1E1FD"/>
</g>
<g id="Group_40">
<path id="Vector_62" d="M79.0813 109.586H64.4121V107.373L77.5638 108.575L79.0813 109.586Z" fill="#32324F"/>
<path id="Vector_63" d="M68.9477 109.586H33.6289L26.8984 87.4862L27.5573 86.5078H61.5025L68.9477 109.586Z" fill="#8888F4"/>
<path id="Vector_64" d="M67.5185 109.586H33.6289L26.8984 87.4863H60.7951L67.5185 109.586Z" fill="#E1E1FD"/>
<path id="Vector_65" d="M49.4897 99.1287C49.8738 100.434 49.3077 101.492 48.2252 101.492C47.1426 101.492 45.9536 100.434 45.5695 99.1287C45.1854 97.8234 45.7516 96.7656 46.8341 96.7656C47.9167 96.7656 49.1057 97.8234 49.4897 99.1287Z" fill="#F9F9FF"/>
<path id="Vector_66" opacity="0.4" d="M33.6294 109.586C33.6294 109.586 33.3654 102.127 45.1265 105.004C56.8872 107.88 62.1751 98.2023 60.7959 87.4863L67.5194 109.586H33.6294Z" fill="#AAAAF3"/>
</g>
</g>
<g id="Group_41">
<path id="Vector_67" d="M163.743 109.584H0V113.001H163.743V109.584Z" fill="#5F5F97"/>
<path id="Vector_68" d="M163.744 109.584H131.539V113.001H163.744V109.584Z" fill="#3A3A5A"/>
</g>
</g>
</g>
<g id="Group_42">
<g id="Group_43">
<path id="Vector_69" d="M44.1497 33.5566C43.8698 33.5566 43.6047 33.4154 43.449 33.1699C43.2528 32.8607 43.2795 32.4655 43.5161 32.1864L55.3939 18.1449C55.9445 17.4942 56.6704 17.0334 57.4931 16.8124L75.255 12.0409C75.6072 11.9453 75.9776 12.0895 76.1737 12.3991C76.3694 12.7083 76.3424 13.1031 76.1062 13.3823L64.2287 27.4234C63.6785 28.0741 62.9522 28.5349 62.1292 28.7559L44.368 33.5273C44.295 33.5474 44.222 33.5566 44.1497 33.5566ZM74.8145 13.2611L57.7693 17.8397C57.1568 18.0043 56.6163 18.3477 56.2062 18.8322L44.8074 32.3072L61.8526 27.7286C62.4655 27.5639 63.006 27.221 63.4153 26.7364L74.8145 13.2611Z" fill="#A6B9FF"/>
<path id="Vector_70" d="M54.3153 38.0827L50.1855 31.5762L51.0842 31.006L54.7913 36.8463L66.8197 33.5122L74.9597 24.0449L71.1974 18.1174L72.0961 17.5469L76.2814 24.1405L67.4158 34.4513L54.3153 38.0827Z" fill="#A6B9FF"/>
<path id="Vector_71" d="M60.0407 42.4707L52.4883 30.5717L59.406 22.4395L60.2168 23.129L53.8074 30.664L60.9394 41.9005L60.0407 42.4707Z" fill="#A6B9FF"/>
<path id="Vector_72" d="M63.5381 44.5298L61.4738 45.84L60.0071 43.5292C59.719 43.0758 59.8536 42.4748 60.307 42.1867L60.7289 41.9191C61.1824 41.6314 61.7833 41.7656 62.0714 42.219L63.5381 44.5298Z" fill="#A6B9FF"/>
</g>
<g id="Group_44">
<path id="Vector_73" d="M128.178 47.0319L110.467 41.2509C109.415 40.9072 108.838 39.7713 109.181 38.7187L112.922 27.2583C113.266 26.2058 114.402 25.6289 115.454 25.9722L133.165 31.7532C134.217 32.0965 134.794 33.2325 134.45 34.2854L130.709 45.7458C130.366 46.7987 129.231 47.3756 128.178 47.0319ZM115.124 26.984C114.63 26.8223 114.095 27.0937 113.934 27.5883L110.193 39.0487C110.032 39.5432 110.303 40.0771 110.798 40.2388L128.508 46.0198C129.003 46.181 129.536 45.91 129.698 45.4154L133.439 33.955C133.601 33.4605 133.329 32.9266 132.835 32.765L115.124 26.984Z" fill="#A6B9FF"/>
<path id="Vector_74" d="M119.046 38.9554L120.338 34.997C120.499 34.5028 121.138 34.3756 121.477 34.7697L124.087 37.8116C124.412 38.1909 124.22 38.78 123.734 38.8942L119.831 39.8107C119.325 39.9297 118.884 39.4496 119.046 38.9554Z" fill="#A6B9FF"/>
<path id="Vector_75" d="M133.735 36.4742L112.207 29.4472L112.921 27.2583C113.265 26.2058 114.401 25.6289 115.454 25.9722L133.164 31.7532C134.217 32.0965 134.793 33.2325 134.45 34.2854L133.735 36.4742ZM113.549 28.7654L133.054 35.1322L133.438 33.955C133.6 33.4605 133.328 32.9266 132.834 32.765L115.123 26.984C114.629 26.8223 114.094 27.0937 113.933 27.5883L113.549 28.7654Z" fill="#A6B9FF"/>
<g id="Group_45">
<path id="Vector_76" d="M117.469 30.6033L115.996 30.1225L115.828 26.6523L117.301 27.1332L117.469 30.6033Z" fill="#A6B9FF"/>
<path id="Vector_77" d="M120.949 31.7397L119.477 31.2592L119.309 27.7891L120.781 28.2695L120.949 31.7397Z" fill="#A6B9FF"/>
<path id="Vector_78" d="M124.428 32.8745L122.955 32.394L122.787 28.9238L124.26 29.4043L124.428 32.8745Z" fill="#A6B9FF"/>
<path id="Vector_79" d="M127.905 34.0092L126.432 33.5287L126.264 30.0586L127.737 30.5391L127.905 34.0092Z" fill="#A6B9FF"/>
<path id="Vector_80" d="M131.385 35.1459L129.912 34.6655L129.744 31.1953L131.217 31.6758L131.385 35.1459Z" fill="#A6B9FF"/>
</g>
</g>
<g id="Group_46">
<path id="Vector_81" d="M50.112 75.4038C49.9273 75.4038 49.7423 75.3545 49.577 75.2551L46.208 73.2305H33.4415C32.1213 73.2305 31.0469 72.1565 31.0469 70.8363V58.9747C31.0469 57.6541 32.1209 56.5801 33.4411 56.5801H51.3977C52.7179 56.5801 53.7923 57.6541 53.7923 58.9747V70.8363C53.7923 72.1565 52.7179 73.2305 51.3977 73.2305H50.925L51.1256 74.1425C51.2149 74.5478 51.0548 74.9663 50.7174 75.2088C50.5372 75.3385 50.3248 75.4038 50.112 75.4038ZM33.4411 57.6448C32.7078 57.6448 32.1113 58.2414 32.1113 58.9751V70.8366C32.1113 71.5699 32.7078 72.1665 33.4415 72.1665H46.5031L50.073 74.312L49.6014 72.1665H51.3977C52.1314 72.1665 52.7279 71.5699 52.7279 70.8366V58.9751C52.7279 58.2417 52.1314 57.6448 51.3977 57.6448H33.4411Z" fill="#A6B9FF"/>
<path id="Vector_82" d="M40.4661 59.8477H34.2695V60.9121H40.4661V59.8477Z" fill="#A6B9FF"/>
<path id="Vector_83" d="M49.9505 62.5566H34.2695V63.621H49.9505V62.5566Z" fill="#A6B9FF"/>
<path id="Vector_84" d="M49.9505 65.4609H34.2695V66.5253H49.9505V65.4609Z" fill="#A6B9FF"/>
<path id="Vector_85" d="M46.2412 68.0254H34.2695V69.0898H46.2412V68.0254Z" fill="#A6B9FF"/>
</g>
</g>
</g>
</svg>
