<svg width="160" height="113" viewBox="0 0 160 113" fill="none" xmlns="http://www.w3.org/2000/svg">
<g id="Group 1926">
<path id="Vector" d="M160 85.3755C160 93.8015 157.539 101.654 153.29 108.252C152.54 109.423 151.73 110.552 150.867 111.638H4.70021C4.13697 110.538 3.61934 109.405 3.15101 108.252C1.1195 103.258 0 97.7964 0 92.0747C0 88.7935 0.369731 85.5967 1.06689 82.5235C1.09154 82.4073 1.11987 82.2912 1.14783 82.1755C2.59144 76.0422 5.35138 70.412 9.11163 65.6046C9.18557 61.2613 9.67855 57.0168 10.5479 52.9128C10.5725 52.7897 10.5972 52.6666 10.6218 52.5471C11.9385 46.4877 14.0789 40.7381 16.9202 35.4136C16.9835 35.2975 17.0471 35.1814 17.1067 35.0656C21.2083 27.4837 26.7356 20.7878 33.3301 15.3369C33.432 15.2491 33.531 15.1682 33.6329 15.0837C35.2137 13.7894 36.8578 12.5694 38.5549 11.4228C38.6712 11.342 38.7874 11.2645 38.907 11.1836C40.7376 9.96687 42.6282 8.83466 44.5821 7.79689C44.7653 7.6984 44.9482 7.59992 45.1351 7.50143H45.1384C48.5042 5.75368 52.0353 4.28007 55.7109 3.11589C55.7146 3.11589 55.7146 3.11589 55.7179 3.11589C55.9751 3.03137 56.2355 2.9542 56.496 2.87335C62.6538 1.0058 69.188 0 75.9546 0C80.4363 0 84.8091 0.43951 89.0443 1.27994C89.0443 1.27994 89.0443 1.27994 89.048 1.27994C89.3331 1.33617 89.6182 1.39607 89.9 1.45597C107.021 5.08523 121.72 15.259 131.243 29.2381C131.324 29.3542 131.405 29.4703 131.483 29.5897C135.588 35.6877 138.707 42.5031 140.622 49.8002C144.917 52.5784 148.678 56.1161 151.709 60.2169C151.793 60.326 151.874 60.4348 151.952 60.5476C154.215 63.6598 156.057 67.0888 157.405 70.7567C157.448 70.8691 157.49 70.9819 157.529 71.0907C159.127 75.5571 160 80.3641 160 85.3755Z" fill="#EFF4FF"/>
<g id="Character">
<g id="Group">
<g id="Group_2">
<path id="Vector_2" d="M66.6835 56.1997L73.329 54.918L86.0774 57.8411L92.5392 59.1893L92.6309 68.0185L78.2178 70.6734L68.4913 67.7914L64.8145 62.3812L66.6835 56.1997Z" fill="#FFBE9D"/>
<path id="Vector_3" d="M61.9608 57.0792L68.233 55.6016C68.233 55.6016 72.6671 69.3096 83.6104 68.7195C92.5297 68.2386 92.5397 59.1892 92.5397 59.1892L99.0602 60.3416C99.0602 60.3416 101.794 76.8972 98.797 88.5101C96.3024 98.1754 94.0906 111.429 94.0906 111.429H50.7695L61.9608 57.0792Z" fill="#407BFF"/>
<path id="Vector_4" d="M125.509 99.5015C125.509 99.5015 107.642 68.2022 104.426 64.1835C100.907 59.7853 98.0972 60.2933 98.0972 60.2933L96.2051 81.3812L111.396 102.934L115.017 104.24L125.509 99.5015Z" fill="#407BFF"/>
<path id="Vector_5" d="M62.7104 56.9023C62.7104 56.9023 52.5557 57.716 48.9122 74.3527C47.2643 81.878 45.182 90.6969 44.5817 96.6242C44.1463 100.923 46.8018 105.395 51.0875 105.946L56.4706 106.943C59.4239 107.49 62.2893 105.633 62.9951 102.713L64.8142 95.1865L59.9762 93.5739L61.0968 71.1464L62.7104 56.9023Z" fill="#407BFF"/>
<g id="Group_3">
<path id="Vector_6" d="M99.8934 71.9785C99.899 71.9776 99.9149 72.0577 99.9398 72.2105C99.9654 72.3793 99.9994 72.6023 100.042 72.8811C100.063 73.0286 100.086 73.1904 100.112 73.3663C100.13 73.5456 100.15 73.7393 100.171 73.9464C100.213 74.3627 100.264 74.8368 100.285 75.3635C100.362 76.4148 100.361 77.6719 100.31 79.0641C100.251 80.4569 100.094 81.9828 99.8606 83.573C99.6274 85.1642 99.3339 86.6683 99.0361 88.0283C98.7438 89.3896 98.4441 90.6071 98.1912 91.6285C97.9327 92.6486 97.7187 93.4728 97.5631 94.0404C97.4876 94.3121 97.4275 94.5291 97.3816 94.6935C97.3383 94.8422 97.313 94.9199 97.3077 94.9183C97.3024 94.9171 97.3171 94.8366 97.3498 94.6854C97.3882 94.5191 97.4387 94.2996 97.5017 94.0252C97.6423 93.4357 97.8385 92.6121 98.0796 91.6013C98.3178 90.5769 98.6057 89.3578 98.8895 87.9971C99.1789 86.6374 99.4671 85.1361 99.6997 83.5493C99.9317 81.9635 100.094 80.4441 100.16 79.0569C100.219 77.6704 100.232 76.4182 100.17 75.3694C100.155 74.8443 100.113 74.3708 100.08 73.9548C100.063 73.7477 100.048 73.5541 100.034 73.3747C100.014 73.1985 99.9954 73.0364 99.9782 72.8889C99.9483 72.6088 99.9246 72.3849 99.9065 72.2152C99.8931 72.0609 99.8881 71.9795 99.8934 71.9785Z" fill="#263238"/>
</g>
<g id="Group_4">
<path id="Vector_7" d="M65.286 96.0045C65.2822 96.0057 65.2644 95.9592 65.2339 95.8688C65.2008 95.7662 65.1584 95.6337 65.1051 95.4677C65.0493 95.2872 64.9825 95.0711 64.9049 94.8206C64.8169 94.569 64.7792 94.2512 64.5447 94.0123C64.3158 93.7715 63.9836 93.5853 63.6059 93.4394C63.228 93.29 62.8001 93.1784 62.3401 93.0835C61.4179 92.9008 60.3582 92.7898 59.2105 92.7598L59.127 92.7576L59.1394 92.6756C59.4136 90.8877 59.7254 88.8512 60.0557 86.6978C60.6473 82.932 61.1831 79.524 61.5732 77.0397C61.7734 75.8162 61.9362 74.8211 62.0516 74.1156C62.1096 73.7819 62.1558 73.5172 62.1898 73.3219C62.2057 73.2396 62.2188 73.1723 62.2297 73.1161C62.2397 73.07 62.2459 73.0466 62.2487 73.0469C62.2515 73.0472 62.2506 73.0715 62.2459 73.1186C62.2394 73.1751 62.2316 73.2437 62.2219 73.3269C62.1954 73.5234 62.1592 73.7894 62.114 74.1253C62.0108 74.8323 61.8654 75.8303 61.6867 77.0571C61.3084 79.5433 60.7895 82.9539 60.216 86.7224C59.8801 88.8752 59.5623 90.9108 59.2835 92.6978L59.2124 92.6136C60.3716 92.6507 61.4335 92.7701 62.3644 92.9647C62.8285 93.0658 63.2607 93.1837 63.6449 93.3418C64.0282 93.4965 64.3697 93.6926 64.6089 93.9537C64.7287 94.084 64.8069 94.2384 64.854 94.3887C64.8949 94.535 64.9332 94.6725 64.9694 94.8016C65.039 95.0545 65.0992 95.2725 65.1494 95.4547C65.1936 95.6231 65.2292 95.7578 65.2566 95.8619C65.2797 95.9549 65.2897 96.0035 65.286 96.0045Z" fill="#263238"/>
</g>
<g id="Group_5">
<path id="Vector_8" d="M51.3008 98.551C51.2917 98.5488 51.3139 98.3985 51.3812 98.1324C51.448 97.8664 51.5711 97.4866 51.7735 97.0378C52.1709 96.1437 52.9552 94.9736 54.1805 94.0819C55.4061 93.19 56.7609 92.8033 57.7339 92.7001C58.2232 92.6452 58.6221 92.6449 58.8959 92.6633C59.1697 92.6807 59.3197 92.706 59.3188 92.7153C59.3179 92.749 58.7107 92.6773 57.7486 92.8139C56.7933 92.9446 55.4741 93.3413 54.2759 94.2132C53.0784 95.0852 52.2953 96.2182 51.8774 97.0871C51.4514 97.9603 51.3329 98.5603 51.3008 98.551Z" fill="#263238"/>
</g>
<g id="Group_6">
<path id="Vector_9" d="M53.6484 90.2632C53.6484 90.252 53.7358 90.2445 53.8939 90.2402C54.052 90.2339 54.2812 90.243 54.5631 90.2698C55.1267 90.3225 55.9026 90.4803 56.7056 90.8093C57.5081 91.1408 58.1708 91.5746 58.608 91.9336C58.8273 92.1126 58.9966 92.2676 59.1045 92.3833C59.214 92.4974 59.2704 92.5642 59.2626 92.5723C59.2436 92.5919 58.9882 92.3549 58.5378 92.0247C58.0884 91.6938 57.4304 91.2846 56.6436 90.9596C55.8561 90.6372 55.1008 90.465 54.5485 90.3839C53.9965 90.3016 53.6481 90.2904 53.6484 90.2632Z" fill="#263238"/>
</g>
<g id="Group_7">
<path id="Vector_10" d="M64.1607 68.7195C64.1494 68.7192 64.1413 68.5605 64.136 68.2748C64.1338 67.9892 64.1176 67.5756 64.0827 67.067C64.0147 66.0497 63.8257 64.6475 63.4069 63.1484C62.9843 61.6499 62.4158 60.3541 61.9446 59.45C61.7097 58.9972 61.5086 58.6357 61.3617 58.3909C61.2173 58.1442 61.1418 58.0045 61.1512 57.9983C61.1605 57.992 61.2541 58.1202 61.4153 58.3572C61.579 58.5927 61.7964 58.9473 62.0459 59.3957C62.5464 60.2914 63.1371 61.5925 63.5634 63.1044C63.986 64.617 64.1585 66.035 64.1975 67.0604C64.218 67.5734 64.2168 67.9892 64.1996 68.2754C64.185 68.562 64.1719 68.7198 64.1607 68.7195Z" fill="#263238"/>
</g>
<g id="Group_8" opacity="0.3">
<path id="Vector_11" d="M99.428 85.9484C102.019 81.5611 102.074 75.8596 99.8141 71.293C100.488 76.1559 100.433 81.1404 99.3516 85.9291" fill="black"/>
</g>
<g id="Group_9" opacity="0.3">
<path id="Vector_12" d="M76.384 90.9083C74.4184 91.4865 71.6958 91.6274 69.7812 90.8977C71.2798 93.0249 74.1707 93.7965 76.6791 93.1035C79.1874 92.4105 81.5005 89.8997 81.6945 87.3047C80.4794 88.9548 78.3497 90.3301 76.384 90.9083Z" fill="black"/>
</g>
<g id="Group_10">
<path id="Vector_13" d="M83.6083 83.8243C83.6136 83.8262 83.5977 83.8864 83.5624 83.9996C83.5241 84.1115 83.4798 84.2818 83.394 84.4904C83.2378 84.9133 82.9674 85.5112 82.5479 86.2019C82.1304 86.893 81.5434 87.6661 80.7728 88.4096C80.0047 89.1534 79.042 89.8545 77.9295 90.3953C76.8115 90.9254 75.6623 91.2385 74.6013 91.373C73.5391 91.5096 72.5689 91.484 71.7683 91.378C70.9669 91.2732 70.3313 91.1104 69.9037 90.9679C69.6873 90.9042 69.5267 90.8325 69.4153 90.7923C69.3049 90.7489 69.2482 90.7237 69.25 90.7184C69.255 90.7046 69.4905 90.7854 69.9218 90.907C70.3525 91.0299 70.9868 91.1743 71.7818 91.2635C73.3582 91.4509 75.6489 91.3081 77.8591 90.2487C80.0674 89.1865 81.6105 87.4884 82.4503 86.1408C82.8779 85.4647 83.1617 84.8793 83.3351 84.4664C83.51 84.0538 83.5946 83.8196 83.6083 83.8243Z" fill="#263238"/>
</g>
<g id="Group_11">
<path id="Vector_14" d="M61.7066 105.658C61.7104 105.662 61.6832 105.691 61.628 105.743C61.571 105.791 61.4939 105.874 61.3764 105.956C61.1496 106.132 60.7882 106.35 60.3026 106.524C59.818 106.701 59.2083 106.811 58.5306 106.844C57.8523 106.879 57.1079 106.835 56.3332 106.766C54.7811 106.632 53.3883 106.406 52.3856 106.227C51.8842 106.137 51.4794 106.059 51.2002 106.001C50.9211 105.944 50.7677 105.906 50.7695 105.896C50.7714 105.885 50.9283 105.901 51.2108 105.939C51.5233 105.985 51.9238 106.043 52.404 106.114C53.4107 106.264 54.8013 106.471 56.3472 106.604C57.1197 106.673 57.8564 106.72 58.5241 106.695C59.1914 106.671 59.7884 106.574 60.2658 106.415C61.2307 106.101 61.6839 105.622 61.7066 105.658Z" fill="#263238"/>
</g>
</g>
<g id="Group_12">
<g id="Group_13">
<g id="Group_14">
<path id="Vector_15" d="M96.926 23.5987L98.2062 22.3516C99.913 23.0947 100.706 25.0751 100.992 26.9148C101.277 28.7544 101.24 30.6893 102.021 32.3789C102.622 33.6785 103.71 34.8841 103.579 36.3097C103.455 37.6669 102.228 38.7653 102.221 40.1281C102.214 41.4392 103.312 42.4481 103.948 43.5945C105.238 45.9198 106.073 55.4251 105.398 57.9967C99.7324 57.5068 89.6973 56.9011 84.0254 55.6004C85.5258 45.8362 91.8133 32.0518 96.926 23.5987Z" fill="#263238"/>
</g>
<g id="Group_15">
<g id="Group_16">
<g id="Group_17">
<g id="Group_18">
<g id="Group_19">
<g id="Group_20">
<g id="Group_21">
<g id="Group_22">
<g id="Group_23">
<g id="Group_24">
<g id="Group_25">
<g id="Group_26">
<g id="Group_27">
<g id="Group_28">
<g id="Group_29">
<g id="Group_30">
<g id="Group_31">
<path id="Vector_16" d="M99.4673 32.306C99.8612 25.6661 95.0404 19.5894 88.3182 18.7895C81.1862 17.9409 74.8775 23.0492 74.2865 29.996L72.6136 58.0451C72.5812 58.5881 72.7353 59.1235 73.0424 59.5723C74.6894 61.9793 77.6733 63.8626 80.3369 64.2325C82.9176 64.5908 85.5354 63.9203 87.7281 62.7006C88.4713 62.2874 88.9263 61.4977 88.9419 60.6476L89.0567 54.3688C89.057 54.3445 89.0751 54.3258 89.0994 54.3277C89.4877 54.356 90.4791 54.3713 90.8593 54.2787C92.5206 53.8742 96.7532 52.2469 98.1731 46.0346C98.6434 43.9744 99.1218 38.1266 99.4673 32.306Z" fill="#FFBE9D"/>
</g>
</g>
<g id="Group_32">
<path id="Vector_17" d="M90.2422 41.4765C90.2409 41.4145 90.9367 41.3455 92.0607 41.2832C92.3451 41.2741 92.6161 41.2376 92.676 41.0511C92.7555 40.855 92.6566 40.5472 92.5403 40.2144C92.318 39.5236 92.0853 38.7995 91.8408 38.0404C90.874 34.947 90.1935 32.4119 90.3202 32.3754C90.4468 32.3392 91.3334 34.817 92.2999 37.9104C92.5313 38.6722 92.753 39.3992 92.9635 40.0943C93.0502 40.4174 93.2108 40.7886 93.0399 41.1949C92.9504 41.3973 92.7331 41.5336 92.5491 41.5688C92.3644 41.6106 92.2054 41.6025 92.065 41.601C90.9389 41.5823 90.2425 41.5386 90.2422 41.4765Z" fill="#263238"/>
</g>
</g>
</g>
</g>
</g>
</g>
</g>
</g>
</g>
</g>
</g>
</g>
</g>
<g id="Group_33">
<g id="Group_34">
<g id="Group_35">
<g id="Group_36">
<g id="Group_37">
<g id="Group_38">
<g id="Group_39">
<g id="Group_40">
<g id="Group_41">
<g id="Group_42">
<g id="Group_43">
<g id="Group_44">
<g id="Group_45">
<path id="Vector_18" d="M97.6415 34.6721C97.5174 34.8071 96.7837 34.1872 95.7276 34.1576C94.6731 34.1114 93.888 34.6771 93.776 34.533C93.7208 34.4691 93.849 34.2224 94.1907 33.9661C94.5272 33.7111 95.0981 33.4704 95.7563 33.4938C96.4139 33.5178 96.9633 33.7975 97.2766 34.0765C97.5966 34.3571 97.7023 34.6116 97.6415 34.6721Z" fill="#263238"/>
</g>
</g>
</g>
</g>
</g>
</g>
</g>
</g>
</g>
</g>
</g>
</g>
</g>
<g id="Group_46">
<g id="Group_47">
<g id="Group_48">
<g id="Group_49">
<g id="Group_50">
<g id="Group_51">
<g id="Group_52">
<g id="Group_53">
<g id="Group_54">
<g id="Group_55">
<g id="Group_56">
<g id="Group_57">
<g id="Group_58">
<path id="Vector_19" d="M86.9209 34.9391C86.7768 35.0729 86.012 34.3769 84.8592 34.2793C83.7087 34.1646 82.8144 34.7068 82.7006 34.549C82.6445 34.4789 82.7985 34.2285 83.1902 33.9822C83.5743 33.7362 84.2138 33.5204 84.9322 33.5862C85.6503 33.6532 86.233 33.9809 86.5589 34.2927C86.8903 34.6067 86.991 34.8799 86.9209 34.9391Z" fill="#263238"/>
</g>
</g>
</g>
</g>
</g>
</g>
</g>
</g>
</g>
</g>
</g>
</g>
</g>
<g id="Group_59">
<g id="Group_60">
<g id="Group_61">
<g id="Group_62">
<g id="Group_63">
<g id="Group_64">
<g id="Group_65">
<g id="Group_66">
<g id="Group_67">
<g id="Group_68">
<g id="Group_69">
<g id="Group_70">
<path id="Vector_20" d="M89.0473 54.3357C89.0473 54.3357 84.7514 54.3828 79.6094 50.8516C79.6094 50.8516 80.9379 56.5228 89.0127 56.3441L89.0473 54.3357Z" fill="#EB996E"/>
</g>
</g>
</g>
</g>
</g>
</g>
</g>
</g>
</g>
</g>
</g>
</g>
<g id="Group_71">
<g id="Group_72">
<g id="Group_73">
<g id="Group_74">
<g id="Group_75">
<g id="Group_76">
<g id="Group_77">
<g id="Group_78">
<g id="Group_79">
<g id="Group_80">
<g id="Group_81">
<g id="Group_82">
<path id="Vector_21" d="M89.5994 44.0767C89.2346 43.5317 88.5554 43.199 87.8586 43.224C87.3753 43.2414 86.8751 43.4351 86.5587 43.7992C86.2422 44.1634 86.1458 44.705 86.3875 45.0901C86.6594 45.5238 87.2774 45.6626 87.8152 45.5519C88.3531 45.4412 88.8292 45.131 89.2829 44.8204C89.4082 44.7347 89.5367 44.6449 89.6196 44.5208C89.7026 44.3967 89.7294 44.2292 89.644 44.1154" fill="#EB996E"/>
</g>
</g>
</g>
</g>
</g>
</g>
</g>
</g>
</g>
</g>
</g>
</g>
<g id="Group_83">
<g id="Group_84">
<g id="Group_85">
<g id="Group_86">
<g id="Group_87">
<g id="Group_88">
<g id="Group_89">
<g id="Group_90">
<g id="Group_91">
<g id="Group_92">
<g id="Group_93">
<g id="Group_94">
<g id="Group_95">
<path id="Vector_22" d="M86.9267 42.0219C87.1073 42.0241 87.0334 43.2052 88.0078 44.115C88.9796 45.0273 90.269 44.9837 90.2674 45.1496C90.2796 45.2247 89.9674 45.3591 89.4261 45.3357C88.8948 45.3167 88.1315 45.0953 87.5354 44.5391C86.9414 43.9812 86.7156 43.2769 86.706 42.7895C86.692 42.2925 86.8447 42.0094 86.9267 42.0219Z" fill="#263238"/>
</g>
</g>
</g>
</g>
</g>
</g>
</g>
</g>
</g>
</g>
</g>
</g>
</g>
<g id="Group_96">
<g id="Group_97">
<g id="Group_98">
<g id="Group_99">
<g id="Group_100">
<g id="Group_101">
<g id="Group_102">
<g id="Group_103">
<g id="Group_104">
<g id="Group_105">
<path id="Vector_23" d="M87.0929 30.5799C86.9629 30.8674 85.8683 30.6435 84.5594 30.6993C83.2492 30.729 82.1761 31.0234 82.0227 30.7452C81.9547 30.6123 82.1568 30.3482 82.6002 30.0937C83.0396 29.8398 83.7286 29.6187 84.5138 29.5922C85.2988 29.5673 86.0039 29.7431 86.4633 29.968C86.9267 30.1922 87.15 30.443 87.0929 30.5799Z" fill="#263238"/>
</g>
</g>
</g>
</g>
</g>
</g>
</g>
</g>
</g>
</g>
<g id="Group_106">
<g id="Group_107">
<g id="Group_108">
<g id="Group_109">
<g id="Group_110">
<g id="Group_111">
<g id="Group_112">
<g id="Group_113">
<g id="Group_114">
<g id="Group_115">
<path id="Vector_24" d="M97.8639 30.8006C97.6397 31.0494 96.7511 30.7966 95.685 30.7894C94.6193 30.7504 93.7182 30.9646 93.5077 30.7068C93.4157 30.5814 93.5551 30.3326 93.9474 30.0966C94.3337 29.8611 94.9819 29.6672 95.7147 29.6825C96.4471 29.6987 97.0841 29.9204 97.4573 30.1723C97.8362 30.4249 97.9625 30.6793 97.8639 30.8006Z" fill="#263238"/>
</g>
</g>
</g>
</g>
</g>
</g>
</g>
</g>
</g>
</g>
<g id="Group_116">
<g id="Group_117">
<path id="Vector_25" d="M89.2971 17.3871C88.7177 16.4019 87.6399 15.9513 86.4364 15.7692C81.5239 15.0251 76.0388 17.9834 73.2863 22.12C70.5338 26.2565 70.3866 32.4277 72.4018 36.9691L75.4656 35.0517C81.6187 32.5147 85.9642 26.5862 89.9208 20.4618C90.4597 19.6279 89.8005 18.2432 89.2971 17.3871Z" fill="#263238"/>
</g>
<g id="Group_118">
<path id="Vector_26" d="M96.8563 20.0888C94.8011 17.7514 93.3086 15.4205 89.0426 17.0454C88.4142 18.2404 89.6803 19.7904 90.7369 20.6964C92.2847 22.023 93.637 22.919 94.6524 23.8686C96.7054 25.7885 99.0378 32.2403 99.2393 35.7619C99.2521 35.983 99.6313 32.739 99.8533 32.705C100.141 32.6607 101.3 31.2461 101.141 29.3104C100.598 22.7032 98.9115 22.4263 96.8563 20.0888Z" fill="#263238"/>
</g>
<g id="Group_119">
<g id="Group_120">
<path id="Vector_27" d="M86.4356 15.7706C86.4346 15.7394 86.8104 15.6951 87.3925 15.8538C87.9678 16.0147 88.7301 16.4226 89.3319 17.1273C89.4791 17.305 89.6141 17.4871 89.7204 17.6823C89.8327 17.8796 89.891 18.0976 89.9446 18.2719C90.0594 18.6392 90.156 18.9828 90.1956 19.2812C90.281 19.8842 90.1376 20.2509 90.1071 20.239C90.0587 20.2319 90.1214 19.8717 89.9895 19.3189C89.9265 19.0423 89.8149 18.7212 89.6852 18.3573C89.6178 18.1662 89.5667 17.9909 89.4666 17.8235C89.3687 17.6514 89.2424 17.484 89.1062 17.3193C88.5452 16.663 87.8534 16.2542 87.3258 16.0525C86.7942 15.8532 86.4315 15.8205 86.4356 15.7706Z" fill="#455A64"/>
</g>
</g>
</g>
</g>
</g>
<g id="Group_121">
<g id="Group_122">
<g id="Group_123">
<g id="Group_124">
<g id="Group_125">
<g id="Group_126">
<path id="Vector_28" d="M96.645 36.6743C96.6715 37.167 96.2761 37.5954 95.7619 37.6325C95.249 37.6693 94.8109 37.3014 94.7844 36.8087C94.7582 36.3161 95.1536 35.887 95.6662 35.8502C96.1804 35.8131 96.6188 36.182 96.645 36.6743Z" fill="#263238"/>
</g>
</g>
</g>
</g>
</g>
</g>
<g id="Group_127">
<g id="Group_128">
<g id="Group_129">
<g id="Group_130">
<g id="Group_131">
<g id="Group_132">
<path id="Vector_29" d="M86.3748 36.7489C86.4013 37.2415 86.006 37.6699 85.4921 37.707C84.9792 37.7438 84.5411 37.3756 84.5149 36.8829C84.4884 36.3903 84.8841 35.9612 85.397 35.9244C85.9103 35.8873 86.3486 36.2565 86.3748 36.7489Z" fill="#263238"/>
</g>
</g>
</g>
</g>
</g>
</g>
</g>
<g id="Group_133">
<path id="Vector_30" d="M58.1115 44.5572C58.6909 43.6026 59.3462 42.7041 60.419 42.3084C61.4918 41.9126 62.6822 41.6765 63.5167 40.91C64.8219 39.7112 64.7754 37.7149 64.6441 35.9738C64.5131 34.233 64.4957 32.2277 65.8305 31.0604C66.9454 30.0855 68.7208 29.9972 69.6863 28.8817C70.3316 28.1357 70.4588 27.1059 70.6862 26.1566C71.2968 23.6068 72.7039 19.1581 80.214 16.5977L73.57 41.8409C74.0643 41.9787 75.25 43.1083 75.3155 43.8718C75.3766 44.5859 75.0679 45.3104 75.0604 46.0267C75.0513 46.9043 76.0153 47.4279 76.6206 48.0782C77.3878 48.9021 77.6233 50.0938 77.5057 51.2003C77.3882 52.3068 76.7326 54.5681 76.3057 55.6004C70.141 54.9766 61.1494 54.7755 56.4511 50.8447C55.5947 50.1281 56.8198 46.6857 58.1115 44.5572Z" fill="#263238"/>
</g>
<g id="Group_134">
<g id="Group_135">
<g id="Group_136">
<g id="Group_137">
<g id="Group_138">
<g id="Group_139">
<g id="Group_140">
<g id="Group_141">
<g id="Group_142">
<g id="Group_143">
<g id="Group_144">
<g id="Group_145">
<g id="Group_146">
<g id="Group_147">
<g id="Group_148">
<g id="Group_149">
<g id="Group_150">
<g id="Group_151">
<path id="Vector_31" d="M75.4633 35.0398C75.3495 34.9777 70.8109 33.1823 70.5221 37.956C70.2337 42.7297 75.0856 42.0346 75.1022 41.898C75.119 41.762 75.4633 35.0398 75.4633 35.0398Z" fill="#FFBE9D"/>
</g>
</g>
</g>
</g>
</g>
</g>
</g>
</g>
</g>
</g>
</g>
</g>
</g>
</g>
</g>
</g>
</g>
<g id="Group_152">
<g id="Group_153">
<g id="Group_154">
<g id="Group_155">
<g id="Group_156">
<g id="Group_157">
<g id="Group_158">
<g id="Group_159">
<g id="Group_160">
<g id="Group_161">
<g id="Group_162">
<g id="Group_163">
<g id="Group_164">
<g id="Group_165">
<g id="Group_166">
<g id="Group_167">
<g id="Group_168">
<g id="Group_169">
<path id="Vector_32" d="M73.7662 39.9918C73.7463 39.9753 73.6795 40.0448 73.5352 40.1009C73.3946 40.1552 73.1563 40.1842 72.9131 40.0763C72.4202 39.8608 72.0438 39.0345 72.0728 38.173C72.0868 37.7381 72.2032 37.3299 72.3775 36.9966C72.5443 36.6561 72.785 36.426 73.0413 36.3961C73.2973 36.353 73.4678 36.5158 73.518 36.6536C73.5738 36.7908 73.538 36.8843 73.5629 36.894C73.5754 36.9068 73.6702 36.8201 73.6434 36.6206C73.6293 36.5245 73.5801 36.4089 73.4738 36.3103C73.3646 36.2102 73.1991 36.1525 73.0213 36.161C72.6515 36.1641 72.2998 36.4827 72.1081 36.8485C71.8957 37.2145 71.7551 37.6726 71.7395 38.1612C71.7121 39.1247 72.1498 40.0544 72.8277 40.2955C73.1582 40.4034 73.4444 40.3192 73.596 40.2153C73.7506 40.1065 73.7821 40.0014 73.7662 39.9918Z" fill="#EB996E"/>
</g>
</g>
</g>
</g>
</g>
</g>
</g>
</g>
</g>
</g>
</g>
</g>
</g>
</g>
</g>
</g>
</g>
</g>
</g>
<g id="Group_170">
<g id="Group_171">
<g id="Group_172">
<path id="Vector_33" d="M92.4465 36.3098C92.4718 36.3116 92.4374 35.9168 92.5977 35.2391C92.7565 34.5745 93.1825 33.594 94.1658 32.8253C94.6529 32.4495 95.2692 32.1273 95.983 31.9908C96.6922 31.8588 97.4943 31.8694 98.2621 32.1482C98.6482 32.2758 99.0218 32.472 99.3661 32.7215C99.7142 32.966 100.032 33.2713 100.295 33.6265C100.838 34.3263 101.153 35.2316 101.177 36.1694C101.183 37.1078 100.898 38.0231 100.377 38.7401C100.126 39.1038 99.818 39.4191 99.4778 39.6748C99.1416 39.9352 98.7745 40.1432 98.3925 40.2832C97.634 40.5867 96.8326 40.6228 96.1193 40.5134C95.4014 40.3996 94.7755 40.0974 94.2765 39.7375C93.2692 39.0005 92.8123 38.0341 92.6321 37.3751C92.4499 36.7027 92.4718 36.3073 92.4465 36.3098C92.4437 36.3098 92.4424 36.3341 92.4431 36.3815C92.4446 36.4386 92.4465 36.5075 92.449 36.5917C92.4502 36.6846 92.4568 36.7988 92.4811 36.9322C92.5011 37.0663 92.5204 37.222 92.5709 37.3913C92.735 38.0646 93.1831 39.061 94.2082 39.8298C94.7159 40.2053 95.3574 40.5227 96.0966 40.6459C96.8307 40.7647 97.6587 40.7323 98.4455 40.4226C98.8416 40.2795 99.2227 40.0662 99.5717 39.7977C99.925 39.5341 100.244 39.2082 100.506 38.8321C101.048 38.0902 101.346 37.1399 101.338 36.1666C101.314 35.1939 100.986 34.254 100.421 33.5301C100.147 33.1624 99.8177 32.8471 99.4563 32.5951C99.0989 32.3382 98.7109 32.137 98.3108 32.0067C97.5146 31.7226 96.686 31.7166 95.9562 31.8588C95.2212 32.0057 94.5902 32.3435 94.095 32.7349C93.0952 33.536 92.6785 34.5462 92.5363 35.2245C92.4911 35.3954 92.4767 35.5516 92.4612 35.686C92.4409 35.8201 92.4381 35.9349 92.4399 36.0275C92.4403 36.1117 92.4406 36.1806 92.4409 36.2377C92.4418 36.2857 92.4437 36.3101 92.4465 36.3098Z" fill="#455A64"/>
</g>
</g>
<g id="Group_173">
<g id="Group_174">
<path id="Vector_34" d="M80.3937 36.5016C80.4187 36.5035 80.3844 36.1087 80.545 35.431C80.7037 34.7664 81.1297 33.7859 82.113 33.0172C82.6002 32.6414 83.2164 32.3192 83.9303 32.1829C84.6395 32.051 85.4416 32.0616 86.2094 32.3404C86.5955 32.468 86.9691 32.6641 87.3134 32.9136C87.6614 33.1581 87.9789 33.4635 88.2421 33.8187C88.7857 34.5185 89.1001 35.4238 89.1238 36.3616C89.1303 37.3 88.8453 38.2153 88.3244 38.9323C88.0728 39.2959 87.7653 39.6112 87.425 39.867C87.0888 40.1274 86.7218 40.3354 86.3397 40.4754C85.5813 40.7789 84.7798 40.815 84.0669 40.7056C83.349 40.5917 82.723 40.2895 82.2241 39.9297C81.2167 39.1927 80.7599 38.2262 80.5796 37.5673C80.3972 36.8946 80.4187 36.4991 80.3937 36.5016C80.3909 36.5016 80.3897 36.526 80.3903 36.5731C80.3919 36.6301 80.3937 36.699 80.3962 36.7833C80.3975 36.8762 80.404 36.9903 80.4287 37.1238C80.4486 37.2579 80.4676 37.4135 80.5185 37.5829C80.6825 38.2562 81.1307 39.2526 82.1558 40.0213C82.6635 40.3968 83.305 40.7143 84.0441 40.8375C84.7782 40.9563 85.6062 40.9239 86.3931 40.6142C86.7891 40.471 87.1702 40.2574 87.5192 39.9892C87.8726 39.7257 88.1919 39.4001 88.4539 39.0237C88.9953 38.2818 89.2934 37.3315 89.2859 36.3582C89.2619 35.3855 88.9335 34.4455 88.3687 33.7217C88.0949 33.354 87.7653 33.0387 87.4038 32.7867C87.0461 32.5297 86.6585 32.3286 86.2583 32.1982C85.4622 31.9138 84.6335 31.9082 83.9038 32.0501C83.1687 32.197 82.5378 32.5347 82.0422 32.9261C81.0424 33.7273 80.6261 34.7374 80.4835 35.4157C80.4383 35.5866 80.424 35.7429 80.4084 35.8776C80.3884 36.0117 80.3853 36.1265 80.3872 36.2191C80.3875 36.3033 80.3878 36.3722 80.3881 36.4296C80.3891 36.4776 80.3909 36.5016 80.3937 36.5016Z" fill="#455A64"/>
</g>
</g>
<g id="Group_175">
<g id="Group_176">
<path id="Vector_35" d="M88.9996 36.1728C89.0227 36.1887 89.1486 35.9857 89.4383 35.7528C89.7217 35.5208 90.1972 35.2735 90.7585 35.262C91.32 35.253 91.8042 35.4831 92.0958 35.7044C92.3936 35.9265 92.5267 36.1248 92.5495 36.1079C92.5641 36.1008 92.4634 35.8738 92.1675 35.615C91.8794 35.3583 91.3662 35.0902 90.7553 35.0999C90.1451 35.1123 89.6416 35.3992 89.3631 35.6661C89.0772 35.9355 88.9846 36.1662 88.9996 36.1728Z" fill="#455A64"/>
</g>
</g>
<g id="Group_177">
<g id="Group_178">
<path id="Vector_36" d="M74.3633 34.7472C74.3599 34.7678 74.6958 34.8467 75.2459 34.9303C75.796 35.0151 76.5604 35.0981 77.4043 35.172C78.2204 35.2453 78.9583 35.3114 79.563 35.3657C80.1147 35.4199 80.4559 35.4586 80.4599 35.4349C80.4634 35.4143 80.1278 35.3354 79.5774 35.2518C79.0272 35.167 78.2629 35.084 77.4186 35.0101C76.6028 34.9368 75.8652 34.8707 75.2602 34.8165C74.7085 34.7622 74.367 34.7238 74.3633 34.7472Z" fill="#455A64"/>
</g>
</g>
</g>
<g id="Group_179">
<path id="Vector_37" d="M99.408 39.0056C99.369 38.971 100.007 38.4313 100.343 37.4978C100.695 36.5698 100.561 35.7451 100.614 35.7442C100.632 35.7408 100.692 35.9394 100.706 36.2733C100.721 36.6057 100.672 37.0734 100.496 37.5542C100.317 38.0344 100.05 38.4213 99.8223 38.6639C99.5947 38.9084 99.4198 39.02 99.408 39.0056Z" fill="white"/>
</g>
<g id="Group_180">
<path id="Vector_38" d="M100.161 34.0763C100.185 34.0398 100.363 34.1299 100.465 34.3413C100.568 34.5521 100.528 34.7476 100.484 34.7438C100.438 34.7435 100.404 34.5839 100.319 34.4121C100.237 34.2384 100.132 34.1124 100.161 34.0763Z" fill="white"/>
</g>
<g id="Group_181">
<path id="Vector_39" d="M88.3973 38.0623C88.3715 38.0523 88.46 37.811 88.5299 37.4091C88.6013 37.0081 88.6318 36.44 88.5196 35.8292C88.4045 35.2187 88.1713 34.6995 87.9602 34.3512C87.75 34.0014 87.5807 33.8081 87.6013 33.7897C87.6132 33.7775 87.8149 33.9446 88.0565 34.2892C88.2985 34.6312 88.5595 35.165 88.6789 35.7996C88.7958 36.4344 88.7447 37.0262 88.6421 37.4325C88.5408 37.8406 88.4126 38.0692 88.3973 38.0623Z" fill="white"/>
</g>
</g>
<g id="Group_182">
<path id="Vector_40" d="M71.8124 41.8518C71.823 41.8615 71.7472 41.9444 71.6521 42.1172C71.5579 42.288 71.4513 42.5618 71.4475 42.9107C71.4416 43.2546 71.5573 43.6821 71.8891 43.9983C72.209 44.3138 72.7238 44.5199 73.2385 44.4301C73.7527 44.335 74.1633 43.9621 74.3532 43.5549C74.554 43.1427 74.5135 42.7018 74.3878 42.3816C74.2628 42.0558 74.0673 41.8366 73.9195 41.7093C73.7702 41.5806 73.6701 41.5291 73.6766 41.5166C73.6797 41.5092 73.7901 41.5413 73.9585 41.6598C74.1247 41.777 74.3461 41.9956 74.4942 42.3386C74.6426 42.6734 74.7025 43.1592 74.4889 43.6176C74.2874 44.0684 73.8434 44.4822 73.2672 44.5901C72.6898 44.6899 72.1295 44.457 71.7837 44.1046C71.4239 43.7495 71.3103 43.2733 71.3328 42.9076C71.3521 42.5344 71.4831 42.2525 71.5981 42.0848C71.7145 41.9148 71.8071 41.8459 71.8124 41.8518Z" fill="#E0E0E0"/>
</g>
<g id="Group_183">
<path id="Vector_41" d="M98.1624 45.5292C98.168 45.499 98.4757 45.7216 98.9915 45.5807C99.2415 45.5139 99.5212 45.3615 99.7551 45.1095C99.9886 44.8604 100.177 44.5171 100.25 44.1286C100.324 43.7395 100.264 43.3544 100.119 43.0445C99.9771 42.7311 99.7619 42.4951 99.5611 42.3292C99.1474 41.999 98.8 41.9532 98.8106 41.9223C98.8119 41.9145 98.8979 41.9132 99.0463 41.9538C99.1938 41.9937 99.4062 42.0751 99.6313 42.2381C99.8533 42.4018 100.093 42.6454 100.254 42.9805C100.42 43.3117 100.491 43.737 100.41 44.1585C100.331 44.5804 100.122 44.9496 99.8633 45.2134C99.6045 45.48 99.2924 45.6355 99.0186 45.6926C98.7433 45.7518 98.5091 45.7147 98.3654 45.6568C98.2194 45.5981 98.1574 45.5361 98.1624 45.5292Z" fill="#E0E0E0"/>
</g>
</g>
<g id="Group_184">
<g id="Group_185">
<path id="Vector_42" d="M80.851 107.456L85.4731 108.824C85.4731 108.824 88.0245 109.92 89.2666 110.204C90.8066 110.557 91.8567 110.078 91.9137 109.223C91.9708 108.368 90.7739 108.254 90.7739 108.254C90.7739 108.254 88.836 107.513 87.8099 106.886C86.7839 106.259 86.157 105.005 86.157 105.005L87.8099 105.233C87.8099 105.233 91.2869 107.741 92.5977 108.482C93.9087 109.223 94.1935 107.912 94.3076 107.513C94.4214 107.114 90.4318 103.067 90.4318 103.067C90.4318 103.067 94.2505 105.518 94.9345 106.131C95.6184 106.744 96.6444 106.943 96.8724 106.544C97.1004 106.145 97.7272 106.145 96.8724 104.454C96.0173 102.764 89.1778 98.222 89.1778 98.222L91.0586 97.8231L93.1104 98.735C93.1104 98.735 93.2245 99.5898 93.9652 100.688C94.7062 101.787 96.0169 100.688 96.0169 100.688L95.2189 96.484L91.1721 93.9473C91.1721 93.9473 86.9542 94.4603 86.3273 94.7453C85.7005 95.0304 85.0162 96.2233 85.0162 96.2233L83.8764 96.6832C82.1094 97.1963 82.1664 98.9633 81.5963 99.02C81.0262 99.0771 64.3926 95.8319 64.3926 95.8319L62.8851 95.4386C60.4014 97.3332 59.3956 100.46 58.9565 103.231C58.9565 103.231 58.4962 104.589 58.9565 105.338L80.851 107.456Z" fill="#FFBE9D"/>
<g id="Group_186">
<path id="Vector_43" d="M77.8114 104.499C77.8001 104.499 77.7951 104.403 77.7958 104.227C77.7917 104.139 77.8026 104.032 77.8229 103.909C77.8369 103.784 77.8613 103.643 77.9065 103.493C78.0559 102.878 78.4663 102.092 79.0679 101.35C79.6688 100.605 80.3122 100.024 80.7887 99.6248C81.2677 99.2263 81.584 99.0064 81.5968 99.0223C81.612 99.0413 81.3214 99.293 80.8645 99.7112C80.4095 100.131 79.7855 100.719 79.1945 101.451C78.6029 102.182 78.19 102.936 78.0169 103.524C77.8344 104.11 77.8453 104.501 77.8114 104.499Z" fill="#EB996E"/>
</g>
<g id="Group_187">
<path id="Vector_44" d="M85.0175 96.2239C85.0237 96.2386 84.8796 96.295 84.6666 96.4669C84.4533 96.6368 84.1773 96.9275 83.9082 97.3376C83.775 97.5425 83.6365 97.7751 83.5277 98.0377C83.4095 98.2913 83.4073 98.6041 83.3471 98.9309C83.2979 99.2546 83.1968 99.6161 82.9813 99.9161C82.773 100.216 82.5485 100.495 82.4271 100.844C82.2045 101.44 82.2235 102.087 82.4209 102.605L82.443 102.664L82.3903 102.697C81.5075 103.258 81.0786 104.115 80.9218 104.715C80.7593 105.329 80.8095 105.713 80.7811 105.712C80.7736 105.713 80.758 105.619 80.7509 105.444C80.7462 105.268 80.7587 105.009 80.8301 104.692C80.9654 104.069 81.3877 103.167 82.3086 102.568L82.2781 102.66C82.0619 102.109 82.0379 101.422 82.275 100.787C82.4041 100.415 82.6511 100.109 82.8494 99.8272C83.054 99.544 83.1454 99.2256 83.1999 98.9053C83.2629 98.5919 83.2695 98.2644 83.4039 97.985C83.524 97.7112 83.6709 97.4785 83.8134 97.2727C84.1009 96.8617 84.3972 96.5754 84.6289 96.416C84.7434 96.3346 84.8413 96.2835 84.9102 96.257C84.9788 96.2302 85.0156 96.2186 85.0175 96.2239Z" fill="#EB996E"/>
</g>
<g id="Group_188">
<path id="Vector_45" d="M89.02 98.0892C89.0262 98.1298 88.4731 98.1896 87.8414 97.9617C87.2078 97.7391 86.8171 97.3431 86.8473 97.3156C86.8776 97.2773 87.2948 97.5988 87.8959 97.8086C88.494 98.0256 89.0206 98.0403 89.02 98.0892Z" fill="#EB996E"/>
</g>
<g id="Group_189">
<path id="Vector_46" d="M90.0875 102.697C90.0697 102.738 89.2861 102.439 88.3379 102.028C87.3894 101.618 86.6349 101.252 86.6527 101.211C86.6704 101.17 87.4537 101.469 88.4025 101.88C89.3507 102.29 90.1052 102.656 90.0875 102.697Z" fill="#EB996E"/>
</g>
<g id="Group_190">
<path id="Vector_47" d="M86.3319 104.97C86.3094 105.01 85.92 104.834 85.4345 104.635C84.9496 104.434 84.5484 104.286 84.5608 104.241C84.5721 104.199 85.0011 104.28 85.4962 104.485C85.992 104.688 86.3537 104.933 86.3319 104.97Z" fill="#EB996E"/>
</g>
<g id="Group_191">
<path id="Vector_48" d="M89.5123 102.991C89.5291 103.036 89.1254 103.178 88.8186 103.575C88.5027 103.966 88.4587 104.392 88.411 104.386C88.3911 104.385 88.3724 104.275 88.4026 104.1C88.4319 103.926 88.522 103.69 88.691 103.475C88.8606 103.261 89.0699 103.119 89.2323 103.05C89.396 102.98 89.507 102.972 89.5123 102.991Z" fill="#EB996E"/>
</g>
<g id="Group_192">
<path id="Vector_49" d="M91.1831 100.462C91.2037 100.505 90.8978 100.663 90.6924 101.01C90.4781 101.353 90.4781 101.697 90.4308 101.699C90.3893 101.713 90.3104 101.321 90.5536 100.926C90.7921 100.529 91.1769 100.419 91.1831 100.462Z" fill="#EB996E"/>
</g>
<g id="Group_193">
<path id="Vector_50" d="M90.7139 95.8765C90.6958 95.8849 90.6341 95.8076 90.5886 95.6563C90.5424 95.5067 90.5253 95.2812 90.5861 95.0461C90.6478 94.8114 90.7731 94.6233 90.8863 94.5151C91.0001 94.4054 91.0918 94.3683 91.1033 94.3845C91.1339 94.4207 90.8477 94.6629 90.7429 95.0873C90.6272 95.5085 90.7582 95.8599 90.7139 95.8765Z" fill="#EB996E"/>
</g>
</g>
<g id="Group_194">
<path id="Vector_51" d="M124.432 97.3139C124.432 97.3139 124.22 93.2225 119.981 92.3746C115.741 91.5266 108.321 95.1311 108.321 95.1311L87.5059 109.636L88.1274 111.43L109.247 108.486L111.183 109.228L126.022 99.4763L140.024 89.3538L138.476 88.1348C138.476 88.1348 134.555 90.8377 131.958 92.0034C129.361 93.1695 125.599 95.2047 124.432 97.3139Z" fill="#F5F5F5"/>
<path id="Vector_52" d="M87.1758 112.021L104.79 101.078L123.411 98.0881C123.411 98.0881 124.346 99.4398 125.927 99.1089L141.241 88.5117L141.529 89.1529L111.836 110.009C110.76 110.343 109.933 110.089 109.248 109.505L87.1758 112.021Z" fill="#455A64"/>
<g id="Group_195">
<path id="Vector_53" d="M123.409 98.0864C123.412 98.0911 123.363 98.1316 123.266 98.204C123.153 98.2854 123.011 98.3883 122.836 98.5149C122.462 98.7837 121.921 99.1726 121.263 99.6666C119.942 100.649 118.151 102.051 116.204 103.638C114.259 105.228 112.522 106.699 111.275 107.774C110.664 108.301 110.164 108.733 109.798 109.048C109.634 109.188 109.5 109.302 109.394 109.391C109.301 109.469 109.25 109.507 109.246 109.503C109.243 109.499 109.286 109.452 109.373 109.367C109.473 109.271 109.6 109.15 109.756 109C110.092 108.685 110.584 108.234 111.2 107.687C112.429 106.59 114.154 105.104 116.101 103.512C118.05 101.923 119.855 100.534 121.195 99.5737C121.863 99.0909 122.415 98.7154 122.8 98.4625C122.982 98.3462 123.131 98.2514 123.247 98.1765C123.35 98.1129 123.406 98.0817 123.409 98.0864Z" fill="#263238"/>
</g>
<path id="Vector_54" d="M123.221 95.8091C121.533 93.9972 118.876 93.352 116.407 93.5444C113.938 93.7368 111.592 94.6593 109.29 95.5715L87.7422 110.319L87.9343 110.874L109.598 96.2111C109.598 96.2111 114.436 94.6453 116.579 94.3836C120.169 93.9454 123.221 95.8091 123.221 95.8091Z" fill="#E0E0E0"/>
<path id="Vector_55" d="M126.602 97.75L136.961 90.7617C136.961 90.7617 128.472 95.1752 126.602 97.75Z" fill="#E0E0E0"/>
<g id="Group_196">
<path id="Vector_56" d="M87.7422 110.32C87.7407 110.318 87.7703 110.294 87.8299 110.25C87.8966 110.202 87.9846 110.138 88.0962 110.058C88.3404 109.886 88.6872 109.643 89.1297 109.332C90.0394 108.702 91.3415 107.8 92.9476 106.688C96.1869 104.463 100.649 101.399 105.578 98.0147C106.836 97.1546 108.063 96.315 109.245 95.5067L109.251 95.5023L109.259 95.4992C111.52 94.523 113.743 93.8201 115.813 93.5301C117.889 93.2684 119.786 93.6214 121.183 94.2866C121.883 94.6169 122.458 95.027 122.903 95.443C123.347 95.8628 123.658 96.2907 123.863 96.6627C124.075 97.0336 124.173 97.3504 124.237 97.5622C124.26 97.6641 124.278 97.7452 124.293 97.8079C124.305 97.8631 124.309 97.8918 124.307 97.8921C124.279 97.9027 124.24 97.4218 123.815 96.6902C123.604 96.3269 123.291 95.9102 122.849 95.502C122.404 95.0975 121.833 94.6992 121.139 94.3796C119.756 93.7362 117.88 93.3991 115.83 93.6673C113.785 93.9636 111.571 94.669 109.321 95.6451L109.335 95.6376C108.153 96.4469 106.927 97.2871 105.669 98.1485C100.73 101.518 96.2586 104.568 93.0124 106.782C91.3942 107.877 90.0822 108.764 89.1656 109.384C88.7156 109.684 88.3635 109.919 88.1149 110.084C87.9995 110.159 87.9085 110.219 87.8392 110.263C87.7766 110.303 87.7438 110.322 87.7422 110.32Z" fill="#263238"/>
</g>
<g id="Group_197">
<path id="Vector_57" d="M106.604 99.1705C106.601 99.1655 106.657 99.1312 106.766 99.0707C106.875 99.0108 107.036 98.922 107.247 98.814C107.668 98.5957 108.281 98.2901 109.054 97.9415C110.595 97.251 112.799 96.3712 115.376 96.006C117.954 95.6405 120.345 96.0023 121.933 96.6057C122.731 96.9008 123.344 97.221 123.745 97.4743C123.951 97.5925 124.096 97.7079 124.2 97.7768C124.302 97.8491 124.353 97.8891 124.35 97.8937C124.342 97.9062 124.123 97.7618 123.713 97.5289C123.304 97.294 122.689 96.9921 121.894 96.714C120.313 96.1445 117.95 95.8055 115.398 96.167C112.847 96.5284 110.649 97.3848 109.1 98.0469C108.324 98.3812 107.704 98.6703 107.275 98.8711C107.074 98.9647 106.91 99.0405 106.781 99.1003C106.667 99.1509 106.606 99.1755 106.604 99.1705Z" fill="#263238"/>
</g>
<g id="Group_198">
<path id="Vector_58" d="M139.467 88.9166C139.469 88.9213 139.423 88.9565 139.332 89.0192C139.225 89.0903 139.091 89.1789 138.929 89.2865C138.556 89.5263 138.05 89.8519 137.434 90.2486C136.17 91.0582 134.426 92.179 132.513 93.4374C130.6 94.6967 128.88 95.8553 127.637 96.6958C127.029 97.1049 126.53 97.4408 126.162 97.6881C125.999 97.7948 125.865 97.8821 125.757 97.9526C125.663 98.0115 125.613 98.0402 125.61 98.0358C125.606 98.0312 125.651 97.9934 125.738 97.9258C125.842 97.8487 125.97 97.753 126.126 97.6363C126.464 97.3875 126.958 97.0338 127.571 96.6013C128.799 95.7365 130.509 94.562 132.424 93.3017C134.338 92.0424 136.093 90.9366 137.373 90.1513C138.013 89.7587 138.534 89.4452 138.896 89.2329C139.065 89.1356 139.203 89.0557 139.315 88.9915C139.411 88.9375 139.464 88.9116 139.467 88.9166Z" fill="#263238"/>
</g>
</g>
<g id="Group_199">
<path id="Vector_59" d="M130.042 100.131C130.042 100.131 129.635 101.098 129.238 101.571C128.841 102.044 127.537 102.706 127.432 103.608C127.328 104.51 127.544 106.624 126.134 108.231C124.724 109.838 122.792 110.402 122.792 110.402L117.233 109.859L108.351 106.365C108.351 106.365 107.619 106.166 107.784 105.432C107.883 104.991 108.263 104.667 108.71 104.595L108.922 104.56C108.922 104.56 108.411 104.143 109.142 103.411C109.773 102.779 111.098 103.138 111.782 103.367C112.467 103.596 116.492 105.277 117.215 105.534C117.854 105.762 118.345 105.964 118.345 105.964C118.345 105.964 113.197 102.49 113.126 102.036C113.04 101.49 113.098 101.241 113.624 100.858C114.242 100.408 115.271 100.892 116.263 101.309C117 101.619 121.714 103.947 121.714 103.947C121.714 103.947 121.925 103.742 121.727 103.321C121.528 102.9 119.947 100.889 119.703 100.519C119.461 100.151 119.394 99.9331 119.635 99.6197C119.98 99.1722 120.892 98.9604 121.715 99.7204C122.245 100.209 124.118 101.467 124.118 101.467L132.768 95.1563C132.768 95.1563 133.845 95.1291 133.47 96.628C133.096 98.1265 130.042 100.131 130.042 100.131Z" fill="#FFBE9D"/>
<g id="Group_200">
<path id="Vector_60" d="M123.595 105.386C123.586 105.427 123.111 105.304 122.66 104.921C122.206 104.542 122.004 104.096 122.042 104.079C122.083 104.054 122.335 104.44 122.764 104.797C123.189 105.159 123.613 105.341 123.595 105.386Z" fill="#EB996E"/>
</g>
<g id="Group_201">
<path id="Vector_61" d="M124.303 101.626C124.301 101.607 124.416 101.575 124.604 101.597C124.79 101.618 125.046 101.71 125.27 101.895C125.494 102.08 125.631 102.314 125.687 102.493C125.745 102.673 125.735 102.792 125.716 102.794C125.67 102.806 125.582 102.354 125.166 102.02C124.76 101.674 124.299 101.673 124.303 101.626Z" fill="#EB996E"/>
</g>
<g id="Group_202">
<path id="Vector_62" d="M124.711 103.364C124.663 103.365 124.64 102.9 124.456 102.367C124.278 101.832 124.014 101.448 124.053 101.42C124.083 101.391 124.421 101.749 124.61 102.315C124.803 102.879 124.753 103.369 124.711 103.364Z" fill="#EB996E"/>
</g>
<g id="Group_203">
<path id="Vector_63" d="M129.838 99.6804C129.824 99.6944 129.725 99.6321 129.613 99.483C129.502 99.3355 129.389 99.0945 129.357 98.8098C129.325 98.5249 129.382 98.2648 129.458 98.0964C129.535 97.9262 129.617 97.8436 129.633 97.8545C129.676 97.876 129.453 98.2689 129.518 98.7918C129.57 99.3159 129.874 99.6498 129.838 99.6804Z" fill="#EB996E"/>
</g>
<g id="Group_204">
<path id="Vector_64" d="M122.01 107.566C122.011 107.584 121.776 107.616 121.402 107.557C121.029 107.502 120.527 107.334 120.029 107.047C119.532 106.759 119.13 106.431 118.849 106.188C118.569 105.944 118.407 105.78 118.421 105.763C118.435 105.746 118.624 105.878 118.921 106.099C119.219 106.317 119.626 106.626 120.11 106.906C120.594 107.185 121.069 107.362 121.425 107.445C121.78 107.53 122.01 107.54 122.01 107.566Z" fill="#EB996E"/>
</g>
<g id="Group_205">
<path id="Vector_65" d="M123.458 106.678C123.503 106.673 123.505 106.992 123.243 107.246C122.983 107.503 122.664 107.493 122.67 107.449C122.664 107.403 122.916 107.345 123.129 107.13C123.348 106.922 123.412 106.671 123.458 106.678Z" fill="#EB996E"/>
</g>
<g id="Group_206">
<path id="Vector_66" d="M125.58 105.118C125.599 105.124 125.598 105.203 125.54 105.314C125.484 105.424 125.361 105.556 125.189 105.639C125.016 105.721 124.836 105.732 124.715 105.706C124.593 105.681 124.53 105.632 124.538 105.613C124.552 105.57 124.826 105.637 125.119 105.492C125.416 105.357 125.538 105.101 125.58 105.118Z" fill="#EB996E"/>
</g>
<g id="Group_207">
<path id="Vector_67" d="M118.091 108.656C118.073 108.697 116.006 107.834 113.474 106.728C110.942 105.622 108.904 104.693 108.922 104.652C108.94 104.611 111.007 105.474 113.539 106.579C116.071 107.685 118.109 108.615 118.091 108.656Z" fill="#EB996E"/>
</g>
</g>
</g>
</g>
</g>
<g id="Desk">
<g id="Group_208">
<path id="Vector_68" d="M154.513 111.44C154.513 111.485 123.073 111.522 84.298 111.522C45.5099 111.522 14.0762 111.485 14.0762 111.44C14.0762 111.396 45.5099 111.359 84.298 111.359C123.073 111.359 154.513 111.396 154.513 111.44Z" fill="#263238"/>
</g>
</g>
<g id="Device">
<g id="Group_209">
<g id="Group_210">
<path id="Vector_69" d="M18.0907 78.2146L24.8582 111.438H71.7726H83.5975C84.2456 111.438 84.7708 110.912 84.7708 110.264C84.7708 109.616 84.2456 109.091 83.5975 109.091H71.7726L65.4985 78.1934C65.3781 77.6005 64.8601 77.1727 64.2554 77.1658L19.3619 76.6759C18.5445 76.6671 17.9276 77.414 18.0907 78.2146Z" fill="#E0E0E0"/>
<g id="Group_211">
<path id="Vector_70" d="M18.09 78.2142C18.09 78.2142 18.0825 78.1808 18.0716 78.1144C18.0606 78.048 18.0519 77.946 18.0656 77.8125C18.0893 77.5556 18.2287 77.1242 18.6872 76.8414C18.7998 76.7722 18.932 76.7219 19.0754 76.6876C19.2202 76.6552 19.3776 76.6574 19.5376 76.6589C19.8601 76.6614 20.2125 76.6639 20.5945 76.6671C21.3592 76.6733 22.2421 76.6808 23.2376 76.6889C27.2223 76.7266 33.0058 76.7815 40.2124 76.8498C43.8169 76.8863 47.777 76.9262 52.0454 76.9693C54.1798 76.9911 56.3916 77.0138 58.6744 77.0375C59.8159 77.0494 60.9751 77.0613 62.1514 77.0734C62.7396 77.0797 63.3321 77.0856 63.9287 77.0918C64.08 77.0956 64.2222 77.0893 64.3834 77.103C64.5406 77.1196 64.695 77.1642 64.8369 77.234C65.1216 77.3734 65.3552 77.6167 65.4818 77.9101C65.5479 78.057 65.5751 78.2167 65.6047 78.3617L65.6957 78.8086C65.7566 79.1071 65.8174 79.4065 65.8785 79.7068C66.0008 80.3075 66.1239 80.9122 66.2477 81.5206C66.4954 82.7375 66.7461 83.9697 66.9997 85.2162C67.5067 87.7095 68.026 90.2612 68.5555 92.8656C69.6143 98.0744 70.7158 103.493 71.8507 109.075L71.7721 109.011C73.9929 109.01 76.2686 109.01 78.582 109.01C79.7387 109.01 80.9048 109.01 82.078 109.01H82.9593H83.4009C83.5441 109.011 83.7016 109.003 83.8581 109.037C84.1678 109.101 84.4485 109.29 84.6281 109.55C84.8099 109.81 84.8845 110.141 84.8358 110.454C84.7819 110.838 84.533 111.183 84.1949 111.367C84.025 111.458 83.8344 111.509 83.6426 111.516L83.1006 111.519C82.3821 111.519 81.6657 111.519 80.9515 111.519C79.5229 111.519 78.1027 111.518 76.6915 111.518C73.8691 111.518 71.0832 111.518 68.3397 111.517C62.8528 111.516 57.5361 111.515 52.4378 111.514C42.2414 111.509 32.9191 111.504 24.8587 111.5H24.8078L24.7978 111.45C22.7296 101.238 21.0467 92.9314 19.881 87.1747C19.3025 84.2984 18.8522 82.0598 18.5459 80.5373C18.3953 79.7785 18.2802 79.1991 18.2022 78.8061C18.1246 78.4157 18.09 78.2142 18.09 78.2142C18.09 78.2142 18.1367 78.4129 18.2191 78.8024C18.3011 79.1944 18.4218 79.7729 18.5802 80.5298C18.8939 82.0508 19.3552 84.2872 19.948 87.1607C21.1269 92.9149 22.8275 101.218 24.9185 111.425L24.8577 111.375C32.9185 111.371 42.2407 111.366 52.4368 111.361C57.5352 111.36 62.8519 111.359 68.3388 111.357C71.0823 111.357 73.8682 111.357 76.6905 111.356C78.1017 111.356 79.5219 111.356 80.9506 111.356C81.6648 111.356 82.3814 111.356 83.0997 111.356L83.6357 111.354C83.8032 111.348 83.9685 111.303 84.1166 111.224C84.411 111.064 84.6281 110.764 84.6746 110.429C84.7167 110.156 84.6521 109.869 84.494 109.643C84.3378 109.416 84.0933 109.252 83.8238 109.196C83.6909 109.166 83.5509 109.173 83.4003 109.172H82.9587H82.0774C80.9041 109.172 79.7381 109.172 78.5814 109.172C76.2683 109.172 73.9926 109.172 71.7715 109.172H71.7057L71.6926 109.107C70.5602 103.525 69.4609 98.1059 68.4043 92.8968C67.8763 90.2921 67.3589 87.7401 66.8534 85.2464C66.6008 83.9996 66.351 82.7671 66.1043 81.5502C65.9811 80.9418 65.8585 80.3371 65.7366 79.7361C65.6758 79.4358 65.615 79.1364 65.5548 78.8379L65.4643 78.391C65.4335 78.2395 65.4095 78.0976 65.3508 77.9675C65.2379 77.7049 65.029 77.4866 64.7742 77.3616C64.6469 77.2986 64.5088 77.2587 64.3681 77.2437C64.2309 77.2315 64.0734 77.2365 63.9269 77.2328C63.3303 77.2259 62.7377 77.2191 62.1495 77.2125C60.9732 77.1991 59.814 77.1857 58.6726 77.1726C56.3897 77.1461 54.1783 77.1205 52.0436 77.0959C47.7748 77.0457 43.815 76.9992 40.2105 76.9568C33.0039 76.8679 27.2207 76.7965 23.236 76.7472C22.2409 76.7338 21.358 76.7216 20.5933 76.7113C20.2113 76.706 19.8589 76.7007 19.5364 76.6964C19.3745 76.6936 19.223 76.6904 19.0817 76.7207C18.9417 76.7531 18.8122 76.8008 18.7018 76.8676C18.2515 77.1395 18.1084 77.5612 18.0803 77.8147C18.0541 78.0789 18.0987 78.2139 18.09 78.2142Z" fill="#263238"/>
</g>
</g>
<path id="Vector_71" d="M43.219 95.3599C44.2903 95.3599 45.1587 94.4915 45.1587 93.4202C45.1587 92.3489 44.2903 91.4805 43.219 91.4805C42.1477 91.4805 41.2793 92.3489 41.2793 93.4202C41.2793 94.4915 42.1477 95.3599 43.219 95.3599Z" fill="white"/>
<g id="Group_212">
<path id="Vector_72" d="M18.1445 78.4849C18.1445 78.4849 18.2131 78.4799 18.3469 78.478C18.4863 78.4771 18.6837 78.4762 18.9407 78.4746C19.4687 78.4752 20.2368 78.4762 21.2245 78.4774C23.2133 78.4871 26.0815 78.5008 29.6233 78.518C36.7198 78.5682 46.5142 78.6371 57.3319 78.7135C58.6847 78.7244 60.0217 78.735 61.3393 78.7456C61.6686 78.7484 61.997 78.7509 62.3239 78.7537C62.4835 78.7572 62.6541 78.7469 62.8269 78.784C62.9963 78.8183 63.1584 78.8844 63.3034 78.9773C63.5941 79.1616 63.8118 79.4557 63.8994 79.786C63.9727 80.111 64.0276 80.4181 64.0921 80.7331C64.5886 83.2358 65.0677 85.6497 65.5242 87.9497C66.4333 92.5487 67.2519 96.6903 67.9396 100.171C68.6204 103.646 69.1718 106.461 69.5541 108.412C69.7403 109.382 69.8853 110.136 69.9851 110.655C70.0319 110.907 70.0678 111.102 70.0933 111.238C70.1167 111.37 70.1245 111.439 70.1245 111.439C70.1245 111.439 70.1058 111.373 70.0768 111.242C70.0478 111.106 70.0066 110.913 69.953 110.661C69.8463 110.144 69.6914 109.392 69.4921 108.425C69.0979 106.476 68.529 103.665 67.8267 100.193C67.1291 96.7149 66.2989 92.5752 65.377 87.979C64.9176 85.6796 64.4355 83.2664 63.9359 80.7643C63.8723 80.4543 63.8136 80.1309 63.745 79.8284C63.6674 79.5359 63.4743 79.2758 63.2167 79.1127C63.0886 79.0307 62.9448 78.9724 62.7951 78.9421C62.6479 78.9094 62.4892 78.9184 62.3226 78.9153C61.9958 78.9128 61.6674 78.9103 61.3381 78.9078C60.0204 78.8975 58.6835 78.8872 57.3306 78.8766C46.513 78.7818 36.7185 78.6957 29.6224 78.6337C26.0805 78.5947 23.2126 78.5632 21.2239 78.5414C20.2365 78.527 19.4684 78.5158 18.9404 78.508C18.6834 78.5024 18.486 78.4983 18.3466 78.4952C18.2131 78.4908 18.1445 78.4849 18.1445 78.4849Z" fill="#263238"/>
</g>
</g>
</g>
<path id="Vector 763" d="M150.197 50.5303C150.147 49.7034 149.436 49.0737 148.609 49.1238L135.134 49.941C134.307 49.9912 133.677 50.7022 133.727 51.5291C133.778 52.356 134.489 52.9857 135.315 52.9355L147.293 52.2091L148.02 64.1871C148.07 65.014 148.781 65.6437 149.608 65.5936C150.435 65.5434 151.065 64.8324 151.014 64.0055L150.197 50.5303ZM139.427 61.0914L138.304 60.0969L139.427 61.0914ZM124.008 69.6448L135.084 60.0054L133.115 57.7424L122.039 67.3818L124.008 69.6448ZM140.55 62.0859L149.823 51.6156L147.577 49.6266L138.304 60.0969L140.55 62.0859ZM135.191 60.0541C135.191 62.8747 138.68 64.1975 140.55 62.0859L138.304 60.0969C138.288 60.1147 138.279 60.12 138.278 60.1205C138.277 60.1212 138.277 60.1211 138.277 60.1212C138.274 60.1217 138.258 60.1238 138.233 60.1145C138.208 60.1051 138.197 60.0926 138.196 60.0904C138.195 60.0901 138.195 60.0901 138.195 60.0889C138.195 60.0881 138.191 60.078 138.191 60.0541H135.191ZM135.084 60.0054C135.099 59.9927 135.107 59.9888 135.109 59.9881C135.111 59.9872 135.112 59.987 135.114 59.9868C135.118 59.9862 135.133 59.9861 135.153 59.9954C135.174 60.0046 135.183 60.016 135.186 60.0196C135.187 60.0209 135.187 60.0219 135.188 60.024C135.189 60.0258 135.191 60.0347 135.191 60.0541H138.191C138.191 57.4251 135.098 56.0165 133.115 57.7424L135.084 60.0054Z" fill="#A7C2FF"/>
</g>
</svg>
