<svg width="162" height="113" viewBox="0 0 162 113" fill="none" xmlns="http://www.w3.org/2000/svg">
<g id="Group 1924">
<path id="Vector" d="M161.239 86.1328C161.239 94.6336 158.759 102.556 154.477 109.212C153.721 110.393 152.905 111.532 152.036 112.629H4.73661C4.169 111.518 3.64737 110.376 3.17541 109.212C1.12817 104.174 0 98.6639 0 92.8914C0 89.5811 0.372594 86.356 1.07515 83.2555C1.09999 83.1383 1.12854 83.0212 1.15672 82.9044C2.61151 76.7167 5.39282 71.0365 9.18219 66.1865C9.25671 61.8047 9.7535 57.5226 10.6296 53.3821C10.6544 53.2579 10.6792 53.1337 10.7041 53.0133C12.031 46.9001 14.188 41.0994 17.0512 35.7277C17.115 35.6106 17.1791 35.4934 17.2392 35.3766C21.3726 27.7275 26.9426 20.9722 33.5882 15.4729C33.6909 15.3843 33.7906 15.3028 33.8933 15.2175C35.4864 13.9118 37.1432 12.6809 38.8535 11.5242C38.9706 11.4426 39.0878 11.3644 39.2083 11.2828C41.0531 10.0553 42.9583 8.91303 44.9274 7.86605C45.112 7.76669 45.2962 7.66733 45.4846 7.56797H45.4879C48.8798 5.80472 52.4382 4.31804 56.1423 3.14353C56.146 3.14353 56.146 3.14353 56.1494 3.14353C56.4085 3.05826 56.671 2.9804 56.9335 2.89884C63.139 1.01472 69.7237 0 76.5428 0C81.0592 0 85.4659 0.443409 89.7338 1.2913C89.7338 1.2913 89.7338 1.2913 89.7376 1.2913C90.0249 1.34802 90.3122 1.40845 90.5962 1.46888C107.85 5.13034 122.662 15.3944 132.26 29.4974C132.341 29.6146 132.423 29.7317 132.501 29.8522C136.638 36.0043 139.781 42.8801 141.711 50.2419C146.04 53.0448 149.829 56.6139 152.884 60.751C152.969 60.8611 153.05 60.9709 153.128 61.0847C155.409 64.2245 157.265 67.6839 158.624 71.3843C158.667 71.4977 158.709 71.6116 158.748 71.7213C160.359 76.2273 161.239 81.077 161.239 86.1328Z" fill="#EFF4FF"/>
<g id="Group 1923">
<g id="Group">
<path id="Vector_2" d="M87.9341 55.339C93.892 55.339 98.7218 50.5092 98.7218 44.5513C98.7218 38.5935 93.892 33.7637 87.9341 33.7637C81.9763 33.7637 77.1465 38.5935 77.1465 44.5513C77.1465 50.5092 81.9763 55.339 87.9341 55.339Z" fill="#E0E0E0"/>
<path id="Vector_3" d="M87.9344 53.7243C93.0004 53.7243 97.1071 49.6176 97.1071 44.5516C97.1071 39.4857 93.0004 35.3789 87.9344 35.3789C82.8685 35.3789 78.7617 39.4857 78.7617 44.5516C78.7617 49.6176 82.8685 53.7243 87.9344 53.7243Z" fill="#F0F0F0"/>
<g id="Vector_4">
<path d="M87.5014 38.2598V44.672L83.252 42.2673" fill="#F0F0F0"/>
<path d="M87.5014 38.2598V44.672L83.252 42.2673" stroke="#E0E0E0" stroke-width="1.2396" stroke-miterlimit="10" stroke-linecap="round" stroke-linejoin="round"/>
</g>
</g>
<g id="Screen">
<g id="Group_2">
<path id="Vector_5" d="M150.794 28H97.3145V78.6369H150.794V28Z" fill="#407BFF"/>
<path id="Vector_6" opacity="0.7" d="M150.794 28H97.3145V78.6369H150.794V28Z" fill="white"/>
<path id="Vector_7" d="M150.794 28H97.3145V30.5778H150.794V28Z" fill="#407BFF"/>
<path id="Vector_8" opacity="0.2" d="M150.792 30.5762H149.023V78.6802H150.792V30.5762Z" fill="black"/>
<path id="Vector_9" opacity="0.6" d="M150.007 38.4138H149.846C149.597 38.4138 149.395 38.2114 149.395 37.9621V32.1646C149.395 31.9152 149.597 31.7129 149.846 31.7129H150.007C150.257 31.7129 150.459 31.9152 150.459 32.1646V37.9621C150.459 38.2117 150.257 38.4138 150.007 38.4138Z" fill="white"/>
<path id="Vector_10" opacity="0.2" d="M98.4277 63.6875H147.859" stroke="black" stroke-width="0.501331" stroke-miterlimit="10" stroke-linecap="round" stroke-linejoin="round"/>
<path id="Vector_11" opacity="0.2" d="M98.4277 52.1367H147.859" stroke="black" stroke-width="0.501331" stroke-miterlimit="10" stroke-linecap="round" stroke-linejoin="round"/>
<path id="Vector_12" d="M147.859 31.7129H98.4277V39.2731H147.859V31.7129Z" fill="#407BFF"/>
<path id="Vector_13" opacity="0.6" d="M150.176 29.2894C150.176 29.6465 149.887 29.9362 149.529 29.9362C149.172 29.9362 148.883 29.6468 148.883 29.2894C148.883 28.9322 149.172 28.6426 149.529 28.6426C149.886 28.6426 150.176 28.9322 150.176 29.2894Z" fill="white"/>
<path id="Vector_14" opacity="0.6" d="M147.893 29.2894C147.893 29.6465 147.604 29.9362 147.246 29.9362C146.889 29.9362 146.6 29.6468 146.6 29.2894C146.6 28.9322 146.889 28.6426 147.246 28.6426C147.603 28.6426 147.893 28.9322 147.893 29.2894Z" fill="white"/>
<path id="Vector_15" opacity="0.6" d="M145.608 29.2894C145.608 29.6465 145.318 29.9362 144.961 29.9362C144.604 29.9362 144.314 29.6468 144.314 29.2894C144.314 28.9322 144.604 28.6426 144.961 28.6426C145.318 28.6426 145.608 28.9322 145.608 29.2894Z" fill="white"/>
<g id="Group_3">
<g id="Group_4">
<g id="Group_5">
<path id="Vector_16" opacity="0.4" d="M100.541 44.3312C99.6689 44.3312 98.959 43.6212 98.959 42.7487C98.959 41.876 99.6689 41.166 100.541 41.166C101.414 41.166 102.124 41.876 102.124 42.7487C102.124 43.6212 101.414 44.3312 100.541 44.3312Z" fill="black"/>
<g id="Group_6">
<path id="Vector_17" d="M100.738 42.1484V43.3482H100.461V42.3712H100.221V42.1484H100.738Z" fill="white"/>
</g>
</g>
<g id="Group_7">
<path id="Vector_18" opacity="0.4" d="M145.714 42.0202H103.608C103.44 42.0202 103.303 41.8835 103.303 41.7147V41.5223C103.303 41.3536 103.44 41.2168 103.608 41.2168H145.714C145.882 41.2168 146.019 41.3536 146.019 41.5223V41.7147C146.019 41.8835 145.882 42.0202 145.714 42.0202Z" fill="black"/>
<path id="Vector_19" opacity="0.4" d="M145.714 44.1081H103.608C103.44 44.1081 103.303 43.9714 103.303 43.8026V43.6102C103.303 43.4415 103.44 43.3047 103.608 43.3047H145.714C145.882 43.3047 146.019 43.4415 146.019 43.6102V43.8026C146.019 43.9714 145.882 44.1081 145.714 44.1081Z" fill="black"/>
<path id="Vector_20" opacity="0.4" d="M131.151 46.196H103.608C103.44 46.196 103.303 46.0593 103.303 45.8905V45.6981C103.303 45.5294 103.44 45.3926 103.608 45.3926H131.151C131.319 45.3926 131.456 45.5294 131.456 45.6981V45.8905C131.456 46.0593 131.319 46.196 131.151 46.196Z" fill="black"/>
</g>
<g id="Group_8">
<g id="Group_9">
<g id="Group_10">
<path id="Vector_21" opacity="0.2" d="M104.04 50.1312C104.445 50.1312 104.774 49.8028 104.774 49.3976C104.774 48.9925 104.445 48.6641 104.04 48.6641C103.635 48.6641 103.307 48.9925 103.307 49.3976C103.307 49.8028 103.635 50.1312 104.04 50.1312Z" fill="black"/>
<path id="Vector_22" d="M104.546 49.3971C104.546 49.6769 104.319 49.9037 104.04 49.9037C103.76 49.9037 103.533 49.6769 103.533 49.3971C103.533 49.1174 103.76 48.8906 104.04 48.8906C104.319 48.8906 104.546 49.1174 104.546 49.3971Z" fill="white"/>
</g>
<path id="Vector_23" opacity="0.4" d="M113.547 49.7937H106.434C106.266 49.7937 106.129 49.6569 106.129 49.4882V49.2958C106.129 49.127 106.266 48.9902 106.434 48.9902H113.547C113.716 48.9902 113.853 49.127 113.853 49.2958V49.4882C113.853 49.6569 113.716 49.7937 113.547 49.7937Z" fill="black"/>
</g>
<g id="Group_11">
<g id="Group_12">
<path id="Vector_24" opacity="0.2" d="M119.678 49.3742C119.678 49.7794 119.349 50.1078 118.945 50.1078C118.54 50.1078 118.211 49.7792 118.211 49.3742C118.211 48.969 118.54 48.6406 118.945 48.6406C119.349 48.6406 119.678 48.969 119.678 49.3742Z" fill="black"/>
<path id="Vector_25" d="M119.451 49.3737C119.451 49.6534 119.224 49.8802 118.944 49.8802C118.664 49.8802 118.438 49.6534 118.438 49.3737C118.438 49.094 118.664 48.8672 118.944 48.8672C119.224 48.8672 119.451 49.094 119.451 49.3737Z" fill="#407BFF"/>
</g>
<path id="Vector_26" opacity="0.4" d="M128.455 49.7781H121.343C121.174 49.7781 121.037 49.6413 121.037 49.4725V49.2801C121.037 49.1114 121.174 48.9746 121.343 48.9746H128.455C128.624 48.9746 128.761 49.1114 128.761 49.2801V49.4725C128.761 49.6413 128.624 49.7781 128.455 49.7781Z" fill="black"/>
</g>
<g id="Group_13">
<g id="Group_14">
<path id="Vector_27" opacity="0.2" d="M134.594 49.3625C134.594 49.7677 134.266 50.0961 133.861 50.0961C133.455 50.0961 133.127 49.7674 133.127 49.3625C133.127 48.9573 133.455 48.6289 133.861 48.6289C134.266 48.6286 134.594 48.9573 134.594 49.3625Z" fill="black"/>
<path id="Vector_28" d="M134.367 49.362C134.367 49.6417 134.14 49.8685 133.86 49.8685C133.58 49.8685 133.354 49.6417 133.354 49.362C133.354 49.0823 133.58 48.8555 133.86 48.8555C134.14 48.8555 134.367 49.0823 134.367 49.362Z" fill="white"/>
</g>
<path id="Vector_29" opacity="0.4" d="M143.371 49.7605H136.259C136.09 49.7605 135.953 49.6237 135.953 49.455V49.2626C135.953 49.0938 136.09 48.957 136.259 48.957H143.371C143.54 48.957 143.677 49.0938 143.677 49.2626V49.455C143.677 49.6237 143.54 49.7605 143.371 49.7605Z" fill="black"/>
</g>
</g>
</g>
<g id="Group_15">
<g id="Group_16">
<path id="Vector_30" opacity="0.4" d="M100.542 57.726C101.416 57.726 102.124 57.0174 102.124 56.1433C102.124 55.2692 101.416 54.5605 100.542 54.5605C99.6676 54.5605 98.959 55.2692 98.959 56.1433C98.959 57.0174 99.6676 57.726 100.542 57.726Z" fill="black"/>
<g id="Group_17">
<path id="Vector_31" d="M100.993 56.5274V56.7537H100.086V56.5737L100.549 56.1365C100.655 56.0354 100.674 55.9739 100.674 55.9156C100.674 55.8213 100.609 55.7664 100.482 55.7664C100.379 55.7664 100.292 55.8057 100.234 55.8866L100.031 55.7562C100.124 55.6208 100.292 55.5332 100.508 55.5332C100.775 55.5332 100.953 55.6705 100.953 55.8879C100.953 56.0048 100.921 56.1109 100.753 56.2668L100.477 56.5274H100.993Z" fill="white"/>
</g>
</g>
<g id="Group_18">
<path id="Vector_32" opacity="0.4" d="M145.714 55.4187H103.608C103.44 55.4187 103.303 55.2819 103.303 55.1132V54.9208C103.303 54.752 103.44 54.6152 103.608 54.6152H145.714C145.882 54.6152 146.019 54.752 146.019 54.9208V55.1132C146.019 55.2819 145.882 55.4187 145.714 55.4187Z" fill="black"/>
<path id="Vector_33" opacity="0.4" d="M111.612 57.5066H103.608C103.44 57.5066 103.303 57.3698 103.303 57.201V57.0086C103.303 56.8399 103.44 56.7031 103.608 56.7031H111.612C111.781 56.7031 111.917 56.8399 111.917 57.0086V57.201C111.917 57.3698 111.781 57.5066 111.612 57.5066Z" fill="black"/>
</g>
<g id="Group_19">
<g id="Group_20">
<g id="Group_21">
<path id="Vector_34" opacity="0.2" d="M104.04 61.3871C104.445 61.3871 104.774 61.0587 104.774 60.6535C104.774 60.2484 104.445 59.9199 104.04 59.9199C103.635 59.9199 103.307 60.2484 103.307 60.6535C103.307 61.0587 103.635 61.3871 104.04 61.3871Z" fill="black"/>
<path id="Vector_35" d="M104.04 61.1595C104.319 61.1595 104.546 60.9328 104.546 60.653C104.546 60.3733 104.319 60.1465 104.04 60.1465C103.76 60.1465 103.533 60.3733 103.533 60.653C103.533 60.9328 103.76 61.1595 104.04 61.1595Z" fill="white"/>
</g>
<path id="Vector_36" opacity="0.4" d="M113.553 61.0554H106.44C106.272 61.0554 106.135 60.9186 106.135 60.7499V60.5575C106.135 60.3887 106.272 60.252 106.44 60.252H113.553C113.722 60.252 113.859 60.3887 113.859 60.5575V60.7499C113.859 60.9186 113.722 61.0554 113.553 61.0554Z" fill="black"/>
</g>
<g id="Group_22">
<g id="Group_23">
<path id="Vector_37" opacity="0.2" d="M118.945 61.3793C119.35 61.3793 119.678 61.0508 119.678 60.6457C119.678 60.2405 119.35 59.9121 118.945 59.9121C118.539 59.9121 118.211 60.2405 118.211 60.6457C118.211 61.0508 118.539 61.3793 118.945 61.3793Z" fill="black"/>
<path id="Vector_38" d="M118.944 61.1517C119.224 61.1517 119.451 60.9249 119.451 60.6452C119.451 60.3654 119.224 60.1387 118.944 60.1387C118.664 60.1387 118.438 60.3654 118.438 60.6452C118.438 60.9249 118.664 61.1517 118.944 61.1517Z" fill="white"/>
</g>
<path id="Vector_39" opacity="0.4" d="M128.455 61.0456H121.343C121.174 61.0456 121.037 60.9089 121.037 60.7401V60.5477C121.037 60.379 121.174 60.2422 121.343 60.2422H128.455C128.624 60.2422 128.761 60.379 128.761 60.5477V60.7401C128.761 60.9089 128.624 61.0456 128.455 61.0456Z" fill="black"/>
</g>
<g id="Group_24">
<g id="Group_25">
<path id="Vector_40" opacity="0.2" d="M134.602 60.6183C134.602 61.0236 134.274 61.3519 133.868 61.3519C133.463 61.3519 133.135 61.0233 133.135 60.6183C133.135 60.2131 133.463 59.8848 133.868 59.8848C134.274 59.8845 134.602 60.2131 134.602 60.6183Z" fill="black"/>
<path id="Vector_41" d="M134.374 60.6179C134.374 60.8976 134.148 61.1244 133.868 61.1244C133.588 61.1244 133.361 60.8976 133.361 60.6179C133.361 60.3381 133.588 60.1113 133.868 60.1113C134.148 60.1111 134.374 60.3379 134.374 60.6179Z" fill="#407BFF"/>
</g>
<path id="Vector_42" opacity="0.4" d="M143.379 61.0261H136.266C136.098 61.0261 135.961 60.8893 135.961 60.7206V60.5282C135.961 60.3594 136.098 60.2227 136.266 60.2227H143.379C143.548 60.2227 143.685 60.3594 143.685 60.5282V60.7206C143.685 60.8893 143.548 61.0261 143.379 61.0261Z" fill="black"/>
</g>
</g>
</g>
<g id="Group_26">
<g id="Group_27">
<path id="Vector_43" opacity="0.4" d="M100.541 69.3312C99.6689 69.3312 98.959 68.6212 98.959 67.7487C98.959 66.8762 99.6689 66.166 100.541 66.166C101.414 66.166 102.124 66.876 102.124 67.7487C102.124 68.6212 101.414 69.3312 100.541 69.3312Z" fill="black"/>
<g id="Group_28">
<path id="Vector_44" d="M100.986 67.9683C100.986 68.1704 100.83 68.3555 100.489 68.3555C100.321 68.3555 100.148 68.309 100.031 68.2268L100.139 68.0143C100.23 68.0828 100.357 68.122 100.482 68.122C100.621 68.122 100.707 68.0656 100.707 67.968C100.707 67.877 100.64 67.8205 100.482 67.8205H100.355V67.637L100.602 67.3575H100.091V67.1348H100.931V67.3148L100.66 67.6233C100.876 67.6579 100.986 67.7918 100.986 67.9683Z" fill="white"/>
</g>
</g>
<g id="Group_29">
<path id="Vector_45" opacity="0.4" d="M145.714 67.0163H103.608C103.44 67.0163 103.303 66.8796 103.303 66.7108V66.5184C103.303 66.3497 103.44 66.2129 103.608 66.2129H145.714C145.882 66.2129 146.019 66.3497 146.019 66.5184V66.7108C146.019 66.8796 145.882 67.0163 145.714 67.0163Z" fill="black"/>
<path id="Vector_46" opacity="0.4" d="M145.714 69.1042H103.608C103.44 69.1042 103.303 68.9675 103.303 68.7987V68.6063C103.303 68.4376 103.44 68.3008 103.608 68.3008H145.714C145.882 68.3008 146.019 68.4376 146.019 68.6063V68.7987C146.019 68.9675 145.882 69.1042 145.714 69.1042Z" fill="black"/>
<path id="Vector_47" opacity="0.4" d="M124.702 71.1921H103.608C103.44 71.1921 103.303 71.0553 103.303 70.8866V70.6942C103.303 70.5254 103.44 70.3887 103.608 70.3887H124.702C124.87 70.3887 125.007 70.5254 125.007 70.6942V70.8866C125.007 71.0553 124.87 71.1921 124.702 71.1921Z" fill="black"/>
</g>
<g id="Group_30">
<g id="Group_31">
<path id="Vector_48" opacity="0.4" d="M119.568 75.1786H118.314C118.255 75.1786 118.207 75.1308 118.207 75.0714V73.8181C118.207 73.759 118.255 73.7109 118.314 73.7109H119.568C119.627 73.7109 119.675 73.7588 119.675 73.8181V75.0714C119.675 75.1305 119.627 75.1786 119.568 75.1786Z" fill="black"/>
<path id="Vector_49" d="M119.502 74.9991V73.8848H118.388V74.9991H119.502Z" fill="white"/>
<path id="Vector_50" opacity="0.4" d="M128.45 74.8464H121.337C121.168 74.8464 121.031 74.7096 121.031 74.5409V74.3485C121.031 74.1797 121.168 74.043 121.337 74.043H128.45C128.618 74.043 128.755 74.1797 128.755 74.3485V74.5409C128.755 74.7094 128.618 74.8464 128.45 74.8464Z" fill="black"/>
<path id="Vector_51" d="M118.6 74.4445L118.879 74.699L119.316 74.1836" stroke="#407BFF" stroke-width="0.250666" stroke-miterlimit="10" stroke-linecap="round" stroke-linejoin="round"/>
</g>
<g id="Group_32">
<path id="Vector_52" opacity="0.4" d="M134.483 75.1591H133.23C133.171 75.1591 133.123 75.1113 133.123 75.0519V73.7986C133.123 73.7395 133.171 73.6914 133.23 73.6914H134.483C134.542 73.6914 134.59 73.7392 134.59 73.7986V75.0519C134.59 75.1113 134.543 75.1591 134.483 75.1591Z" fill="black"/>
<path id="Vector_53" d="M134.418 74.9796V73.8652H133.304V74.9796H134.418Z" fill="white"/>
<path id="Vector_54" opacity="0.4" d="M143.366 74.8269H136.253C136.084 74.8269 135.947 74.6901 135.947 74.5214V74.329C135.947 74.1602 136.084 74.0234 136.253 74.0234H143.366C143.534 74.0234 143.671 74.1602 143.671 74.329V74.5214C143.671 74.6901 143.534 74.8269 143.366 74.8269Z" fill="black"/>
<path id="Vector_55" d="M133.516 74.425L133.795 74.6795L134.232 74.1641" stroke="#407BFF" stroke-width="0.250666" stroke-miterlimit="10" stroke-linecap="round" stroke-linejoin="round"/>
</g>
<g id="Group_33">
<path id="Vector_56" opacity="0.4" d="M104.663 75.1982H103.41C103.351 75.1982 103.303 75.1503 103.303 75.091V73.8377C103.303 73.7786 103.351 73.7305 103.41 73.7305H104.663C104.722 73.7305 104.77 73.7783 104.77 73.8377V75.091C104.77 75.1503 104.722 75.1982 104.663 75.1982Z" fill="black"/>
<path id="Vector_57" d="M104.598 75.0186V73.9043H103.484V75.0186H104.598Z" fill="white"/>
<path id="Vector_58" opacity="0.4" d="M113.545 74.8679H106.432C106.264 74.8679 106.127 74.7311 106.127 74.5624V74.37C106.127 74.2012 106.264 74.0645 106.432 74.0645H113.545C113.714 74.0645 113.851 74.2012 113.851 74.37V74.5624C113.851 74.7311 113.714 74.8679 113.545 74.8679Z" fill="black"/>
</g>
</g>
</g>
</g>
<g id="Group_34">
<path id="Vector_59" d="M144.982 37.0368C145.814 36.2042 145.814 34.8544 144.982 34.0218C144.149 33.1892 142.799 33.1892 141.966 34.0218C141.134 34.8544 141.134 36.2042 141.966 37.0368C142.799 37.8694 144.149 37.8694 144.982 37.0368Z" fill="white"/>
<path id="Vector_60" opacity="0.2" d="M145.361 34.5331L143.475 35.5274V33.3965C144.291 33.3965 145.004 33.856 145.361 34.5331Z" fill="black"/>
</g>
</g>
</g>
<g id="Group_35">
<g id="Group_36">
<path id="Vector_61" d="M63.034 95.7462C62.5929 97.0214 63.3129 98.0578 64.6443 98.0578H106.842C108.18 98.0578 109.621 97.0214 110.061 95.7462L118.999 69.9951C119.092 69.7296 119.135 69.4774 119.133 69.2439C119.121 68.3377 118.449 67.6836 117.39 67.6836H75.1922C73.8538 67.6836 72.4138 68.72 71.9727 69.9951L63.034 95.7462Z" fill="#263238"/>
<path id="Vector_62" d="M107.159 96.7622C107.799 96.7622 108.52 96.2427 108.732 95.6279L117.671 69.8759C117.712 69.7573 117.731 69.6531 117.73 69.5595C117.726 69.2004 117.469 68.9785 117.06 68.9785H74.863C74.2232 68.9785 73.5023 69.498 73.2902 70.1129L64.3524 95.8649C64.2651 96.1188 64.2811 96.3505 64.3979 96.5163C64.4772 96.6286 64.6402 96.7622 64.9628 96.7622H107.159Z" fill="#407BFF"/>
<path id="Vector_63" opacity="0.8" d="M107.159 96.7622C107.799 96.7622 108.52 96.2427 108.732 95.6279L117.671 69.8759C117.712 69.7573 117.731 69.6531 117.73 69.5595C117.726 69.2004 117.469 68.9785 117.06 68.9785H74.863C74.2232 68.9785 73.5023 69.498 73.2902 70.1129L64.3524 95.8649C64.2651 96.1188 64.2811 96.3505 64.3979 96.5163C64.4772 96.6286 64.6402 96.7622 64.9628 96.7622H107.159Z" fill="white"/>
<path id="Vector_64" d="M44.9688 96.1493V97.3407L53.3309 99.4821H106.644C107.466 99.4821 108.129 98.8191 108.129 97.9966V96.1484H44.9688V96.1493Z" fill="#263238"/>
<path id="Vector_65" opacity="0.2" d="M89.5818 96.1484V97.3407L97.9439 99.4821H53.3309L44.9688 97.3407V96.1484H89.5818Z" fill="white"/>
<g id="Group_37">
<g id="Group_38" opacity="0.2">
<path id="Vector_66" d="M114.991 75.0342H72.332L73.993 70.3809H116.652L114.991 75.0342Z" fill="#407BFF"/>
</g>
<g id="Group_39" opacity="0.1">
<path id="Vector_67" d="M112.855 81.0255H70.1958C70.0728 81.0255 70.0104 80.9204 70.0559 80.7921C70.1013 80.6637 70.2385 80.5586 70.3615 80.5586H113.02C113.143 80.5586 113.206 80.6637 113.16 80.7921C113.115 80.9204 112.978 81.0255 112.855 81.0255Z" fill="black"/>
</g>
<g id="Group_40" opacity="0.1">
<path id="Vector_68" d="M110.519 87.549H67.8598C67.7368 87.549 67.6745 87.4447 67.7199 87.3155C67.7654 87.1872 67.9026 87.082 68.0256 87.082H110.684C110.807 87.082 110.87 87.1863 110.824 87.3155C110.779 87.4438 110.642 87.549 110.519 87.549Z" fill="black"/>
</g>
<g id="Group_41" opacity="0.1">
<path id="Vector_69" d="M108.189 94.0743H65.5298C65.4068 94.0743 65.3444 93.9692 65.3898 93.8409C65.4362 93.7126 65.5725 93.6074 65.6955 93.6074H108.354C108.477 93.6074 108.54 93.7126 108.494 93.8409C108.449 93.9692 108.312 94.0743 108.189 94.0743Z" fill="black"/>
</g>
</g>
</g>
<g id="Group_42">
<g id="Group_43">
<path id="Vector_70" opacity="0.2" d="M100.504 110.204H106.594L107.004 104.895H100.837L100.504 110.204Z" fill="black"/>
</g>
<g id="Group_44">
<path id="Vector_71" opacity="0.2" d="M17.0742 110.204H23.1649L23.5748 104.895H17.4084L17.0742 110.204Z" fill="black"/>
</g>
<g id="Group_45">
<path id="Vector_72" opacity="0.2" d="M144.989 104.895H138.822L139.231 110.204H145.322L144.989 104.895Z" fill="black"/>
</g>
<g id="Group_46">
<path id="Vector_73" d="M14.4422 107.617H147.934C148.998 107.617 149.86 106.754 149.86 105.69V101.795H12.5156V105.69C12.5156 106.754 13.3782 107.617 14.4422 107.617Z" fill="#407BFF"/>
</g>
<path id="Vector_74" opacity="0.2" d="M12.5204 104.705L149.865 104.705V101.794L12.5204 101.794V104.705Z" fill="black"/>
<g id="Group_47">
<path id="Vector_75" d="M9.63963 102.553H152.745C153.65 102.553 154.384 101.818 154.384 100.913C154.384 100.008 153.65 99.2734 152.745 99.2734H9.63963C8.73427 99.2734 8 100.008 8 100.913C8 101.818 8.73338 102.553 9.63963 102.553Z" fill="#407BFF"/>
</g>
</g>
<g id="Group_48">
<path id="Vector_76" d="M148.173 95.1475C148.173 97.8627 147.415 99.2733 147.415 99.2733H114.809V98.4998H115.469V91.7872H114.809V91.0137H147.415C147.415 91.0137 148.173 92.4697 148.173 95.1475Z" fill="#263238"/>
<path id="Vector_77" opacity="0.2" d="M148.173 95.1475C148.173 97.8627 147.415 99.2733 147.415 99.2733H114.809V98.4998H115.469V91.7872H114.809V91.0137H147.415C147.415 91.0137 148.173 92.4697 148.173 95.1475Z" fill="white"/>
<path id="Vector_78" opacity="0.2" d="M130.729 95.1475C130.729 97.8627 129.971 99.2733 129.971 99.2733H114.809V98.4998H115.469V91.7872H114.809V91.0137H129.971C129.971 91.0137 130.729 92.4697 130.729 95.1475Z" fill="black"/>
<path id="Vector_79" opacity="0.8" d="M129.119 95.1435C129.119 97.3508 128.505 98.4959 128.505 98.4959H115.467V91.7832H128.505C128.505 91.7832 129.119 92.9666 129.119 95.1435Z" fill="white"/>
<path id="Vector_80" opacity="0.6" d="M142.867 95.1475C142.867 97.8627 142.109 99.2733 142.109 99.2733H136.041C136.041 99.2733 136.799 97.8627 136.799 95.1475C136.799 92.4697 136.041 91.0137 136.041 91.0137H142.109C142.109 91.0137 142.867 92.4697 142.867 95.1475Z" fill="white"/>
</g>
<g id="Group_49">
<path id="Vector_81" d="M151.076 86.8897C151.076 89.6049 150.317 91.0155 150.317 91.0155H117.711V90.242H118.371V83.5293H117.711V82.7559H150.317C150.317 82.7559 151.076 84.2119 151.076 86.8897Z" fill="#407BFF"/>
<path id="Vector_82" opacity="0.2" d="M133.631 86.8897C133.631 89.6049 132.873 91.0155 132.873 91.0155H117.711V90.242H118.371V83.5293H117.711V82.7559H132.873C132.873 82.7559 133.631 84.2119 133.631 86.8897Z" fill="black"/>
<path id="Vector_83" opacity="0.8" d="M132.027 86.8877C132.027 89.095 131.413 90.24 131.413 90.24H118.375V83.5273H131.413C131.413 83.5273 132.027 84.7107 132.027 86.8877Z" fill="white"/>
<path id="Vector_84" opacity="0.2" d="M145.769 86.8897C145.769 89.6049 145.011 91.0155 145.011 91.0155H138.943C138.943 91.0155 139.702 89.6049 139.702 86.8897C139.702 84.2119 138.943 82.7559 138.943 82.7559H145.011C145.011 82.7559 145.769 84.2119 145.769 86.8897Z" fill="black"/>
</g>
</g>
<g id="Character">
<g id="_x3C_Group_x3E__155_">
<g id="Group_50">
<path id="Vector_85" d="M66.6464 47.4259C66.3434 47.9561 66.3809 48.5478 66.7284 48.7438C67.075 48.9399 67.5937 48.6734 67.8966 48.1441C68.1996 47.6148 68.1684 47.0276 67.8271 46.8253C67.4849 46.623 66.9806 46.9251 66.6464 47.4259Z" fill="#263238"/>
<path id="Vector_86" d="M66.0865 44.5864C66.0125 44.5552 65.951 44.5 65.9127 44.4305C65.8343 44.2487 65.9154 44.0375 66.0954 43.9555C67.1469 43.4734 68.3686 43.534 69.3666 44.1204C69.5297 44.2202 69.5805 44.4331 69.4807 44.5962C69.4762 44.6033 69.4718 44.6105 69.4664 44.6176C69.3524 44.7762 69.1358 44.8199 68.9701 44.7174C68.1761 44.2683 67.2146 44.2309 66.3877 44.6149C66.2879 44.6479 66.1783 44.6381 66.0865 44.5864Z" fill="#263238"/>
<path id="Vector_87" d="M67.1453 46.752C66.8512 48.7338 66.8316 50.7477 67.0873 52.7348C65.6295 53.0627 64.2812 51.7564 64.2812 51.7564L67.1453 46.752Z" fill="#DE5753"/>
<path id="Vector_88" d="M63.9573 54.1964C63.7479 54.4584 63.5323 54.7097 63.3042 54.9405C61.9488 56.3449 60.2441 57.236 58.4673 57.596C58.0012 57.694 57.5271 57.7537 57.054 57.7795C54.5553 57.907 52.0602 57.0132 50.3137 55.0831C49.5936 54.3042 48.9939 53.3365 48.5805 52.1977C46.9203 47.7279 48.6125 44.2018 50.9971 38.0131C51.4908 36.672 52.2839 35.4636 53.33 34.4968C56.9862 31.0723 62.7285 31.2701 66.1441 34.9236C70.9694 40.0136 67.7214 49.3559 63.9573 54.1964Z" fill="#E4897B"/>
<path id="Vector_89" opacity="0.2" d="M58.4681 57.5986C58.002 57.6966 57.5279 57.7564 57.0548 57.7822C54.5561 57.9096 52.061 57.0158 50.3145 55.0857C51.2662 54.1117 52.3186 53.5254 52.3186 53.5254C52.3186 53.5254 56.1744 54.601 58.4681 57.5986Z" fill="black"/>
<path id="Vector_90" d="M38.3887 57.8288C38.9982 62.1934 48.5348 63.8223 48.5348 63.8223C48.5348 63.8223 53.2407 65.9654 53.4332 64.0977C51.4861 61.8441 51.2705 59.881 51.9424 58.1567C52.3344 57.1533 53.0313 56.2373 53.8609 55.388C54.2913 54.938 54.7663 54.513 55.2492 54.1066L52.3398 42.1641C50.2439 46.7007 43.083 57.1827 38.3887 57.8288Z" fill="#E4897B"/>
<path id="Vector_91" d="M65.6002 31.5473C65.6002 31.5473 67.6364 31.2943 69.1985 35.093C70.5146 38.2939 67.4171 38.9863 67.5508 42.3903C67.6845 45.7943 64.5772 47.6807 64.5772 47.6807C64.5772 47.6807 61.9627 49.9343 59.7403 48.7118C59.7403 48.7118 56.8326 50.1375 56.0672 52.6264C55.3017 55.1152 50.8034 50.6196 46.7498 51.3013C46.7498 51.3013 44.0088 48.7385 44.2119 42.5159C44.3456 38.4097 46.1643 34.7143 46.1643 34.7143C46.1643 34.7143 47.3468 31.0082 51.9806 28.9382C56.6152 26.8673 64.7269 28.4409 65.6002 31.5473Z" fill="#263238"/>
<path id="Vector_92" d="M59.1825 46.8799C58.9499 48.3556 59.2359 49.6459 59.9782 50.4684C60.9718 51.5458 62.5606 50.1788 63.204 48.2852C63.7627 46.6019 63.9534 43.9625 62.5036 43.6666C61.0529 43.3708 59.4881 45.0639 59.1825 46.8799Z" fill="#E4897B"/>
</g>
<path id="Vector_93" d="M52.3393 59.416C52.3393 59.416 48.4487 55.7224 43.0139 55.0755C37.579 54.4285 35.8066 59.416 35.8066 59.416L51.7975 62.6543L52.3393 59.416Z" fill="#407BFF"/>
<path id="Vector_94" d="M49.625 93.1562L56.1345 94.1319C56.1345 94.1319 58.3453 93.4021 60.6791 93.1562C63.0129 92.9102 65.7148 93.1562 65.7148 93.1562C65.7148 93.1562 68.6625 94.2621 68.6625 97.0868C68.6625 97.0868 61.785 98.9288 59.1438 97.8238L49.625 97.0868V93.1562Z" fill="#E4897B"/>
<path id="Vector_95" opacity="0.2" d="M49.625 93.1562L56.1345 94.1319C56.1345 94.1319 58.3453 93.4021 60.6791 93.1562C63.0129 92.9102 65.7148 93.1562 65.7148 93.1562C65.7148 93.1562 68.6625 94.2621 68.6625 97.0868C68.6625 97.0868 61.785 98.9288 59.1438 97.8238L49.625 97.0868V93.1562Z" fill="black"/>
<g id="Group_51">
<path id="Vector_96" d="M59.8634 60.9092C58.5264 64.5949 57.3298 68.1513 56.2736 71.5589C55.6002 73.6702 54.984 75.7355 54.4134 77.7263C53.9368 79.4026 53.4977 81.0231 53.0863 82.5975C52.8904 83.3568 52.6937 84.1073 52.5068 84.848C51.4783 88.9315 50.6466 92.6545 49.992 95.9327C48.0289 105.693 47.5711 111.555 47.5711 111.555H10.8828C12.1545 105.314 13.1445 95.3125 14.528 89.4321C15.2945 86.2097 16.1637 82.8571 17.2861 79.1811C18.0713 76.5417 18.9871 73.7358 20.0719 70.6888C23.7546 60.2243 27.1477 57.3262 27.1477 57.3262C41.2617 55.0837 59.8634 60.9092 59.8634 60.9092Z" fill="#407BFF"/>
</g>
<path id="Vector_97" d="M72.3652 93.8378L78.8747 94.8136C78.8747 94.8136 81.0856 94.0838 83.4194 93.8378C85.7532 93.5919 88.455 93.8378 88.455 93.8378C88.455 93.8378 91.4028 94.9428 91.4028 97.7685C91.4028 97.7685 84.5243 99.6104 81.884 98.5054L72.3652 97.7685V93.8378Z" fill="#E4897B"/>
<path id="Vector_98" opacity="0.2" d="M56.636 72.1414C55.965 74.2649 55.351 76.342 54.7825 78.3443C54.3075 80.0303 53.87 81.6602 53.4601 83.2436C52.3141 77.0032 54.3913 69.5527 54.3913 69.5527L56.636 72.1414Z" fill="black"/>
<path id="Vector_99" d="M59.1042 63.5703C62.0778 64.1727 63.6203 84.841 64.2815 87.5766C64.859 89.9675 78.8707 94.8124 78.8707 94.8124V98.179C78.8707 98.179 63.369 97.0945 59.7503 95.6144C56.1315 94.1343 53.9082 73.7022 53.9082 73.7022L59.1042 63.5703Z" fill="#E4897B"/>
<g id="Group_52" opacity="0.2">
<path id="Vector_100" d="M60.211 61.4308C58.8788 65.1378 57.6865 68.7147 56.6341 72.1419C55.9631 74.2654 55.3491 76.3426 54.7806 78.3449C54.3056 80.0308 53.8681 81.6607 53.4582 83.2442C53.2631 84.0078 53.067 84.7626 52.8808 85.5076C51.856 89.6147 51.0273 93.3591 50.375 96.6561C48.419 106.473 47.9628 112.369 47.9628 112.369H10.8828C12.15 106.091 13.6598 96.0324 15.0383 90.1181C15.802 86.8772 16.6681 83.5052 17.7865 79.8081C18.5688 77.1535 19.4813 74.3313 20.5622 71.2668C24.2318 60.742 27.6126 57.8272 27.6126 57.8272C41.676 55.5718 60.211 61.4308 60.211 61.4308Z" fill="white"/>
</g>
<path id="Vector_101" d="M60.2054 61.4258C62.9331 62.2732 64.284 80.1211 64.284 80.1211L54.391 81.489L52.3379 74.1695C52.3379 74.1695 53.1559 70.7138 54.3357 67.0781C56.0395 61.8277 60.2054 61.4258 60.2054 61.4258Z" fill="#407BFF"/>
</g>
</g>
</g>
</g>
</svg>
