<svg width="161" height="112" viewBox="0 0 161 112" fill="none" xmlns="http://www.w3.org/2000/svg">
<g id="Group 1925">
<path id="Vector" d="M160.283 85.652C160.283 94.1053 157.818 101.984 153.561 108.602C152.81 109.777 151.999 110.91 151.135 112H4.70854C4.1443 110.896 3.62575 109.76 3.15659 108.602C1.12149 103.592 0 98.1132 0 92.3729C0 89.0811 0.370386 85.874 1.06878 82.7908C1.09347 82.6743 1.12185 82.5578 1.14986 82.4416C2.59603 76.2885 5.36087 70.64 9.12777 65.817C9.20185 61.4597 9.6957 57.2015 10.5666 53.0842C10.5913 52.9607 10.616 52.8372 10.6407 52.7173C11.9597 46.6383 14.1039 40.87 16.9502 35.5283C17.0135 35.4118 17.0773 35.2953 17.137 35.1792C21.2459 27.5727 26.783 20.8551 33.3891 15.3866C33.4912 15.2985 33.5904 15.2174 33.6925 15.1326C35.2761 13.8341 36.9231 12.6101 38.6232 11.4598C38.7397 11.3787 38.8561 11.3009 38.9759 11.2198C40.8098 9.99915 42.7038 8.86328 44.6611 7.82214C44.8446 7.72334 45.0278 7.62453 45.215 7.52573H45.2183C48.5902 5.77232 52.1275 4.29394 55.8096 3.12598C55.8133 3.12598 55.8133 3.12598 55.8166 3.12598C56.0742 3.04118 56.3352 2.96376 56.5961 2.88266C62.7648 1.00906 69.3106 0 76.0892 0C80.5788 0 84.9594 0.440934 89.2021 1.28409C89.2021 1.28409 89.2021 1.28409 89.2058 1.28409C89.4914 1.3405 89.777 1.40059 90.0593 1.46068C107.211 5.1017 121.935 15.3084 131.476 29.3328C131.557 29.4493 131.638 29.5658 131.716 29.6856C135.828 35.8033 138.953 42.6408 140.871 49.9615C145.174 52.7487 148.941 56.2979 151.978 60.4119C152.062 60.5214 152.143 60.6305 152.221 60.7437C154.488 63.866 156.333 67.3061 157.684 70.9858C157.727 71.0987 157.769 71.2118 157.808 71.321C159.409 75.8018 160.283 80.6244 160.283 85.652Z" fill="#EFF4FF"/>
<g id="Background_Complete">
<g id="Group">
<g id="Group_2">
<g id="Group_3">
<g id="Group_4">
<g id="Group_5">
<g id="Group_6">
<g id="Group_7">
<g id="Group_8">
<path id="Vector_2" d="M5.97656 102.357V111.386H19.1793H33.7415V102.357H5.97656Z" fill="#BAD0FF"/>
</g>
</g>
</g>
</g>
</g>
</g>
<g id="Group_9">
<g id="Group_10">
<g id="Group_11">
<g id="Group_12">
<g id="Group_13">
<g id="Group_14">
<path id="Vector_3" d="M4.8125 99.8359V102.36H34.7132V99.8359H19.1802H4.8125Z" fill="#407BFF"/>
</g>
</g>
</g>
</g>
</g>
</g>
<g id="Group_15">
<g id="Group_16">
<g id="Group_17">
<g id="Group_18">
<g id="Group_19">
<g id="Group_20">
<path id="Vector_4" d="M19.7661 111.388H33.7458V102.36H34.7165V99.8359H19.1836V102.126L19.7661 111.388Z" fill="#407BFF"/>
</g>
</g>
</g>
</g>
</g>
</g>
<g id="Group_21">
<g id="Group_22">
<g id="Group_23">
<g id="Group_24">
<g id="Group_25">
<g id="Group_26">
<path id="Vector_5" d="M15.492 103.818H9.86133V105.177H15.492V103.818Z" fill="#407BFF"/>
</g>
</g>
</g>
</g>
</g>
</g>
<g id="Group_27">
<g id="Group_28">
<g id="Group_29">
<g id="Group_30">
<g id="Group_31">
<g id="Group_32">
<path id="Vector_6" d="M16.3688 106.875H9.13867V109.745H16.3688V106.875Z" fill="white"/>
</g>
</g>
</g>
</g>
</g>
</g>
</g>
</g>
<g id="Group_33">
<g id="Group_34">
<g id="Group_35">
<g id="Group_36">
<g id="Group_37">
<g id="Group_38">
<g id="Group_39">
<g id="Group_40">
<path id="Vector_7" d="M10.2578 90.8086V99.8369H23.4606H38.0226V90.8086H10.2578Z" fill="#BAD0FF"/>
</g>
</g>
</g>
</g>
</g>
</g>
<g id="Group_41">
<g id="Group_42">
<g id="Group_43">
<g id="Group_44">
<g id="Group_45">
<g id="Group_46">
<path id="Vector_8" d="M9.08203 88.2852V90.8093H38.9827V88.2852H23.4498H9.08203Z" fill="#407BFF"/>
</g>
</g>
</g>
</g>
</g>
</g>
<g id="Group_47">
<g id="Group_48">
<g id="Group_49">
<g id="Group_50">
<g id="Group_51">
<g id="Group_52">
<path id="Vector_9" d="M24.0356 99.8377H38.0151V90.8093H38.9861V88.2852H23.4531V90.5756L24.0356 99.8377Z" fill="#407BFF"/>
</g>
</g>
</g>
</g>
</g>
</g>
<g id="Group_53">
<g id="Group_54">
<g id="Group_55">
<g id="Group_56">
<g id="Group_57">
<g id="Group_58">
<path id="Vector_10" d="M19.7615 92.2695H14.1309V93.6285H19.7615V92.2695Z" fill="#407BFF"/>
</g>
</g>
</g>
</g>
</g>
</g>
<g id="Group_59">
<g id="Group_60">
<g id="Group_61">
<g id="Group_62">
<g id="Group_63">
<g id="Group_64">
<path id="Vector_11" d="M20.6362 95.332H13.4062V98.2019H20.6362V95.332Z" fill="white"/>
</g>
</g>
</g>
</g>
</g>
</g>
</g>
</g>
<g id="Group_65">
<g id="Group_66">
<g id="Group_67">
<path id="Vector_12" d="M27.3262 22.0469H6.76953V51.8426H27.3262V22.0469Z" fill="#BAD0FF"/>
</g>
</g>
<g id="Group_68">
<g id="Group_69">
<path id="Vector_13" d="M26.2927 22.0469H5.73633V51.8426H26.2927V22.0469Z" fill="#BAD0FF"/>
</g>
</g>
<g id="Group_70">
<g id="Group_71">
<g id="Group_72">
<path id="Vector_14" d="M23.7395 25.2773H8.29102V48.619H23.7395V25.2773Z" fill="white"/>
</g>
</g>
<g id="Group_73">
<g id="Group_74">
<g id="Group_75">
<path id="Vector_15" d="M23.7428 48.6225C23.7428 48.6225 23.7408 48.583 23.7397 48.5083C23.739 48.4311 23.7379 48.3213 23.7366 48.1773C23.7353 47.8841 23.7331 47.4546 23.7304 46.8971C23.7271 45.7784 23.7225 44.1482 23.7166 42.0888C23.7104 37.9728 23.7016 32.1444 23.6912 25.2808L23.7423 25.3322C19.0225 25.3335 13.7926 25.3353 8.2956 25.3368H8.29384L8.34962 25.2808C8.34543 34.0863 8.34146 42.205 8.33838 48.6225L8.29384 48.5779C12.9985 48.5876 16.8548 48.5958 19.5384 48.6013C20.8806 48.6062 21.929 48.6101 22.6451 48.6125C23.0009 48.6148 23.2736 48.6163 23.4606 48.6176C23.6456 48.6194 23.7428 48.6225 23.7428 48.6225C23.7428 48.6225 23.652 48.6258 23.4703 48.6273C23.2853 48.6284 23.0154 48.6302 22.6631 48.6324C21.9495 48.635 20.9044 48.6388 19.5666 48.6436C16.8764 48.6491 13.0106 48.6573 8.29428 48.667H8.24975V48.6222C8.24666 42.2047 8.24269 34.0861 8.23828 25.2806V25.2246H8.29428H8.29605C13.7929 25.2262 19.0229 25.2279 23.7428 25.2292H23.7942V25.2806C23.7838 32.158 23.7752 37.9981 23.769 42.1223C23.7631 44.1766 23.7584 45.8028 23.7551 46.9189C23.7525 47.472 23.7503 47.898 23.749 48.1888C23.7476 48.3301 23.7465 48.4384 23.7459 48.514C23.7448 48.587 23.7428 48.6225 23.7428 48.6225Z" fill="#BAD0FF"/>
</g>
</g>
</g>
</g>
<g id="Group_76">
<g id="Group_77">
<g id="Group_78">
<path id="Vector_16" d="M26.3527 22.0511C26.3646 22.0604 26.2251 22.2641 25.9863 22.5836C25.7475 22.9028 25.4084 23.3374 25.0217 23.807C24.6348 24.2768 24.2732 24.6926 24.0056 24.9883C23.7379 25.2839 23.5649 25.4599 23.5534 25.4499C23.5415 25.4396 23.6936 25.2453 23.9458 24.9369C24.2214 24.6024 24.5605 24.191 24.9355 23.7362C25.3101 23.2812 25.649 22.8695 25.9243 22.5349C26.1788 22.228 26.3404 22.0414 26.3527 22.0511Z" fill="#BAD0FF"/>
</g>
</g>
</g>
<g id="Group_79">
<g id="Group_80">
<g id="Group_81">
<path id="Vector_17" d="M23.8223 48.5449C24.5895 49.765 25.4954 50.8978 26.5167 51.9148L23.8223 48.5449Z" fill="white"/>
</g>
</g>
<g id="Group_82">
<g id="Group_83">
<g id="Group_84">
<path id="Vector_18" d="M26.5197 51.9132C26.5096 51.9235 26.3262 51.7644 26.0499 51.4859C25.7737 51.2077 25.4077 50.8071 25.0335 50.3394C24.6596 49.8714 24.3494 49.4262 24.1386 49.0955C23.9279 48.7648 23.8128 48.551 23.8251 48.5433C23.839 48.5344 23.9775 48.7333 24.2041 49.0512C24.4308 49.3694 24.7491 49.8044 25.1208 50.2696C25.4928 50.7343 25.8471 51.1406 26.1075 51.4317C26.3678 51.7227 26.5312 51.9015 26.5197 51.9132Z" fill="#BAD0FF"/>
</g>
</g>
</g>
</g>
<g id="Group_85">
<g id="Group_86">
<g id="Group_87">
<path id="Vector_19" d="M5.73438 51.8182C6.63192 50.7107 7.52946 49.6035 8.427 48.4961L5.73438 51.8182Z" fill="white"/>
</g>
</g>
<g id="Group_88">
<g id="Group_89">
<g id="Group_90">
<path id="Vector_20" d="M8.42772 48.4945C8.45175 48.5139 7.86838 49.2735 7.12495 50.1906C6.3813 51.1082 5.75912 51.836 5.73509 51.8166C5.71106 51.7972 6.29443 51.0379 7.03808 50.1203C7.78152 49.2031 8.40391 48.4751 8.42772 48.4945Z" fill="#BAD0FF"/>
</g>
</g>
</g>
</g>
<g id="Group_91">
<g id="Group_92">
<g id="Group_93">
<path id="Vector_21" d="M5.73906 22.0512C5.76331 22.032 6.34844 22.7315 7.04602 23.6134C7.74381 24.4955 8.28948 25.2262 8.26523 25.2454C8.24098 25.2646 7.65585 24.565 6.95827 23.6829C6.2607 22.8008 5.71481 22.0703 5.73906 22.0512Z" fill="#BAD0FF"/>
</g>
</g>
</g>
<g id="Group_94">
<g id="Group_95">
<path id="Vector_22" d="M18.9286 30.0117H13.7559V44.6987H18.9286V30.0117Z" fill="#BAD0FF"/>
</g>
</g>
</g>
<g id="Group_96">
<g id="Group_97">
<g id="Group_98">
<g id="Group_99">
<g id="Group_100">
<path id="Vector_23" d="M138.235 108.225C137.749 107.808 136.664 106.487 137.501 104.951C137.807 104.387 138.458 104.109 139.048 103.86C139.637 103.612 140.257 103.397 140.745 102.982C141.664 102.199 141.918 100.899 142.529 99.8549C143.23 98.6564 144.538 97.7586 145.921 97.8215C147.504 97.8933 148.824 99.1864 149.422 100.66C150.021 102.135 150.041 103.771 150.054 105.363C150.061 106.244 150.022 107.236 149.375 107.83C148.779 108.378 147.882 108.385 147.075 108.36C144.191 108.272 141.308 108.183 138.424 108.095" fill="#BAD0FF"/>
</g>
</g>
</g>
</g>
<g id="Group_101">
<g id="Group_102">
<g id="Group_103">
<g id="Group_104">
<g id="Group_105">
<path id="Vector_24" d="M154.783 84.4434H132.033L136.131 108.879C136.311 109.946 137.083 110.769 138.074 111.054C138.1 111.063 138.127 111.069 138.153 111.076C138.221 111.093 138.286 111.116 138.356 111.128C138.506 111.16 138.661 111.175 138.819 111.182C138.82 111.189 138.821 111.197 138.822 111.205L138.933 111.187C138.934 111.187 138.934 111.187 138.934 111.187H149.073C149.264 111.187 149.45 111.168 149.63 111.132C150.828 110.947 151.786 109.986 151.932 108.743L153.907 91.9068L153.996 91.2374H153.986L154.768 84.5697L154.783 84.4434ZM150.491 100.03H148.157L148.392 92.9384H151.097L150.491 100.03ZM151.324 92.9384H153.559L152.727 100.03H150.718L151.324 92.9384ZM144.654 107.892L144.512 101.731H147.874L147.669 107.892H144.654ZM141.019 101.731H144.286L144.428 107.892H141.498L141.019 101.731ZM141.272 107.892H138.533C138.272 106.228 137.934 104.067 137.567 101.731H140.793L141.272 107.892ZM140.887 100.03L140.336 92.9384H144.083L144.247 100.03H140.887ZM144.473 100.03L144.31 92.9384H148.166L147.931 100.03H144.473ZM144.27 91.2377L144.119 84.67H148.441L148.223 91.2377H144.27ZM144.045 91.2377H140.204L139.694 84.67H143.893L144.045 91.2377ZM139.977 91.2377H135.914C135.77 90.3306 135.634 89.4719 135.51 88.6996C135.087 86.0442 134.927 85.0459 134.839 84.6702H139.467L139.977 91.2377ZM140.11 92.9384L140.661 100.03H137.3C137.187 99.3105 137.073 98.5827 136.958 97.8543C136.695 96.1802 136.431 94.5066 136.183 92.9384H140.11ZM137.072 100.03H134.876L133.687 92.9384H135.954C136.301 95.1301 136.685 97.5694 137.072 100.03ZM137.339 101.731C137.673 103.863 138.003 105.965 138.304 107.892H136.195L135.161 101.731H137.339ZM147.896 107.892L148.1 101.731H150.346L149.82 107.892H147.896ZM148.449 91.2377L148.667 84.67H151.804L151.243 91.2377H148.449ZM134.624 84.67C134.714 85.1449 135.129 87.7291 135.685 91.2377H133.402L132.3 84.67H134.624ZM151.805 107.892H150.046L150.573 101.731H152.527L151.805 107.892ZM153.759 91.2377H151.469L152.03 84.67H154.529L153.759 91.2377Z" fill="#407BFF"/>
</g>
</g>
</g>
</g>
</g>
</g>
<g id="Group_106">
<g id="Group_107">
<g id="Group_108">
<path id="Vector_25" d="M155.289 23.6426V43.6498H126.553L125.518 23.7824L155.289 23.6426Z" fill="#E0E0E0"/>
</g>
</g>
<g id="Group_109">
<g id="Group_110">
<path id="Vector_26" d="M125.52 23.7823V43.6074H154.255V23.7823H125.52Z" fill="white"/>
</g>
<g id="Group_111">
<path id="Vector_27" d="M154.391 43.7443H125.383V23.6465H154.391V43.7443ZM125.656 43.4716H154.119V23.919H125.656V43.4716Z" fill="#BAD0FF"/>
</g>
</g>
<g id="Group_112">
<g id="Group_113">
<g id="Group_114">
<path id="Vector_28" d="M151.142 26.248H128.631V41.1469H151.142V26.248Z" fill="white"/>
</g>
</g>
<g id="Group_115">
<g id="Group_116">
<g id="Group_117">
<path id="Vector_29" d="M151.144 26.2467C151.144 26.2467 151.106 26.2493 151.033 26.2504C150.957 26.2513 150.851 26.2526 150.713 26.2542C150.428 26.2559 150.014 26.2586 149.477 26.2621C148.396 26.2661 146.824 26.272 144.838 26.2795C140.868 26.2875 135.249 26.2985 128.633 26.3115L128.698 26.2465C128.7 30.7986 128.702 35.8423 128.704 41.1436V41.1453L128.633 41.0743C137.125 41.0798 144.954 41.0847 151.144 41.0887L151.088 41.1451C151.1 36.6111 151.111 32.8937 151.118 30.3049C151.124 29.011 151.129 28.0001 151.132 27.3074C151.135 26.965 151.137 26.7022 151.138 26.5196C151.14 26.3415 151.144 26.2467 151.144 26.2467C151.144 26.2467 151.148 26.3333 151.151 26.5082C151.152 26.6883 151.154 26.9476 151.157 27.2853C151.16 27.9754 151.165 28.9819 151.171 30.2703C151.178 32.8675 151.188 36.597 151.201 41.1458L151.201 41.2024H151.145C144.955 41.2064 137.125 41.2115 128.633 41.2168H128.562V41.1458V41.144C128.564 35.8427 128.566 30.799 128.568 26.2469V26.1816L128.633 26.1819C135.267 26.1949 140.901 26.2061 144.881 26.2138C146.86 26.2213 148.427 26.2273 149.505 26.2312C150.037 26.2346 150.446 26.2374 150.729 26.2392C150.863 26.2407 150.967 26.2421 151.041 26.2429C151.111 26.2443 151.144 26.2467 151.144 26.2467Z" fill="#E0E0E0"/>
</g>
</g>
</g>
</g>
<g id="Group_118">
<g id="Group_119">
<g id="Group_120">
<path id="Vector_30" d="M125.516 23.7298C125.528 23.7144 125.716 23.8376 126.01 24.0497C126.304 24.262 126.705 24.563 127.137 24.9089C127.569 25.255 127.949 25.5822 128.217 25.8274C128.484 26.0726 128.641 26.2342 128.628 26.2485C128.602 26.2787 127.911 25.7088 127.048 25.0198C126.185 24.3315 125.491 23.7622 125.516 23.7298Z" fill="#E0E0E0"/>
</g>
</g>
</g>
<g id="Group_121">
<g id="Group_122">
<g id="Group_123">
<path id="Vector_31" d="M154.257 23.7825C154.282 23.8132 153.605 24.3897 152.745 25.0696C151.886 25.75 151.169 26.2763 151.145 26.2456C151.121 26.215 151.798 25.6387 152.657 24.9583C153.516 24.2784 154.233 23.7519 154.257 23.7825Z" fill="#E0E0E0"/>
</g>
</g>
</g>
<g id="Group_124">
<g id="Group_125">
<g id="Group_126">
<path id="Vector_32" d="M154.233 43.6123C153.165 42.7468 152.097 41.8812 151.029 41.0156L154.233 43.6123Z" fill="white"/>
</g>
</g>
<g id="Group_127">
<g id="Group_128">
<g id="Group_129">
<path id="Vector_33" d="M151.028 41.0188C151.053 40.9883 151.79 41.545 152.675 42.262C153.56 42.9792 154.257 43.5851 154.232 43.6157C154.207 43.6461 153.47 43.0897 152.585 42.3725C151.701 41.6553 151.003 41.0492 151.028 41.0188Z" fill="#E0E0E0"/>
</g>
</g>
</g>
</g>
<g id="Group_130">
<g id="Group_131">
<g id="Group_132">
<path id="Vector_34" d="M125.516 43.6057C125.492 43.5748 126.162 43.0045 127.012 42.3318C127.863 41.6589 128.572 41.1386 128.597 41.1693C128.621 41.1999 127.951 41.7703 127.1 42.4431C126.25 43.1158 125.541 43.6363 125.516 43.6057Z" fill="#E0E0E0"/>
</g>
</g>
</g>
<g id="Group_133">
<g id="Group_134">
<path id="Vector_35" d="M133.201 30.8862V35.875H147.366V30.8862H133.201Z" fill="#BAD0FF"/>
</g>
</g>
</g>
</g>
<g id="Floor">
<g id="Group_135">
<g id="Group_136">
<path id="Vector_36" d="M154.782 111.387C154.782 111.419 121.64 111.445 80.7675 111.445C39.8805 111.445 6.74609 111.419 6.74609 111.387C6.74609 111.356 39.8807 111.33 80.7675 111.33C121.64 111.33 154.782 111.356 154.782 111.387Z" fill="#263238"/>
</g>
</g>
</g>
<g id="Device">
<g id="Group_137">
<g id="Group_138">
<g id="Group_139">
<g id="Group_140">
<g id="Group_141">
<g id="Group_142">
<g id="Group_143">
<g id="Group_144">
<g id="Group_145">
<path id="Vector_37" d="M135.398 110.617H26.4577C24.684 110.617 23.2461 109.179 23.2461 107.405V36.037C23.2461 35.0932 24.0111 34.3281 24.955 34.3281H137.124C137.944 34.3281 138.61 34.9935 138.61 35.8141V107.405C138.61 109.179 137.172 110.617 135.398 110.617Z" fill="#455A64"/>
</g>
</g>
</g>
</g>
</g>
</g>
</g>
<g id="Group_146">
<g id="Group_147">
<g id="Group_148">
<g id="Group_149">
<g id="Group_150">
<g id="Group_151">
<g id="Group_152">
<path id="Vector_38" d="M140.388 111.64H21.4509C19.7801 111.64 18.4258 110.286 18.4258 108.615V104.965H143.414V108.615C143.414 110.286 142.059 111.64 140.388 111.64Z" fill="#455A64"/>
</g>
</g>
</g>
</g>
</g>
</g>
</g>
<g id="Group_153">
<g id="Group_154">
<g id="Group_155">
<g id="Group_156">
<g id="Group_157">
<g id="Group_158">
<g id="Group_159">
<path id="Vector_39" d="M135.191 37.3379H26.3438V101.762H135.191V37.3379Z" fill="#EFF4FF"/>
</g>
</g>
</g>
</g>
</g>
</g>
</g>
<g id="Group_160">
<g id="Group_161">
<g id="Group_162">
<g id="Group_163">
<g id="Group_164">
<g id="Group_165">
<g id="Group_166">
<path id="Vector_40" d="M69.5586 104.965L71.1096 107.432H92.934L94.3743 104.965H69.5586Z" fill="#263238"/>
</g>
</g>
</g>
</g>
</g>
</g>
</g>
</g>
<g id="Group_167">
<g id="Group_168">
<g id="Group_169">
<g id="Group_170">
<g id="Group_171">
<g id="Group_172">
<g id="Group_173">
<path id="Vector_41" d="M138.624 104.93H23.2598V105.298H138.624V104.93Z" fill="#263238"/>
</g>
</g>
</g>
</g>
</g>
</g>
</g>
</g>
</g>
<g id="Certification">
<g id="Group_174">
<g id="Group_175">
<path id="Vector_42" d="M57.1604 34.3133H45.1758V30.0932C45.1758 27.1138 47.5895 24.5938 50.5688 24.5938L57.1604 24.6985V34.3133Z" fill="#BAD0FF"/>
</g>
<g id="Group_176">
<g id="Group_177">
<path id="Vector_43" d="M50.3105 24.5866C50.3105 24.5866 57.1311 23.9675 57.1311 32.8622C57.1311 41.757 57.1311 102.059 57.1311 102.059H110.661V30.3396C110.661 27.0885 108.021 24.4552 104.77 24.4629L50.3105 24.5866Z" fill="white"/>
</g>
<g id="Group_178">
<g id="Group_179">
<path id="Vector_44" d="M50.3105 24.5876C50.6276 24.5865 65.4561 24.5386 89.9136 24.4597C92.968 24.4509 96.1682 24.4416 99.5024 24.4319C101.17 24.4275 102.871 24.4229 104.604 24.4185C105.473 24.4081 106.367 24.5528 107.178 24.9256C107.991 25.2885 108.727 25.8381 109.315 26.5277C109.902 27.2191 110.32 28.0585 110.539 28.9525C110.607 29.1734 110.623 29.4056 110.663 29.6331C110.696 29.862 110.693 30.095 110.709 30.3265C110.709 30.7873 110.71 31.2498 110.71 31.7144C110.711 33.5721 110.711 35.4593 110.711 37.3743C110.712 41.2044 110.713 45.1464 110.714 49.1888C110.715 65.3585 110.717 83.1351 110.718 101.794C110.718 101.883 110.718 101.973 110.718 102.06V102.117H110.661C91.6132 102.116 73.4928 102.114 57.1313 102.113H57.0786V102.06C57.0872 78.1015 57.0943 57.7585 57.0993 43.4042C57.102 39.8161 57.1044 36.602 57.1066 33.7991C57.1068 33.0985 57.115 32.4234 57.0676 31.7776C57.0354 31.1301 56.9289 30.5161 56.8114 29.9343C56.6749 29.3557 56.5021 28.8138 56.2873 28.3182C56.0644 27.8265 55.8058 27.3819 55.5185 26.9916C54.933 26.218 54.242 25.6772 53.5868 25.3345C52.9326 24.9842 52.3232 24.814 51.8316 24.7133C51.3373 24.6162 50.9539 24.5907 50.6977 24.5845C50.4413 24.5781 50.3105 24.5876 50.3105 24.5876C50.3105 24.5876 50.4408 24.5722 50.6979 24.5755C50.9545 24.5785 51.3388 24.6015 51.8349 24.6958C52.3283 24.7942 52.9406 24.9622 53.5989 25.3114C54.2583 25.6529 54.9548 26.1944 55.5459 26.9709C55.8358 27.3625 56.0971 27.8087 56.3222 28.3023C56.5391 28.7999 56.7139 29.3438 56.8522 29.9246C56.9712 30.5086 57.0793 31.1248 57.113 31.7741C57.1617 32.4223 57.1547 33.0987 57.1558 33.7989C57.1578 36.6016 57.1602 39.8156 57.163 43.404C57.1681 57.7585 57.1754 78.1015 57.1838 102.06L57.1311 102.007C73.4928 102.006 91.613 102.004 110.661 102.003L110.604 102.06C110.604 101.972 110.604 101.883 110.604 101.794C110.605 83.1349 110.607 65.3582 110.608 49.1886C110.609 45.1462 110.61 41.2044 110.611 37.3741C110.611 35.4591 110.612 33.5718 110.612 31.7141C110.598 30.7862 110.679 29.8558 110.445 28.9748C110.231 28.0953 109.819 27.2694 109.243 26.5888C108.665 25.91 107.94 25.3685 107.14 25.0109C106.341 24.6434 105.466 24.5007 104.604 24.5102C102.868 24.5135 101.164 24.5166 99.4935 24.5199C96.1527 24.5254 92.9464 24.5307 89.886 24.5358C65.4455 24.5677 50.6274 24.5871 50.3105 24.5876Z" fill="#263238"/>
</g>
</g>
</g>
<g id="Group_180">
<g id="Group_181">
<path id="Vector_45" d="M80.0443 45.5847C80.0443 45.6164 76.789 45.642 72.7744 45.642C68.7585 45.642 65.5039 45.6162 65.5039 45.5847C65.5039 45.5529 68.7585 45.5273 72.7744 45.5273C76.789 45.5271 80.0443 45.5529 80.0443 45.5847Z" fill="#263238"/>
</g>
</g>
<g id="Group_182">
<g id="Group_183">
<path id="Vector_46" d="M83.3055 47.3269C83.3055 47.3586 79.3207 47.3842 74.4061 47.3842C69.4898 47.3842 65.5059 47.3584 65.5059 47.3269C65.5059 47.2951 69.49 47.2695 74.4061 47.2695C79.3204 47.2693 83.3055 47.2951 83.3055 47.3269Z" fill="#263238"/>
</g>
</g>
<g id="Group_184">
<g id="Group_185">
<path id="Vector_47" d="M84.4747 54.1706C84.4747 54.2024 80.3601 54.2279 75.2857 54.2279C70.2095 54.2279 66.0957 54.2021 66.0957 54.1706C66.0957 54.1389 70.2095 54.1133 75.2857 54.1133C80.3603 54.1133 84.4747 54.1391 84.4747 54.1706Z" fill="#263238"/>
</g>
</g>
<g id="Group_186">
<g id="Group_187">
<path id="Vector_48" d="M96.4785 60.8405C96.4785 60.8723 89.5996 60.8978 81.116 60.8978C72.6294 60.8978 65.752 60.8721 65.752 60.8405C65.752 60.8088 72.6294 60.7832 81.116 60.7832C89.5996 60.7832 96.4785 60.809 96.4785 60.8405Z" fill="#263238"/>
</g>
</g>
<g id="Group_188">
<g id="Group_189">
<path id="Vector_49" d="M96.4785 62.8308C96.4785 62.8625 89.5996 62.8881 81.116 62.8881C72.6294 62.8881 65.752 62.8623 65.752 62.8308C65.752 62.7992 72.6294 62.7734 81.116 62.7734C89.5996 62.7732 96.4785 62.799 96.4785 62.8308Z" fill="#263238"/>
</g>
</g>
<g id="Group_190">
<g id="Group_191">
<path id="Vector_50" d="M96.4785 64.819C96.4785 64.8508 89.5996 64.8764 81.116 64.8764C72.6294 64.8764 65.752 64.8506 65.752 64.819C65.752 64.7873 72.6294 64.7617 81.116 64.7617C89.5996 64.7617 96.4785 64.7873 96.4785 64.819Z" fill="#263238"/>
</g>
</g>
<g id="Group_192">
<g id="Group_193">
<path id="Vector_51" d="M96.4785 66.8093C96.4785 66.841 89.5996 66.8666 81.116 66.8666C72.6294 66.8666 65.752 66.8408 65.752 66.8093C65.752 66.7775 72.6294 66.752 81.116 66.752C89.5996 66.752 96.4785 66.7777 96.4785 66.8093Z" fill="#263238"/>
</g>
</g>
<g id="Group_194">
<g id="Group_195">
<path id="Vector_52" d="M96.4785 68.8034C96.4785 68.8352 89.5996 68.8607 81.116 68.8607C72.6294 68.8607 65.752 68.8349 65.752 68.8034C65.752 68.7719 72.6294 68.7461 81.116 68.7461C89.5996 68.7459 96.4785 68.7717 96.4785 68.8034Z" fill="#263238"/>
</g>
</g>
<g id="Group_196">
<g id="Group_197">
<path id="Vector_53" d="M77.4039 70.7936C77.4039 70.8254 74.7953 70.851 71.5782 70.851C68.3599 70.851 65.752 70.8252 65.752 70.7936C65.752 70.7621 68.3599 70.7363 71.5782 70.7363C74.7955 70.7361 77.4039 70.7619 77.4039 70.7936Z" fill="#263238"/>
</g>
</g>
<g id="Group_198">
<g id="Group_199">
<path id="Vector_54" d="M101.97 60.5645L96.5037 73.2654C96.3884 73.5335 96.6613 73.804 96.9283 73.6861L101.142 71.8264C101.315 71.7499 101.516 71.8392 101.576 72.0187L102.997 76.2855C103.093 76.5725 103.496 76.58 103.602 76.2967L108.74 62.5968L101.97 60.5645Z" fill="#407BFF"/>
</g>
<g id="Group_200">
<path id="Vector_55" d="M109.096 62.677L111.714 76.2541C111.769 76.5405 112.147 76.6108 112.301 76.3635L114.741 72.4571C114.841 72.2966 115.057 72.2572 115.208 72.372L118.782 75.1022C119.022 75.2858 119.36 75.0653 119.289 74.7712L115.837 60.5527L109.096 62.677Z" fill="#407BFF"/>
</g>
<g id="Group_201" opacity="0.3">
<path id="Vector_56" d="M101.97 60.5645L96.5037 73.2654C96.3884 73.5335 96.6613 73.804 96.9283 73.6861L101.142 71.8264C101.315 71.7499 101.516 71.8392 101.576 72.0187L102.997 76.2855C103.093 76.5725 103.496 76.58 103.602 76.2967L108.74 62.5968L101.97 60.5645Z" fill="black"/>
</g>
<g id="Group_202" opacity="0.3">
<path id="Vector_57" d="M109.096 62.677L111.714 76.2541C111.769 76.5405 112.147 76.6108 112.301 76.3635L114.741 72.4571C114.841 72.2966 115.057 72.2572 115.208 72.372L118.782 75.1022C119.022 75.2858 119.36 75.0653 119.289 74.7712L115.837 60.5527L109.096 62.677Z" fill="black"/>
</g>
<g id="Group_203">
<path id="Vector_58" d="M109.36 38.2993L111.154 36.9805L112.564 38.7041L114.63 37.8729L115.567 39.8931L117.775 39.6019L118.18 41.7916L120.391 42.0586L120.239 44.2805L122.314 45.089L121.615 47.2031L123.423 48.5021L122.22 50.3759L123.649 52.0839L122.017 53.5995L122.976 55.6093L121.019 56.6715L121.448 58.8566L119.288 59.3985L119.16 61.622L116.933 61.6097L116.257 63.7315L114.103 63.1658L112.92 65.0526L110.975 63.9692L109.36 65.5026L107.744 63.9692L105.799 65.0526L104.616 63.1658L102.462 63.7315L101.785 61.6097L99.5585 61.622L99.4308 59.3985L97.2708 58.8566L97.7001 56.6715L95.7428 55.6093L96.702 53.5995L95.0703 52.0839L96.4992 50.3759L95.2956 48.5021L97.1044 47.2031L96.4046 45.089L98.4797 44.2805L98.3278 42.0586L100.539 41.7916L100.944 39.6019L103.152 39.8931L104.089 37.8729L106.155 38.7041L107.565 36.9805L109.36 38.2993Z" fill="#407BFF"/>
</g>
<g id="Group_204">
<path id="Vector_59" d="M116.491 58.3738C120.429 54.4351 120.429 48.0493 116.491 44.1106C112.552 40.1719 106.166 40.1719 102.227 44.1106C98.2886 48.0493 98.2886 54.4351 102.227 58.3738C106.166 62.3125 112.552 62.3125 116.491 58.3738Z" fill="white"/>
</g>
<g id="Group_205">
<path id="Vector_60" d="M111.561 48.8534L114.268 49.2498C114.713 49.3148 114.889 49.8616 114.567 50.1749L112.606 52.0822C112.478 52.2065 112.42 52.386 112.45 52.5619L112.909 55.2587C112.985 55.7017 112.519 56.039 112.122 55.8296L109.702 54.5539C109.544 54.4706 109.355 54.4706 109.197 54.5532L106.775 55.8236C106.377 56.0322 105.912 55.694 105.989 55.251L106.454 52.5553C106.484 52.3794 106.426 52.1999 106.299 52.0751L104.342 50.1634C104.02 49.8495 104.198 49.3031 104.643 49.239L107.351 48.8485C107.527 48.8232 107.68 48.7123 107.759 48.5524L108.973 46.1005C109.172 45.6977 109.747 45.6984 109.945 46.1016L111.153 48.5562C111.232 48.7162 111.385 48.8273 111.561 48.8534Z" fill="#6695FF"/>
</g>
</g>
<g id="Group_206">
<path id="Vector_61" d="M70.5977 35.3029C70.5977 34.5749 71.1546 34.0586 71.9137 34.0586C72.3546 34.0586 72.7098 34.2193 72.9424 34.5099L72.5118 34.8995C72.3612 34.7182 72.1767 34.6193 71.9476 34.6193C71.5547 34.6193 71.2813 34.8926 71.2813 35.3029C71.2813 35.713 71.5547 35.9866 71.9476 35.9866C72.1767 35.9866 72.3612 35.8874 72.5118 35.7062L72.9424 36.096C72.7098 36.3863 72.3546 36.5471 71.9137 36.5471C71.1546 36.5471 70.5977 36.0309 70.5977 35.3029Z" fill="#263238"/>
<path id="Vector_62" d="M75.1651 35.977V36.5H73.2441V34.1074H75.1208V34.6304H73.9142V35.0336H74.9771V35.5394H73.9142V35.9768L75.1651 35.977Z" fill="#263238"/>
<path id="Vector_63" d="M76.5869 35.8641H76.2179V36.5H75.541V34.1074H76.6348C77.2876 34.1074 77.6977 34.4458 77.6977 34.9926C77.6977 35.3447 77.5268 35.6044 77.2294 35.748L77.7457 36.5H77.021L76.5869 35.8641ZM76.5938 34.6407H76.2179V35.3414H76.5938C76.874 35.3414 77.014 35.2115 77.014 34.9928C77.014 34.7704 76.874 34.6407 76.5938 34.6407Z" fill="#263238"/>
<path id="Vector_64" d="M78.5456 34.6441H77.8105V34.1074H79.9538V34.6441H79.2225V36.5H78.5458V34.6441H78.5456Z" fill="#263238"/>
<path id="Vector_65" d="M80.207 34.1074H80.8839V36.5H80.207V34.1074Z" fill="#263238"/>
<path id="Vector_66" d="M82.0438 34.6304V35.1566H83.1001V35.6796H82.0438V36.5H81.3672V34.1074H83.2438V34.6304H82.0438Z" fill="#263238"/>
<path id="Vector_67" d="M83.5605 34.1074H84.2374V36.5H83.5605V34.1074Z" fill="#263238"/>
<path id="Vector_68" d="M84.5957 35.3029C84.5957 34.5749 85.1526 34.0586 85.9117 34.0586C86.3524 34.0586 86.7081 34.2193 86.9404 34.5099L86.5098 34.8995C86.3593 34.7182 86.1747 34.6193 85.9457 34.6193C85.5528 34.6193 85.2794 34.8926 85.2794 35.3029C85.2794 35.713 85.5528 35.9866 85.9457 35.9866C86.1747 35.9866 86.3593 35.8874 86.5098 35.7062L86.9404 36.096C86.7081 36.3863 86.3524 36.5471 85.9117 36.5471C85.1526 36.5471 84.5957 36.0309 84.5957 35.3029Z" fill="#263238"/>
<path id="Vector_69" d="M88.8044 36.0352H87.7926L87.6044 36.5H86.9141L87.9701 34.1074H88.6366L89.6962 36.5H88.9922L88.8044 36.0352ZM88.606 35.5361L88.2982 34.7704L87.9904 35.5361H88.606Z" fill="#263238"/>
<path id="Vector_70" d="M90.2778 34.6441H89.543V34.1074H91.686V34.6441H90.9547V36.5H90.278V34.6441H90.2778Z" fill="#263238"/>
<path id="Vector_71" d="M91.9395 34.1074H92.6161V36.5H91.9395V34.1074Z" fill="#263238"/>
<path id="Vector_72" d="M92.9746 35.3029C92.9746 34.5851 93.5386 34.0586 94.3041 34.0586C95.0698 34.0586 95.6335 34.5851 95.6335 35.3029C95.6335 36.0206 95.0695 36.5471 94.3041 36.5471C93.5384 36.5471 92.9746 36.0208 92.9746 35.3029ZM94.9503 35.3029C94.9503 34.8893 94.6665 34.6193 94.3041 34.6193C93.9416 34.6193 93.6581 34.8893 93.6581 35.3029C93.6581 35.7163 93.9416 35.9866 94.3041 35.9866C94.6665 35.9866 94.9503 35.7165 94.9503 35.3029Z" fill="#263238"/>
<path id="Vector_73" d="M98.2666 34.1074V36.5H97.7095L96.6534 35.225V36.5H95.9902V34.1074H96.5474L97.6034 35.3824V34.1074H98.2666Z" fill="#263238"/>
</g>
<g id="Group_207">
<g id="Group_208">
<path id="Vector_74" d="M100.978 79.196C100.978 79.2277 97.9276 79.2533 94.1653 79.2533C90.4016 79.2533 87.3516 79.2275 87.3516 79.196C87.3516 79.1645 90.4016 79.1387 94.1653 79.1387C97.9276 79.1385 100.978 79.1643 100.978 79.196Z" fill="#263238"/>
</g>
</g>
<g id="Group_209">
<g id="Group_210">
<path id="Vector_75" d="M100.978 81.1159C100.978 81.1477 97.9276 81.1732 94.1653 81.1732C90.4016 81.1732 87.3516 81.1474 87.3516 81.1159C87.3516 81.0844 90.4016 81.0586 94.1653 81.0586C97.9276 81.0584 100.978 81.0842 100.978 81.1159Z" fill="#263238"/>
</g>
</g>
<g id="Group_211">
<g id="Group_212">
<g id="Group_213">
<path id="Vector_76" d="M100.074 89.4723C100.072 89.4723 100.069 89.4399 100.063 89.3767C100.058 89.3083 100.052 89.2155 100.043 89.0964C100.039 89.0343 100.035 88.9655 100.03 88.8901C100.022 88.8145 100.005 88.7327 99.9918 88.6436C99.9632 88.4657 99.9358 88.2593 99.8675 88.0351C99.7625 87.5796 99.5482 87.0416 99.2113 86.4717C98.8716 85.9042 98.3821 85.3114 97.7161 84.8085C97.0523 84.3104 96.2147 83.8867 95.2479 83.7158C94.2878 83.5509 93.2041 83.5809 92.1721 83.9731C91.9095 84.0573 91.6626 84.1872 91.4088 84.3089C91.1685 84.4542 90.9152 84.5882 90.6914 84.7703C90.4535 84.9337 90.2456 85.1381 90.0278 85.3347C89.8311 85.5526 89.6241 85.7658 89.4546 86.0131C89.1064 86.4968 88.8024 87.0341 88.6183 87.625C88.4276 88.2123 88.3249 88.8361 88.3165 89.4708C88.3249 90.1058 88.4274 90.7297 88.6179 91.3173C88.8017 91.9083 89.106 92.4459 89.4541 92.9298C89.6239 93.1772 89.8307 93.3906 90.0273 93.6084C90.2452 93.8053 90.4533 94.0097 90.6912 94.173C90.915 94.3552 91.1683 94.4892 91.4088 94.6345C91.6626 94.7564 91.9095 94.8863 92.1723 94.9705C93.2046 95.3627 94.2884 95.3927 95.2486 95.2278C96.2153 95.0567 97.0529 94.6332 97.7168 94.1349C98.3828 93.632 98.8723 93.0391 99.2118 92.4717C99.5487 91.9017 99.763 91.3638 99.8679 90.9083C99.9365 90.6841 99.9636 90.4777 99.9923 90.2998C100.006 90.2107 100.022 90.1289 100.031 90.0535C100.035 89.9781 100.04 89.9093 100.044 89.8474C100.052 89.7285 100.059 89.6355 100.064 89.5671C100.069 89.5048 100.072 89.4723 100.074 89.4723C100.076 89.4723 100.076 89.5048 100.075 89.568C100.073 89.6366 100.07 89.7299 100.067 89.8494C100.064 89.9118 100.062 89.981 100.059 90.0568C100.052 90.1329 100.038 90.2153 100.026 90.3051C100 90.4845 99.9766 90.6929 99.9109 90.9197C99.8117 91.3803 99.602 91.9255 99.2667 92.5049C98.9285 93.0819 98.4377 93.6858 97.7657 94.1999C97.0959 94.7092 96.2475 95.1438 95.2658 95.3217C94.2908 95.4937 93.1883 95.4668 92.1359 95.0701C91.8683 94.985 91.6165 94.8536 91.3577 94.73C91.1123 94.5827 90.8541 94.4462 90.6257 94.2615C90.3832 94.0952 90.1706 93.8877 89.9484 93.6873C89.7473 93.4658 89.5366 93.2484 89.3631 92.9966C89.0074 92.5041 88.6972 91.9562 88.5092 91.3534C88.3143 90.7546 88.2095 90.1181 88.2012 89.4708C88.2095 88.8237 88.3145 88.1877 88.5094 87.5888C88.6975 86.9865 89.0077 86.4386 89.3635 85.9463C89.5368 85.6946 89.7476 85.4774 89.9486 85.2558C90.1709 85.0554 90.3832 84.8479 90.6257 84.6819C90.8541 84.4972 91.1123 84.3609 91.3575 84.2136C91.6161 84.09 91.8681 83.9586 92.1355 83.8734C93.1876 83.477 94.29 83.4501 95.2649 83.6219C96.2467 83.7998 97.095 84.2344 97.7648 84.7434C98.4368 85.2574 98.9278 85.8614 99.266 86.4384C99.6016 87.0178 99.8112 87.5633 99.9105 88.0238C99.9762 88.2507 100 88.4591 100.025 88.6385C100.037 88.7283 100.052 88.8107 100.058 88.887C100.061 88.9628 100.064 89.0321 100.066 89.0947C100.07 89.2142 100.073 89.3074 100.075 89.3762C100.076 89.4399 100.076 89.4723 100.074 89.4723Z" fill="#407BFF"/>
</g>
</g>
<g id="Group_214">
<path id="Vector_77" d="M97.8611 90.357C98.3466 88.3168 97.0863 86.2693 95.0461 85.7838C93.0059 85.2983 90.9584 86.5586 90.4729 88.5988C89.9873 90.6391 91.2477 92.6866 93.2879 93.1721C95.3281 93.6576 97.3756 92.3973 97.8611 90.357Z" fill="#407BFF"/>
</g>
</g>
<g id="Group_215">
<g id="Group_216">
<path id="Vector_78" d="M102.609 86.1992C102.609 86.1992 102.556 86.2316 102.45 86.2887C102.339 86.3472 102.181 86.4307 101.975 86.5396C101.554 86.7594 100.94 87.0798 100.152 87.4907C99.3583 87.9006 98.3909 88.4006 97.2711 88.9792C96.9865 89.1152 96.6763 89.2442 96.3326 89.279C95.9924 89.324 95.6138 89.2221 95.3378 88.9758C95.2018 88.8526 95.0858 88.6921 95.0432 88.5016C94.9963 88.3186 95.0269 88.0915 95.1696 87.9438C95.3025 87.7928 95.4972 87.7024 95.7002 87.6872C95.9007 87.6603 96.1405 87.767 96.2201 87.9784L96.223 87.9859L96.2232 87.9934C96.2351 88.6021 96.0113 89.2351 95.5854 89.7299C95.1698 90.2301 94.5267 90.5829 93.8287 90.6133C93.1375 90.6492 92.404 90.4127 91.8691 89.9051C91.6041 89.6564 91.375 89.3374 91.3045 88.9556C91.2716 88.7677 91.2864 88.56 91.3788 88.3823C91.4683 88.2066 91.6164 88.0563 91.8071 87.9815C91.9976 87.903 92.2307 87.937 92.3954 88.0615C92.5627 88.185 92.6641 88.3693 92.7289 88.5556C92.7949 88.7437 92.8187 88.9439 92.8196 89.1403C92.8273 89.2391 92.8215 89.3376 92.8121 89.4364C92.8072 89.5356 92.7964 89.6342 92.7741 89.7314C92.6322 90.5147 92.1857 91.2483 91.5452 91.7615C90.9114 92.2772 90.0511 92.5682 89.2078 92.4333C88.3678 92.3067 87.5944 91.8162 87.0703 91.1325C86.7722 90.7414 86.5487 90.2896 86.4561 89.8088C86.3688 89.3317 86.3654 88.8248 86.565 88.372C86.6635 88.1493 86.8223 87.9434 87.037 87.8166C87.2476 87.6894 87.504 87.6296 87.7502 87.6808C88.0009 87.7271 88.2024 87.916 88.316 88.125C88.4348 88.336 88.4943 88.5644 88.5479 88.7884C88.7554 89.6904 88.6974 90.636 88.3847 91.4709C88.0818 92.3089 87.5011 93.0284 86.7654 93.4631C86.0358 93.9047 85.178 94.0838 84.3761 93.9839C83.9753 93.9329 83.5886 93.8104 83.2453 93.6177C82.9023 93.4252 82.6066 93.1662 82.3678 92.8716C81.8899 92.2827 81.6288 91.5525 81.639 90.8463C81.6423 90.4931 81.7192 90.1505 81.8499 89.8377C81.9869 89.5325 82.2102 89.2411 82.5347 89.1348C82.6939 89.0881 82.8639 89.0766 83.0224 89.1214C83.1794 89.1688 83.3143 89.2603 83.4279 89.3661C83.653 89.5835 83.7947 89.8562 83.8924 90.1283C83.9914 90.401 84.0379 90.6847 84.0403 90.9561C84.0434 91.0917 84.0474 91.2251 84.0397 91.3563C84.037 91.4877 84.0293 91.6164 84.015 91.7426C83.9175 92.7554 83.6045 93.5899 83.2718 94.218C82.9364 94.8488 82.5799 95.2796 82.3279 95.5556C82.2025 95.6952 82.0982 95.7931 82.0276 95.8581C81.9575 95.9238 81.9198 95.9553 81.9198 95.9553C81.9198 95.9553 81.9523 95.9181 82.0195 95.8497C82.0874 95.7821 82.1886 95.6817 82.311 95.5402C82.5566 95.2604 82.9053 94.8272 83.2323 94.1973C83.5566 93.5701 83.8609 92.74 83.9513 91.7368C83.9647 91.6118 83.9716 91.4842 83.9733 91.3543C83.9804 91.2244 83.9757 91.0924 83.9718 90.9583C83.9678 90.6911 83.9215 90.4182 83.8236 90.1527C83.7277 89.8886 83.5877 89.6256 83.3747 89.4219C83.2676 89.3229 83.1424 89.2395 83.0006 89.1972C82.8577 89.1577 82.7049 89.169 82.5601 89.2115C82.2684 89.3072 82.0576 89.5782 81.9273 89.8721C81.8032 90.1728 81.7291 90.5053 81.7271 90.847C81.7194 91.5307 81.9752 92.2406 82.4413 92.8112C82.6739 93.0965 82.9611 93.3469 83.2932 93.5317C83.6245 93.7167 83.9998 93.8348 84.3885 93.8831C85.1661 93.9784 86.0017 93.8029 86.7105 93.3721C87.4244 92.9481 87.9866 92.2503 88.2816 91.4324C88.5856 90.6184 88.6412 89.6933 88.4379 88.8136C88.3854 88.5942 88.3265 88.3726 88.2172 88.1804C88.1111 87.9884 87.9405 87.8314 87.7264 87.7915C87.515 87.7472 87.2844 87.7992 87.0954 87.9138C86.9041 88.0267 86.761 88.211 86.6688 88.4183C86.4827 88.8372 86.4836 89.3284 86.5681 89.7856C86.6569 90.2475 86.8727 90.6839 87.1609 91.0622C87.6678 91.724 88.4174 92.1983 89.2241 92.3198C90.0328 92.4494 90.8589 92.1718 91.4738 91.6731C92.0944 91.177 92.5274 90.4654 92.6646 89.7113C92.6862 89.6176 92.6965 89.5228 92.7014 89.4274C92.7109 89.3324 92.7166 89.2375 92.7091 89.1427C92.7084 88.9525 92.6862 88.7657 92.6249 88.5905C92.5651 88.4172 92.4714 88.2523 92.3308 88.1489C92.1914 88.0446 92.0049 88.0168 91.8453 88.0816C91.6846 88.1436 91.5521 88.2758 91.4738 88.43C91.3931 88.5841 91.3794 88.7644 91.4085 88.937C91.4714 89.2841 91.6861 89.5907 91.9403 89.8289C92.4507 90.3159 93.1582 90.5463 93.8229 90.513C94.4936 90.485 95.1096 90.1496 95.5133 89.6677C95.9262 89.1912 96.1436 88.5799 96.1344 87.9947L96.1372 88.0097C96.0724 87.8409 95.8868 87.752 95.7058 87.773C95.5265 87.7851 95.3479 87.8678 95.2326 87.9992C95.1089 88.1266 95.0831 88.3147 95.1233 88.4827C95.1603 88.6524 95.265 88.8003 95.3909 88.9157C95.6502 89.1465 95.9981 89.2446 96.3251 89.2032C96.6538 89.1716 96.958 89.0479 97.2402 88.9148C98.3629 88.3438 99.333 87.8506 100.128 87.446C100.921 87.0443 101.539 86.731 101.963 86.5163C102.171 86.4122 102.331 86.3324 102.443 86.2766C102.552 86.2237 102.609 86.1992 102.609 86.1992Z" fill="#263238"/>
</g>
</g>
<g id="Group_217">
<g id="Group_218">
<path id="Vector_79" d="M82.8583 31.8151C82.8583 31.8469 78.1944 31.8725 72.4423 31.8725C66.6884 31.8725 62.0254 31.8467 62.0254 31.8151C62.0254 31.7836 66.6884 31.7578 72.4423 31.7578C78.1944 31.7576 82.8583 31.7834 82.8583 31.8151Z" fill="#E0E0E0"/>
</g>
</g>
<g id="Group_219">
<g id="Group_220">
<path id="Vector_80" d="M86.3296 31.8151C86.3296 31.8469 86.0057 31.8725 85.6062 31.8725C85.2067 31.8725 84.8828 31.8467 84.8828 31.8151C84.8828 31.7836 85.2067 31.7578 85.6062 31.7578C86.0057 31.7576 86.3296 31.7834 86.3296 31.8151Z" fill="#E0E0E0"/>
</g>
</g>
<g id="Group_221">
<g id="Group_222">
<path id="Vector_81" d="M107.067 31.8151C107.067 31.8469 102.813 31.8725 97.567 31.8725C92.3191 31.8725 88.0664 31.8467 88.0664 31.8151C88.0664 31.7836 92.3191 31.7578 97.567 31.7578C102.813 31.7576 107.067 31.7834 107.067 31.8151Z" fill="#E0E0E0"/>
</g>
</g>
<g id="Group_223">
<g id="Group_224">
<path id="Vector_82" d="M82.8583 37.6081C82.8583 37.6399 78.1944 37.6654 72.4423 37.6654C66.6884 37.6654 62.0254 37.6396 62.0254 37.6081C62.0254 37.5766 66.6884 37.5508 72.4423 37.5508C78.1944 37.5506 82.8583 37.5764 82.8583 37.6081Z" fill="#E0E0E0"/>
</g>
</g>
<g id="Group_225">
<g id="Group_226">
<path id="Vector_83" d="M86.3296 37.6081C86.3296 37.6399 86.0057 37.6654 85.6062 37.6654C85.2067 37.6654 84.8828 37.6396 84.8828 37.6081C84.8828 37.5766 85.2067 37.5508 85.6062 37.5508C86.0057 37.5506 86.3296 37.5764 86.3296 37.6081Z" fill="#E0E0E0"/>
</g>
</g>
<g id="Group_227">
<g id="Group_228">
<path id="Vector_84" d="M107.067 37.6081C107.067 37.6399 102.813 37.6654 97.567 37.6654C92.3191 37.6654 88.0664 37.6396 88.0664 37.6081C88.0664 37.5766 92.3191 37.5508 97.567 37.5508C102.813 37.5506 107.067 37.5764 107.067 37.6081Z" fill="#E0E0E0"/>
</g>
</g>
</g>
</g>
</g>
</svg>
