<svg width="36" height="36" viewBox="0 0 36 36" fill="none" xmlns="http://www.w3.org/2000/svg">
<circle cx="18" cy="18" r="18" fill="#F2F7FF"/>
<g clip-path="url(#clip0_13047_1003)">
<path d="M23.25 12H22.425C22.2509 11.1536 21.7904 10.393 21.1209 9.84654C20.4515 9.30007 19.6142 9.00109 18.75 9L17.25 9C16.3858 9.00109 15.5485 9.30007 14.8791 9.84654C14.2096 10.393 13.7491 11.1536 13.575 12H12.75C11.7558 12.0012 10.8027 12.3967 10.0997 13.0997C9.39666 13.8027 9.00119 14.7558 9 15.75V23.25C9.00119 24.2442 9.39666 25.1973 10.0997 25.9003C10.8027 26.6033 11.7558 26.9988 12.75 27H23.25C24.2442 26.9988 25.1973 26.6033 25.9003 25.9003C26.6033 25.1973 26.9988 24.2442 27 23.25V15.75C26.9988 14.7558 26.6033 13.8027 25.9003 13.0997C25.1973 12.3967 24.2442 12.0012 23.25 12ZM17.25 10.5H18.75C19.2137 10.5019 19.6655 10.6471 20.0435 10.9156C20.4216 11.1841 20.7074 11.5628 20.862 12H15.138C15.2926 11.5628 15.5784 11.1841 15.9565 10.9156C16.3345 10.6471 16.7863 10.5019 17.25 10.5ZM12.75 13.5H23.25C23.8467 13.5 24.419 13.7371 24.841 14.159C25.2629 14.581 25.5 15.1533 25.5 15.75V18H10.5V15.75C10.5 15.1533 10.7371 14.581 11.159 14.159C11.581 13.7371 12.1533 13.5 12.75 13.5ZM23.25 25.5H12.75C12.1533 25.5 11.581 25.2629 11.159 24.841C10.7371 24.419 10.5 23.8467 10.5 23.25V19.5H17.25V20.25C17.25 20.4489 17.329 20.6397 17.4697 20.7803C17.6103 20.921 17.8011 21 18 21C18.1989 21 18.3897 20.921 18.5303 20.7803C18.671 20.6397 18.75 20.4489 18.75 20.25V19.5H25.5V23.25C25.5 23.8467 25.2629 24.419 24.841 24.841C24.419 25.2629 23.8467 25.5 23.25 25.5Z" fill="#407BFF"/>
</g>
<defs>
<clipPath id="clip0_13047_1003">
<rect width="18" height="18" fill="white" transform="translate(9 9)"/>
</clipPath>
</defs>
</svg>
