<svg width="18" height="18" viewBox="0 0 18 18" fill="none" xmlns="http://www.w3.org/2000/svg">
<path d="M16.4603 6.88377C16.4131 6.74492 16.3264 6.62292 16.2107 6.53282C16.095 6.44272 15.9554 6.38847 15.8093 6.37677L11.5335 6.03702L9.68327 1.94127C9.62435 1.80936 9.5285 1.69731 9.40731 1.61867C9.28611 1.54002 9.14474 1.49813 9.00026 1.49805C8.85579 1.49797 8.71437 1.5397 8.59309 1.61822C8.47181 1.69673 8.37584 1.80867 8.31677 1.94052L6.46652 6.03702L2.19077 6.37677C2.04711 6.38815 1.90977 6.44068 1.79519 6.52807C1.6806 6.61546 1.59361 6.73401 1.54464 6.86954C1.49566 7.00507 1.48677 7.15185 1.51903 7.2923C1.55128 7.43275 1.62332 7.56094 1.72652 7.66152L4.88627 10.7418L3.76877 15.5808C3.73484 15.7272 3.74571 15.8805 3.79998 16.0208C3.85426 16.161 3.94942 16.2816 4.07312 16.3671C4.19683 16.4526 4.34336 16.4989 4.49371 16.5C4.64406 16.5012 4.79128 16.4571 4.91627 16.3735L9.00002 13.651L13.0838 16.3735C13.2115 16.4583 13.3622 16.502 13.5155 16.4986C13.6688 16.4953 13.8174 16.4451 13.9413 16.3547C14.0652 16.2644 14.1585 16.1383 14.2086 15.9933C14.2587 15.8484 14.2632 15.6916 14.2215 15.544L12.8498 10.744L16.2518 7.68252C16.4745 7.48152 16.5563 7.16802 16.4603 6.88377Z" fill="#FFB850"/>
</svg>
