<svg width="15" height="15" viewBox="0 0 15 15" fill="none" xmlns="http://www.w3.org/2000/svg">
<path d="M1.875 7.4992C1.875 9.36187 2.78946 11.0116 4.18848 12.0362L4.18929 12.037C4.64652 12.3712 5.15437 12.6388 5.7008 12.8237C5.71446 12.8285 5.72813 12.8341 5.74179 12.8389C5.99571 12.9225 6.25848 12.9876 6.52687 13.0342C6.5767 13.043 6.62652 13.0503 6.67634 13.0567C6.94634 13.0977 7.21875 13.125 7.4992 13.125H7.5C7.78125 13.125 8.05446 13.0977 8.32527 13.0575C8.37429 13.0503 8.4225 13.043 8.47152 13.035C8.74152 12.9876 9.00509 12.9233 9.25982 12.8397C9.27187 12.8357 9.28232 12.8309 9.29357 12.8269C11.5179 12.0747 13.125 9.97339 13.125 7.4992C13.125 4.39821 10.6018 1.875 7.5 1.875C4.39821 1.875 1.875 4.39821 1.875 7.4992ZM7.5 3.48214C9.71464 3.48214 11.5179 5.28375 11.5179 7.4992H9.91071C9.91071 6.17089 8.82911 5.08929 7.5 5.08929V3.48214Z" fill="#FFB850"/>
</svg>
