<svg width="18" height="18" viewBox="0 0 18 18" fill="none" xmlns="http://www.w3.org/2000/svg">
<path d="M3.76877 15.5808C3.74307 15.6908 3.74261 15.8052 3.76742 15.9154C3.79222 16.0256 3.84166 16.1288 3.91201 16.2172C3.98236 16.3055 4.0718 16.3769 4.17364 16.4258C4.27547 16.4747 4.38705 16.4999 4.50002 16.4995C4.64817 16.4996 4.79301 16.4557 4.91627 16.3735L9.00002 13.651L13.0838 16.3735C13.2115 16.4583 13.3622 16.502 13.5155 16.4986C13.6688 16.4953 13.8174 16.4451 13.9413 16.3547C14.0652 16.2644 14.1585 16.1383 14.2086 15.9933C14.2587 15.8484 14.2632 15.6916 14.2215 15.544L12.8498 10.744L16.2518 7.68252C16.3607 7.58441 16.4385 7.45652 16.4756 7.31466C16.5126 7.17279 16.5073 7.02318 16.4602 6.88433C16.4131 6.74547 16.3264 6.62347 16.2107 6.53339C16.095 6.44332 15.9554 6.38913 15.8093 6.37752L11.5335 6.03702L9.68327 1.94127C9.62434 1.80936 9.5285 1.69731 9.4073 1.61867C9.28611 1.54002 9.14474 1.49813 9.00026 1.49805C8.85578 1.49797 8.71437 1.5397 8.59309 1.61822C8.47181 1.69673 8.37584 1.80867 8.31677 1.94052L6.46652 6.03702L2.19077 6.37677C2.04711 6.38815 1.90977 6.44068 1.79519 6.52807C1.6806 6.61546 1.59361 6.73401 1.54464 6.86954C1.49566 7.00508 1.48677 7.15185 1.51903 7.2923C1.55128 7.43275 1.62332 7.56094 1.72652 7.66152L4.88702 10.7418L3.76877 15.5808ZM10.5315 7.46202L10.9725 7.49727L13.9523 7.73352L11.499 9.94152L11.4983 9.94302L11.151 10.255L11.2793 10.7028V10.705L12.219 13.9938L9.00002 11.848L10.5315 7.46202Z" fill="#FFB850"/>
</svg>
