<svg width="36" height="36" viewBox="0 0 36 36" fill="none" xmlns="http://www.w3.org/2000/svg">
<circle cx="18" cy="18" r="18" fill="#F2F7FF"/>
<g clip-path="url(#clip0_13047_1013)">
<path d="M27 26.25C27 26.664 26.664 27 26.25 27H11.25C10.0095 27 9 25.9905 9 24.75V9.75C9 9.336 9.336 9 9.75 9C10.164 9 10.5 9.336 10.5 9.75V24.75C10.5 25.1632 10.8368 25.5 11.25 25.5H26.25C26.664 25.5 27 25.836 27 26.25ZM24.75 12.75H21.75C21.336 12.75 21 13.086 21 13.5C21 13.914 21.336 14.25 21.75 14.25H24.4222L20.7795 17.7802C20.4967 18.0638 20.0025 18.0638 19.7198 17.7802C19.689 17.7502 18.7905 17.1105 18.7905 17.1105C17.937 16.3057 16.4827 16.3357 15.669 17.1488L12.2295 20.4593C11.931 20.7465 11.922 21.2213 12.2092 21.5198C12.357 21.6728 12.5528 21.75 12.75 21.75C12.9375 21.75 13.125 21.6803 13.2697 21.5408L16.7198 18.2198C17.0025 17.9362 17.4967 17.9362 17.7795 18.2198C17.8103 18.2498 18.7087 18.8895 18.7087 18.8895C19.563 19.695 21.0157 19.6665 21.8317 18.849L25.4993 15.294V17.9992C25.4993 18.4132 25.8353 18.7492 26.2493 18.7492C26.6632 18.7492 26.9993 18.4132 26.9993 17.9992V14.9992C26.9993 13.7587 25.9897 12.7492 24.7493 12.7492L24.75 12.75Z" fill="#407BFF"/>
</g>
<defs>
<clipPath id="clip0_13047_1013">
<rect width="18" height="18" fill="white" transform="translate(9 9)"/>
</clipPath>
</defs>
</svg>
