<svg width="149" height="150" viewBox="0 0 149 150" fill="none" xmlns="http://www.w3.org/2000/svg">
<g id="Group 1999">
<path id="Vector 765" d="M1.79339 147C-1.17479 117.767 0.79441 53.7489 69.7594 53.7489C133.52 53.7489 148 35.9148 148 -3.27826e-06" stroke="#00D8FF" stroke-dasharray="2 2"/>
<path id="Vector 766" d="M1 59.0172C1 59.0172 16.8383 56.3665 24.4843 63.2708C32.1304 70.175 72.9475 115.971 107.58 78.2937C147.24 35.1484 79.2333 9.28823 79.2333 9.19442e-07" stroke="#FDD778" stroke-dasharray="2 2"/>
<g id="Ellipse 2301" filter="url(#filter0_d_13341_48)">
<circle cx="66" cy="65" r="40" fill="white"/>
</g>
<path id="Vector" d="M73.0345 82.0133H45.2733C44.7278 82.0133 44.2856 81.5711 44.2856 81.0257V67.4388C44.2856 66.8934 44.7278 66.4512 45.2733 66.4512H46.5189C47.0643 66.4512 47.5065 66.8934 47.5065 67.4388C47.5065 67.9842 47.0643 68.4264 46.5189 68.4264H46.2609V80.0381H72.0469V79.799C72.0469 79.2536 72.4891 78.8114 73.0345 78.8114C73.5799 78.8114 74.0221 79.2536 74.0221 79.799V81.0257C74.0221 81.5711 73.58 82.0133 73.0345 82.0133ZM86.7266 80.3719H78.0909C77.5455 80.3719 77.1033 79.9297 77.1033 79.3843C77.1033 78.8389 77.5455 78.3967 78.0909 78.3967H85.739V49.9615H62.372V58.4373C62.372 58.9828 61.9298 59.425 61.3844 59.425C60.839 59.425 60.3968 58.9828 60.3968 58.4373V48.9739C60.3968 48.4285 60.839 47.9863 61.3844 47.9863H86.7266C87.272 47.9863 87.7142 48.4285 87.7142 48.9739V79.3842C87.7142 79.9297 87.2721 80.3719 86.7266 80.3719ZM78.0909 77.0134H50.3298C49.7844 77.0134 49.3422 76.5712 49.3422 76.0258V62.439C49.3422 61.8936 49.7844 61.4514 50.3298 61.4514H78.0909C78.6363 61.4514 79.0785 61.8936 79.0785 62.439V76.0259C79.0785 76.5714 78.6365 77.0134 78.0909 77.0134ZM51.3174 75.0382H77.1033V63.4266H51.3174V75.0382ZM82.1841 76.2638C81.813 76.2638 81.4575 76.0537 81.2893 75.6955C81.0576 75.2017 81.2701 74.6135 81.7639 74.3818C82.0356 74.2543 82.328 73.8432 82.328 73.2421C82.328 72.641 82.0356 72.2301 81.7639 72.1027C81.2701 71.8709 81.0576 71.2828 81.2893 70.789C81.521 70.2952 82.1094 70.0829 82.603 70.3145C83.6359 70.7991 84.3033 71.9483 84.3033 73.2421C84.3033 74.536 83.6359 75.6853 82.603 76.17C82.4673 76.2337 82.3246 76.2638 82.1841 76.2638ZM64.2103 72.9335C62.1695 72.9335 60.5092 71.2732 60.5092 69.2324C60.5092 67.1916 62.1695 65.5313 64.2103 65.5313C66.2512 65.5313 67.9115 67.1916 67.9115 69.2324C67.9115 71.2732 66.2512 72.9335 64.2103 72.9335ZM64.2103 67.5066C63.2588 67.5066 62.4845 68.2807 62.4845 69.2324C62.4845 70.1841 63.2586 70.9583 64.2103 70.9583C65.162 70.9583 65.9363 70.1841 65.9363 69.2324C65.9363 68.2807 65.162 67.5066 64.2103 67.5066ZM73.7246 70.22H71.182C70.6366 70.22 70.1944 69.7778 70.1944 69.2324C70.1944 68.687 70.6366 68.2448 71.182 68.2448H73.7247C74.2701 68.2448 74.7123 68.687 74.7123 69.2324C74.7123 69.7778 74.2701 70.22 73.7246 70.22ZM57.2389 70.22H54.6962C54.1508 70.22 53.7086 69.7778 53.7086 69.2324C53.7086 68.687 54.1508 68.2448 54.6962 68.2448H57.2389C57.7843 68.2448 58.2265 68.687 58.2265 69.2324C58.2265 69.7778 57.7843 70.22 57.2389 70.22ZM81.0155 58.339H67.0954C66.55 58.339 66.1078 57.8968 66.1078 57.3513C66.1078 56.8059 66.55 56.3637 67.0954 56.3637H81.0155C81.5609 56.3637 82.0031 56.8059 82.0031 57.3513C82.0031 57.8968 81.5609 58.339 81.0155 58.339ZM78.3243 54.2852H69.7251C69.1797 54.2852 68.7375 53.843 68.7375 53.2976C68.7375 52.7522 69.1797 52.31 69.7251 52.31H78.3243C78.8697 52.31 79.3119 52.7522 79.3119 53.2976C79.3119 53.843 78.8697 54.2852 78.3243 54.2852Z" fill="#0080FF"/>
</g>
<defs>
<filter id="filter0_d_13341_48" x="11" y="20" width="130" height="130" filterUnits="userSpaceOnUse" color-interpolation-filters="sRGB">
<feFlood flood-opacity="0" result="BackgroundImageFix"/>
<feColorMatrix in="SourceAlpha" type="matrix" values="0 0 0 0 0 0 0 0 0 0 0 0 0 0 0 0 0 0 127 0" result="hardAlpha"/>
<feOffset dx="10" dy="20"/>
<feGaussianBlur stdDeviation="12.5"/>
<feComposite in2="hardAlpha" operator="out"/>
<feColorMatrix type="matrix" values="0 0 0 0 0 0 0 0 0 0 0 0 0 0 0 0 0 0 0.14 0"/>
<feBlend mode="normal" in2="BackgroundImageFix" result="effect1_dropShadow_13341_48"/>
<feBlend mode="normal" in="SourceGraphic" in2="effect1_dropShadow_13341_48" result="shape"/>
</filter>
</defs>
</svg>
