<svg width="36" height="36" viewBox="0 0 36 36" fill="none" xmlns="http://www.w3.org/2000/svg">
<circle cx="18" cy="18" r="18" fill="#F2F7FF"/>
<g clip-path="url(#clip0_13047_1018)">
<path d="M21.75 19.5C21.75 19.6989 21.671 19.8897 21.5303 20.0303C21.3897 20.171 21.1989 20.25 21 20.25H15C14.8011 20.25 14.6103 20.171 14.4697 20.0303C14.329 19.8897 14.25 19.6989 14.25 19.5C14.25 19.3011 14.329 19.1103 14.4697 18.9697C14.6103 18.829 14.8011 18.75 15 18.75H21C21.1989 18.75 21.3897 18.829 21.5303 18.9697C21.671 19.1103 21.75 19.3011 21.75 19.5ZM18.75 21.75H15C14.8011 21.75 14.6103 21.829 14.4697 21.9697C14.329 22.1103 14.25 22.3011 14.25 22.5C14.25 22.6989 14.329 22.8897 14.4697 23.0303C14.6103 23.171 14.8011 23.25 15 23.25H18.75C18.9489 23.25 19.1397 23.171 19.2803 23.0303C19.421 22.8897 19.5 22.6989 19.5 22.5C19.5 22.3011 19.421 22.1103 19.2803 21.9697C19.1397 21.829 18.9489 21.75 18.75 21.75ZM25.5 16.8638V23.25C25.4988 24.2442 25.1033 25.1973 24.4003 25.9004C23.6973 26.6034 22.7442 26.9988 21.75 27H14.25C13.2558 26.9988 12.3027 26.6034 11.5997 25.9004C10.8967 25.1973 10.5012 24.2442 10.5 23.25V12.75C10.5012 11.7558 10.8967 10.8027 11.5997 10.0997C12.3027 9.39668 13.2558 9.00121 14.25 9.00002H17.6363C18.326 8.99824 19.0092 9.13321 19.6464 9.39711C20.2837 9.66102 20.8622 10.0486 21.3488 10.5375L23.9618 13.152C24.4509 13.6382 24.8388 14.2166 25.1028 14.8537C25.3669 15.4909 25.5019 16.1741 25.5 16.8638ZM20.2883 11.598C20.0522 11.3694 19.7872 11.1727 19.5 11.013V14.25C19.5 14.4489 19.579 14.6397 19.7197 14.7803C19.8603 14.921 20.0511 15 20.25 15H23.487C23.3272 14.7129 23.1303 14.4481 22.9013 14.2125L20.2883 11.598ZM24 16.8638C24 16.74 23.976 16.6215 23.9648 16.5H20.25C19.6533 16.5 19.081 16.263 18.659 15.841C18.2371 15.4191 18 14.8468 18 14.25V10.5353C17.8785 10.524 17.7593 10.5 17.6363 10.5H14.25C13.6533 10.5 13.081 10.7371 12.659 11.159C12.2371 11.581 12 12.1533 12 12.75V23.25C12 23.8468 12.2371 24.419 12.659 24.841C13.081 25.263 13.6533 25.5 14.25 25.5H21.75C22.3467 25.5 22.919 25.263 23.341 24.841C23.7629 24.419 24 23.8468 24 23.25V16.8638Z" fill="#407BFF"/>
</g>
<defs>
<clipPath id="clip0_13047_1018">
<rect width="18" height="18" fill="white" transform="translate(9 9)"/>
</clipPath>
</defs>
</svg>
