<svg width="36" height="36" viewBox="0 0 36 36" fill="none" xmlns="http://www.w3.org/2000/svg">
<circle cx="18" cy="18" r="18" fill="#F2F7FF"/>
<g clip-path="url(#clip0_13047_998)">
<path d="M14.625 18.75C13.9575 18.75 13.305 18.5521 12.75 18.1812C12.1949 17.8104 11.7624 17.2833 11.5069 16.6666C11.2515 16.0499 11.1846 15.3713 11.3148 14.7166C11.4451 14.0619 11.7665 13.4605 12.2385 12.9885C12.7105 12.5165 13.3119 12.1951 13.9666 12.0649C14.6213 11.9346 15.2999 12.0015 15.9166 12.2569C16.5333 12.5124 17.0604 12.9449 17.4312 13.5C17.8021 14.055 18 14.7075 18 15.375C17.999 16.2698 17.6431 17.1277 17.0104 17.7604C16.3777 18.3931 15.5198 18.749 14.625 18.75ZM14.625 13.5C14.2542 13.5 13.8916 13.61 13.5833 13.816C13.275 14.022 13.0346 14.3149 12.8927 14.6575C12.7508 15.0001 12.7137 15.3771 12.786 15.7408C12.8584 16.1045 13.037 16.4386 13.2992 16.7008C13.5614 16.963 13.8955 17.1416 14.2592 17.214C14.6229 17.2863 14.9999 17.2492 15.3425 17.1073C15.6851 16.9654 15.978 16.725 16.184 16.4167C16.39 16.1084 16.5 15.7458 16.5 15.375C16.5 14.8777 16.3025 14.4008 15.9508 14.0492C15.5992 13.6975 15.1223 13.5 14.625 13.5ZM20.25 26.25V25.875C20.25 24.3832 19.6574 22.9524 18.6025 21.8975C17.5476 20.8426 16.1168 20.25 14.625 20.25C13.1332 20.25 11.7024 20.8426 10.6475 21.8975C9.59263 22.9524 9 24.3832 9 25.875L9 26.25C9 26.4489 9.07902 26.6397 9.21967 26.7803C9.36032 26.921 9.55109 27 9.75 27C9.94891 27 10.1397 26.921 10.2803 26.7803C10.421 26.6397 10.5 26.4489 10.5 26.25V25.875C10.5 24.781 10.9346 23.7318 11.7082 22.9582C12.4818 22.1846 13.531 21.75 14.625 21.75C15.719 21.75 16.7682 22.1846 17.5418 22.9582C18.3154 23.7318 18.75 24.781 18.75 25.875V26.25C18.75 26.4489 18.829 26.6397 18.9697 26.7803C19.1103 26.921 19.3011 27 19.5 27C19.6989 27 19.8897 26.921 20.0303 26.7803C20.171 26.6397 20.25 26.4489 20.25 26.25ZM27 22.5C27 21.4865 26.7066 20.4947 26.1553 19.6443C25.604 18.7939 24.8183 18.1212 23.8931 17.7075C22.9679 17.2938 21.9427 17.1567 20.9413 17.3128C19.9399 17.4689 19.0051 17.9115 18.2498 18.5873C18.1753 18.6527 18.1146 18.7321 18.0711 18.8212C18.0275 18.9102 18.0021 19.0069 17.9962 19.1058C17.9902 19.2047 18.004 19.3038 18.0366 19.3974C18.0692 19.4909 18.12 19.5771 18.186 19.6509C18.2521 19.7247 18.3322 19.7847 18.4216 19.8274C18.511 19.8701 18.608 19.8947 18.7069 19.8997C18.8059 19.9047 18.9048 19.89 18.9981 19.8566C19.0913 19.8231 19.1771 19.7715 19.2502 19.7048C19.7898 19.2222 20.4576 18.9062 21.1728 18.7947C21.8881 18.6833 22.6203 18.7813 23.2811 19.0769C23.9419 19.3724 24.503 19.8529 24.8967 20.4603C25.2905 21.0677 25.5 21.7761 25.5 22.5C25.5 22.6989 25.579 22.8897 25.7197 23.0303C25.8603 23.171 26.0511 23.25 26.25 23.25C26.4489 23.25 26.6397 23.171 26.7803 23.0303C26.921 22.8897 27 22.6989 27 22.5ZM22.125 15.75C21.4575 15.75 20.805 15.5521 20.25 15.1812C19.6949 14.8104 19.2624 14.2833 19.0069 13.6666C18.7515 13.0499 18.6846 12.3713 18.8148 11.7166C18.9451 11.0619 19.2665 10.4605 19.7385 9.98852C20.2105 9.51651 20.8119 9.19508 21.4666 9.06485C22.1213 8.93463 22.7999 9.00146 23.4166 9.25691C24.0333 9.51235 24.5604 9.94494 24.9312 10.5C25.3021 11.055 25.5 11.7075 25.5 12.375C25.499 13.2698 25.1431 14.1277 24.5104 14.7604C23.8777 15.3931 23.0198 15.749 22.125 15.75ZM22.125 10.5C21.7542 10.5 21.3916 10.61 21.0833 10.816C20.775 11.022 20.5346 11.3149 20.3927 11.6575C20.2508 12.0001 20.2137 12.3771 20.286 12.7408C20.3584 13.1045 20.537 13.4386 20.7992 13.7008C21.0614 13.963 21.3955 14.1416 21.7592 14.214C22.1229 14.2863 22.4999 14.2492 22.8425 14.1073C23.1851 13.9654 23.478 13.725 23.684 13.4167C23.89 13.1084 24 12.7458 24 12.375C24 11.8777 23.8025 11.4008 23.4508 11.0492C23.0992 10.6975 22.6223 10.5 22.125 10.5Z" fill="#407BFF"/>
</g>
<defs>
<clipPath id="clip0_13047_998">
<rect width="18" height="18" fill="white" transform="translate(9 9)"/>
</clipPath>
</defs>
</svg>
