<svg width="36" height="36" viewBox="0 0 36 36" fill="none" xmlns="http://www.w3.org/2000/svg">
<circle cx="18" cy="18" r="18" fill="#F2F7FF"/>
<g clip-path="url(#clip0_13047_1023)">
<path d="M23.25 12H22.4242C22.0755 10.2907 20.5605 9 18.75 9H12.75C10.6823 9 9 10.6822 9 12.75V22.3905C9 22.986 9.32625 23.5305 9.8505 23.811C10.089 23.9392 10.3507 24.0022 10.6117 24.0022C10.9237 24.0022 11.235 23.9115 11.5043 23.7322L13.7168 22.257C14.235 23.7082 15.6225 24.75 17.25 24.75H21.5228L24.4957 26.7322C24.7657 26.9122 25.0763 27.003 25.3883 27.003C25.6493 27.003 25.9102 26.9392 26.1495 26.811C26.6745 26.5305 27 25.986 27 25.3905V15.75C27 13.6822 25.3177 12 23.25 12ZM10.6725 22.4842C10.6582 22.4932 10.6163 22.5202 10.5585 22.4895C10.4993 22.458 10.4992 22.4077 10.4992 22.3912V12.75C10.4992 11.5095 11.5087 10.5 12.7492 10.5H18.7492C19.9897 10.5 20.9992 11.5095 20.9992 12.75V18C20.9992 19.2405 19.9897 20.25 18.7492 20.25H14.2492C14.004 20.25 13.8435 20.3692 13.8255 20.3812L10.6725 22.4842ZM25.5 25.3912C25.5 25.407 25.5 25.458 25.4408 25.4895C25.3815 25.5202 25.341 25.4932 25.3275 25.4842L22.1663 23.376C22.0433 23.2942 21.8985 23.25 21.75 23.25H17.25C16.272 23.25 15.4387 22.623 15.129 21.75H18.75C20.8177 21.75 22.5 20.0677 22.5 18V13.5H23.25C24.4905 13.5 25.5 14.5095 25.5 15.75V25.3912Z" fill="#407BFF"/>
</g>
<defs>
<clipPath id="clip0_13047_1023">
<rect width="18" height="18" fill="white" transform="translate(9 9)"/>
</clipPath>
</defs>
</svg>
