<svg width="36" height="36" viewBox="0 0 36 36" fill="none" xmlns="http://www.w3.org/2000/svg">
<circle cx="18" cy="18" r="18" fill="#F2F7FF"/>
<g clip-path="url(#clip0_13047_1028)">
<path d="M18 21.0007C16.3455 21.0007 15 19.6552 15 18.0007C15 16.3462 16.3455 15.0008 18 15.0008C19.6545 15.0008 21 16.3462 21 18.0007C21 19.6552 19.6545 21.0007 18 21.0007ZM18 16.5008C17.1727 16.5008 16.5 17.1735 16.5 18.0007C16.5 18.828 17.1727 19.5007 18 19.5007C18.8273 19.5007 19.5 18.828 19.5 18.0007C19.5 17.1735 18.8273 16.5008 18 16.5008ZM12.75 14.2508C12.336 14.2508 12 14.5868 12 15.0008C12 15.4148 12.336 15.7508 12.75 15.7508C13.164 15.7508 13.5 15.4148 13.5 15.0008C13.5 14.5868 13.164 14.2508 12.75 14.2508ZM22.5 16.5008C22.5 16.9148 22.836 17.2507 23.25 17.2507C23.664 17.2507 24 16.9148 24 16.5008C24 16.0868 23.664 15.7508 23.25 15.7508C22.836 15.7508 22.5 16.0868 22.5 16.5008ZM12.75 18.7507C12.336 18.7507 12 19.0867 12 19.5007C12 19.9147 12.336 20.2507 12.75 20.2507C13.164 20.2507 13.5 19.9147 13.5 19.5007C13.5 19.0867 13.164 18.7507 12.75 18.7507ZM22.5 21.0007C22.5 21.4147 22.836 21.7507 23.25 21.7507C23.664 21.7507 24 21.4147 24 21.0007C24 20.5868 23.664 20.2507 23.25 20.2507C22.836 20.2507 22.5 20.5868 22.5 21.0007ZM21.7507 24.7507C20.5208 24.7507 19.1347 24.3547 17.7945 23.9715C16.554 23.6167 15.2708 23.2507 14.2508 23.2507C12.2025 23.2507 10.089 24.228 10.0673 24.237L9 24.7365V14.3692C9 13.5232 9.4635 12.7582 10.2113 12.372C11.205 11.8597 12.711 11.25 14.2508 11.25C15.4973 11.25 16.7003 11.6513 17.8628 12.0383C18.96 12.4043 19.9965 12.75 21 12.75C22.0395 12.75 22.8878 12.4785 23.5695 12.2603C23.796 12.1875 24.0022 12.1215 24.1905 12.072C24.864 11.8927 25.5667 12.036 26.1203 12.462C26.6798 12.8925 27.0007 13.5443 27.0007 14.25V23.4637L26.5605 23.6632C26.4622 23.7082 24.1357 24.7507 21.7507 24.7507ZM14.2508 21.7507C15.4808 21.7507 16.8668 22.1467 18.207 22.53C19.4482 22.8847 20.7307 23.2507 21.7507 23.2507C23.2507 23.2507 24.7732 22.752 25.5007 22.4767V14.2508C25.5007 14.0137 25.3927 13.7955 25.2052 13.6515C25.0988 13.5698 24.8737 13.4445 24.5737 13.5233C24.408 13.5675 24.2257 13.626 24.0262 13.6897C23.2867 13.926 22.2727 14.2508 21 14.2508C19.7535 14.2508 18.5505 13.8495 17.388 13.4625C16.2908 13.0965 15.2543 12.7507 14.2508 12.7507C12.9465 12.7507 11.5905 13.3492 10.8982 13.7055C10.6522 13.8322 10.4992 14.0865 10.4992 14.3692V22.4557C11.4218 22.1355 12.8265 21.7507 14.2508 21.7507Z" fill="#407BFF"/>
</g>
<defs>
<clipPath id="clip0_13047_1028">
<rect width="18" height="18" fill="white" transform="translate(9 9)"/>
</clipPath>
</defs>
</svg>
