<svg width="36" height="36" viewBox="0 0 36 36" fill="none" xmlns="http://www.w3.org/2000/svg">
<circle cx="18" cy="18" r="18" fill="#F2F7FF"/>
<g clip-path="url(#clip0_13047_1008)">
<path d="M22.5006 15.3752C22.5006 15.8725 22.303 16.3494 21.9514 16.701C21.5998 17.0527 21.1228 17.2502 20.6256 17.2502C20.1283 17.2502 19.6514 17.0527 19.2997 16.701C18.9481 16.3494 18.7506 15.8725 18.7506 15.3752C18.7506 14.8779 18.9481 14.401 19.2997 14.0494C19.6514 13.6977 20.1283 13.5002 20.6256 13.5002C21.1228 13.5002 21.5998 13.6977 21.9514 14.0494C22.303 14.401 22.5006 14.8779 22.5006 15.3752ZM22.4961 20.5247C22.4549 21.7164 22.1574 22.8851 21.6238 23.9515C21.1322 24.8811 20.394 25.6575 19.4903 26.1953C18.5866 26.7331 17.5522 27.0116 16.5006 27.0002H15.7506V22.8752C15.7472 22.18 15.4696 21.5143 14.978 21.0228C14.4865 20.5312 13.8207 20.2536 13.1256 20.2502H9.00056V19.5002C8.98921 18.4486 9.26771 17.4142 9.80551 16.5105C10.3433 15.6067 11.1196 14.8686 12.0493 14.377C13.1156 13.8434 14.2844 13.5459 15.4761 13.5047C16.5687 12.0934 17.9719 10.9529 19.5767 10.1717C21.1815 9.39045 22.9447 8.9896 24.7296 9.00021C25.0266 8.99833 25.321 9.05509 25.596 9.16724C25.871 9.27939 26.1212 9.44472 26.3322 9.65375C26.5431 9.86278 26.7108 10.1114 26.8255 10.3854C26.9402 10.6593 26.9997 10.9532 27.0006 11.2502C27.0133 13.0384 26.6135 14.8054 25.8322 16.4139C25.051 18.0224 23.9094 19.4291 22.4961 20.5247ZM10.5636 18.7502H12.2601C12.817 17.5097 13.4713 16.3152 14.2168 15.178C13.699 15.2984 13.1973 15.4797 12.7221 15.718C12.1505 16.0198 11.6576 16.4512 11.2828 16.9778C10.9079 17.5043 10.6616 18.1113 10.5636 18.7502ZM20.8228 21.784C19.6856 22.5294 18.4911 23.1837 17.2506 23.7407V25.4372C17.8894 25.3391 18.4964 25.0928 19.023 24.718C19.5495 24.3432 19.981 23.8503 20.2828 23.2787C20.5211 22.8035 20.7023 22.3017 20.8228 21.784ZM25.5006 11.2292C25.4951 11.034 25.4137 10.8485 25.2736 10.7124C25.1335 10.5763 24.9459 10.5001 24.7506 10.5002C20.8806 10.6105 18.2631 12.0932 15.7371 15.6167C15.0322 16.6316 14.4123 17.703 13.8838 18.82C14.7028 18.9725 15.4563 19.3694 16.0454 19.9584C16.6344 20.5474 17.0313 21.301 17.1838 22.12C18.3008 21.5915 19.3722 20.9716 20.3871 20.2667C23.9076 17.7377 25.3903 15.1202 25.5006 11.2292ZM13.5921 22.4095C14.0111 22.8328 14.2462 23.4045 14.2462 24.0002C14.2462 24.5959 14.0111 25.1676 13.5921 25.591C12.9118 26.2705 10.8756 26.6897 10.0311 26.839L8.97656 27.0242L9.16181 25.9697C9.31181 25.1252 9.73031 23.089 10.4098 22.4087C10.8386 21.9997 11.4085 21.7716 12.0011 21.7717C12.5937 21.7719 13.1634 22.0002 13.5921 22.4095ZM12.7506 24.0002C12.7508 23.9017 12.7315 23.8041 12.6938 23.7131C12.6561 23.622 12.6007 23.5394 12.5308 23.47C12.3902 23.3293 12.1994 23.2504 12.0006 23.2504C11.8017 23.2504 11.611 23.3293 11.4703 23.47C11.1844 23.9861 10.9835 24.5451 10.8756 25.1252C11.4559 25.0168 12.0151 24.8157 12.5316 24.5297C12.6012 24.4603 12.6564 24.3777 12.694 24.2869C12.7316 24.196 12.7508 24.0986 12.7506 24.0002Z" fill="#407BFF"/>
</g>
<defs>
<clipPath id="clip0_13047_1008">
<rect width="18" height="18" fill="white" transform="translate(9 9)"/>
</clipPath>
</defs>
</svg>
