<svg width="36" height="36" viewBox="0 0 36 36" fill="none" xmlns="http://www.w3.org/2000/svg">
<circle cx="18" cy="18" r="18" fill="#F2F7FF"/>
<g clip-path="url(#clip0_13047_1033)">
<path d="M18 9C15.7665 9 13.6342 9.83325 12 11.2927V9H10.5V12.75C10.5 13.5773 11.1727 14.25 12 14.25H15.75V12.75H12.645C14.0452 11.3242 15.9727 10.5 18 10.5C22.1355 10.5 25.5 13.8645 25.5 18C25.5 22.1355 22.1355 25.5 18 25.5C13.8645 25.5 10.5 22.1355 10.5 18H9C9 22.9628 13.0373 27 18 27C22.9628 27 27 22.9628 27 18C27 13.0373 22.9628 9 18 9Z" fill="#407BFF"/>
<path d="M16.8535 16.9844C16.8535 17.2679 17.0568 17.5079 17.3365 17.5544L19.6173 17.9346C20.6238 18.1019 21.3535 18.9644 21.3535 19.9844C21.3535 21.2249 20.344 22.2344 19.1035 22.2344V23.7344H17.6035V22.2344C16.363 22.2344 15.3535 21.2249 15.3535 19.9844H16.8535C16.8535 20.3984 17.1895 20.7344 17.6035 20.7344H19.1035C19.5175 20.7344 19.8535 20.3984 19.8535 19.9844C19.8535 19.7009 19.6503 19.4609 19.3705 19.4144L17.0898 19.0341C16.0833 18.8669 15.3535 18.0044 15.3535 16.9844C15.3535 15.7439 16.363 14.7344 17.6035 14.7344V13.2344H19.1035V14.7344C20.344 14.7344 21.3535 15.7439 21.3535 16.9844H19.8535C19.8535 16.5711 19.5175 16.2344 19.1035 16.2344H17.6035C17.1895 16.2344 16.8535 16.5711 16.8535 16.9844Z" fill="#407BFF"/>
</g>
<defs>
<clipPath id="clip0_13047_1033">
<rect width="18" height="18" fill="white" transform="translate(9 9)"/>
</clipPath>
</defs>
</svg>
